<svg width="29" height="33" viewBox="0 0 29 33" fill="none" xmlns="http://www.w3.org/2000/svg">
<g filter="url(#filter0_d_3768_23630)">
<mask id="path-1-outside-1_3768_23630" maskUnits="userSpaceOnUse" x="3.5" y="3.49512" width="20" height="24" fill="black">
<rect fill="white" x="3.5" y="3.49512" width="20" height="24"/>
<path fill-rule="evenodd" clip-rule="evenodd" d="M19.1569 7.90596C17.6566 6.36232 15.6217 5.49512 13.5 5.49512C11.3783 5.49512 9.34344 6.36232 7.84315 7.90596C6.34286 9.4496 5.5 11.5432 5.5 13.7262C5.5 17.1268 7.77036 20.8244 12.252 24.8598L12.5622 25.1367C12.8225 25.3676 13.1547 25.4948 13.4985 25.4951C13.8422 25.4954 14.1746 25.3689 14.4354 25.1384C19.1246 20.995 21.5 17.2044 21.5 13.7262C21.5 11.5432 20.6571 9.4496 19.1569 7.90596Z"/>
</mask>
<path fill-rule="evenodd" clip-rule="evenodd" d="M19.1569 7.90596C17.6566 6.36232 15.6217 5.49512 13.5 5.49512C11.3783 5.49512 9.34344 6.36232 7.84315 7.90596C6.34286 9.4496 5.5 11.5432 5.5 13.7262C5.5 17.1268 7.77036 20.8244 12.252 24.8598L12.5622 25.1367C12.8225 25.3676 13.1547 25.4948 13.4985 25.4951C13.8422 25.4954 14.1746 25.3689 14.4354 25.1384C19.1246 20.995 21.5 17.2044 21.5 13.7262C21.5 11.5432 20.6571 9.4496 19.1569 7.90596Z" fill="#3ABF67"/>
<path d="M19.1569 7.90596L17.7226 9.29989L19.1569 7.90596ZM7.84315 7.90596L9.27735 9.29989V9.29989L7.84315 7.90596ZM12.252 24.8598L10.9137 26.3461L10.92 26.3517L12.252 24.8598ZM12.5622 25.1367L11.2302 26.6286L11.235 26.6329L12.5622 25.1367ZM13.4985 25.4951L13.4967 27.4951H13.4967L13.4985 25.4951ZM14.4354 25.1384L13.1111 23.6396L13.1109 23.6398L14.4354 25.1384ZM13.5 7.49512C15.0726 7.49512 16.5928 8.13736 17.7226 9.29989L20.5911 6.51203C18.7204 4.58729 16.1708 3.49512 13.5 3.49512V7.49512ZM9.27735 9.29989C10.4072 8.13736 11.9274 7.49512 13.5 7.49512V3.49512C10.8292 3.49512 8.27963 4.58729 6.40894 6.51203L9.27735 9.29989ZM7.5 13.7262C7.5 12.0556 8.14558 10.4644 9.27735 9.29989L6.40894 6.51203C4.54013 8.43482 3.5 11.0309 3.5 13.7262H7.5ZM13.5903 23.3735C9.21406 19.4331 7.5 16.2417 7.5 13.7262H3.5C3.5 18.0118 6.32666 22.2158 10.9137 26.3461L13.5903 23.3735ZM13.8941 23.6448L13.584 23.3679L10.92 26.3517L11.2302 26.6286L13.8941 23.6448ZM13.5003 23.4951C13.6517 23.4953 13.7892 23.5517 13.8893 23.6405L11.235 26.6329C11.8558 27.1836 12.6578 27.4944 13.4967 27.4951L13.5003 23.4951ZM13.1109 23.6398C13.2112 23.5512 13.3489 23.495 13.5003 23.4951L13.4967 27.4951C14.3355 27.4959 15.1381 27.1865 15.7599 26.6369L13.1109 23.6398ZM19.5 13.7262C19.5 16.3023 17.7018 19.5833 13.1111 23.6396L15.7597 26.6371C20.5474 22.4067 23.5 18.1066 23.5 13.7262H19.5ZM17.7226 9.29989C18.8544 10.4644 19.5 12.0556 19.5 13.7262H23.5C23.5 11.0309 22.4599 8.43482 20.5911 6.51203L17.7226 9.29989Z" fill="white" mask="url(#path-1-outside-1_3768_23630)"/>
</g>
<circle cx="13.5" cy="13.4951" r="2" fill="white"/>
<defs>
<filter id="filter0_d_3768_23630" x="0.5" y="0.495117" width="28" height="32" filterUnits="userSpaceOnUse" color-interpolation-filters="sRGB">
<feFlood flood-opacity="0" result="BackgroundImageFix"/>
<feColorMatrix in="SourceAlpha" type="matrix" values="0 0 0 0 0 0 0 0 0 0 0 0 0 0 0 0 0 0 127 0" result="hardAlpha"/>
<feOffset dx="1" dy="1"/>
<feGaussianBlur stdDeviation="2"/>
<feComposite in2="hardAlpha" operator="out"/>
<feColorMatrix type="matrix" values="0 0 0 0 0 0 0 0 0 0 0 0 0 0 0 0 0 0 0.3 0"/>
<feBlend mode="normal" in2="BackgroundImageFix" result="effect1_dropShadow_3768_23630"/>
<feBlend mode="normal" in="SourceGraphic" in2="effect1_dropShadow_3768_23630" result="shape"/>
</filter>
</defs>
</svg>
