<svg width="18" height="18" viewBox="0 0 18 18" fill="none" xmlns="http://www.w3.org/2000/svg">
<g clip-path="url(#clip0_2360_17167)">
<path d="M8.9925 1.5C4.8525 1.5 1.5 4.86 1.5 9C1.5 13.14 4.8525 16.5 8.9925 16.5C13.14 16.5 16.5 13.14 16.5 9C16.5 4.86 13.14 1.5 8.9925 1.5ZM6.375 6C6.9975 6 7.5 6.5025 7.5 7.125C7.5 7.7475 6.9975 8.25 6.375 8.25C5.7525 8.25 5.25 7.7475 5.25 7.125C5.25 6.5025 5.7525 6 6.375 6ZM12.5325 11.04C11.85 12.5025 10.53 13.5 9 13.5C7.47 13.5 6.15 12.5025 5.4675 11.04C5.3475 10.7925 5.5275 10.5 5.805 10.5H12.195C12.4725 10.5 12.6525 10.7925 12.5325 11.04ZM11.625 8.25C11.0025 8.25 10.5 7.7475 10.5 7.125C10.5 6.5025 11.0025 6 11.625 6C12.2475 6 12.75 6.5025 12.75 7.125C12.75 7.7475 12.2475 8.25 11.625 8.25Z" fill="#7D9ADF"/>
</g>
<defs>
<clipPath id="clip0_2360_17167">
<rect width="18" height="18" fill="white"/>
</clipPath>
</defs>
</svg>
