<svg width="16" height="16" viewBox="0 0 16 16" fill="none" xmlns="http://www.w3.org/2000/svg">
<g clip-path="url(#clip0_1768_4919)">
<path d="M4.6665 11.9999C3.93317 11.9999 3.33984 12.5999 3.33984 13.3333C3.33984 14.0666 3.93317 14.6666 4.6665 14.6666C5.39984 14.6666 5.99984 14.0666 5.99984 13.3333C5.99984 12.5999 5.39984 11.9999 4.6665 11.9999ZM0.666504 1.33325V2.66659H1.99984L4.39984 7.72658L3.49984 9.35992C3.39317 9.54659 3.33317 9.76658 3.33317 9.99992C3.33317 10.7333 3.93317 11.3333 4.6665 11.3333H12.6665V9.99992H4.9465C4.85317 9.99992 4.77984 9.92659 4.77984 9.83325L4.79984 9.75325L5.39984 8.66658H10.3665C10.8665 8.66658 11.3065 8.39325 11.5332 7.97992L13.9198 3.65325C13.9732 3.55992 13.9998 3.44659 13.9998 3.33325C13.9998 2.96659 13.6998 2.66659 13.3332 2.66659H3.47317L2.8465 1.33325H0.666504ZM11.3332 11.9999C10.5998 11.9999 10.0065 12.5999 10.0065 13.3333C10.0065 14.0666 10.5998 14.6666 11.3332 14.6666C12.0665 14.6666 12.6665 14.0666 12.6665 13.3333C12.6665 12.5999 12.0665 11.9999 11.3332 11.9999Z" fill="#BEBEBE"/>
</g>
<defs>
<clipPath id="clip0_1768_4919">
<rect width="16" height="16" fill="white"/>
</clipPath>
</defs>
</svg>
