<svg width="18" height="18" viewBox="0 0 18 18" fill="none" xmlns="http://www.w3.org/2000/svg">
<g clip-path="url(#clip0_2247_4221)">
<path d="M2.25 1.5V6H6.75" stroke="#BEBEBE" stroke-width="1.5" stroke-linecap="round" stroke-linejoin="round"/>
<path d="M2.25 9.75011C2.40925 11.2546 3.06929 12.6619 4.1242 13.7463C5.1791 14.8307 6.56772 15.5293 8.06721 15.7299C9.5667 15.9306 11.0901 15.6217 12.393 14.8528C13.6959 14.0839 14.7028 12.8997 15.252 11.49C15.8012 10.0804 15.8609 8.52708 15.4216 7.07942C14.9823 5.63175 14.0694 4.37364 12.8294 3.50696C11.5894 2.64029 10.0942 2.2153 8.58372 2.30019C7.07324 2.38509 5.63508 2.97494 4.5 3.97511L2.25 6.00011" stroke="#BEBEBE" stroke-width="1.5" stroke-linecap="round" stroke-linejoin="round"/>
</g>
<defs>
<clipPath id="clip0_2247_4221">
<rect width="18" height="18" fill="white"/>
</clipPath>
</defs>
</svg>
