<svg width="12" height="16" viewBox="0 0 12 16" fill="none" xmlns="http://www.w3.org/2000/svg">
<path fill-rule="evenodd" clip-rule="evenodd" d="M5.89873 3.5H5.19872V7.09975H5.19859V3.5H3.79857V12.5H5.19859V8.89975H5.19872V12.5H5.89873V8.89975L10.0991 8.89975V12.5H10.7987H10.7991H12.1987V3.5H10.7991H10.7987H10.0991V7.09975L5.89873 7.09975V3.5ZM0.998535 4.84975H1.69854V4.85H3.09856V11.15H1.69854V11.1497H0.998535V8.89975H0.298828V7.09975H0.998535V4.84975ZM14.2993 4.84975V7.55H14.2987V4.85H12.8987V11.15H14.2987V8.45H14.2993V11.1497H14.9993V8.89975H15.699V7.09975H14.9993V4.84975H14.2993Z" fill="#BEBEBE"/>
</svg>
