<svg width="21" height="21" viewBox="0 0 21 21" fill="none" xmlns="http://www.w3.org/2000/svg">
<path d="M18.875 10L9.875 1L0.875 10H2.875V17C2.875 17.5304 3.08571 18.0391 3.46079 18.4142C3.83586 18.7893 4.34457 19 4.875 19H11.1607" stroke="#808080" stroke-width="1.28571" stroke-linecap="round" stroke-linejoin="round"/>
<path d="M6.875 19V13C6.875 12.4696 7.08571 11.9609 7.46079 11.5858C7.83586 11.2107 8.34457 11 8.875 11H9.875L14.1607 11" stroke="#808080" stroke-width="1.28571" stroke-linecap="round" stroke-linejoin="round"/>
<path d="M15.875 19C17.5319 19 18.875 17.6569 18.875 16C18.875 14.3431 17.5319 13 15.875 13C14.2181 13 12.875 14.3431 12.875 16C12.875 17.6569 14.2181 19 15.875 19Z" stroke="#808080" stroke-width="1.28571" stroke-linecap="round" stroke-linejoin="round"/>
<path d="M18.0742 18.1997L19.8742 19.9997" stroke="#808080" stroke-width="1.28571" stroke-linecap="round" stroke-linejoin="round"/>
</svg>
