<svg width="90" height="20" viewBox="0 0 90 20" fill="none" xmlns="http://www.w3.org/2000/svg">
<g clip-path="url(#clip0_2946_18025)">
<path d="M9.94207 0.00350182C9.93393 0.00350182 9.92695 0.00292042 9.91823 0.00350182C9.85718 0.00350182 9.79643 0.00262972 9.73538 0.00204833C9.59934 0.000304143 9.47085 -0.00144004 9.34352 0.0055367C9.16532 0.0151297 8.98887 0.0369321 8.80195 0.0601879L8.75515 0.0660018C6.67143 0.322688 4.8723 1.16862 3.40776 2.57996C0.985089 4.91455 0.0222975 7.78228 0.545553 11.1035C0.897298 13.3361 1.99294 15.239 3.80166 16.759C5.8223 18.457 8.21067 19.1904 10.9025 18.9381C12.1929 18.8172 13.4458 18.4105 14.6267 17.7294C14.8921 17.5762 15.1456 17.4994 15.3892 17.4994C15.7368 17.4994 16.0647 17.6558 16.3793 17.9695C16.5522 18.1419 16.7243 18.3154 16.8964 18.489C17.2653 18.8611 17.6464 19.2457 18.0304 19.6119C18.3679 19.934 18.8272 20.0645 19.2897 19.9704C19.7479 19.877 20.1147 19.5826 20.2956 19.1625C20.529 18.6207 20.388 17.9529 19.945 17.5006C19.5944 17.1427 19.2389 16.7893 18.8836 16.4361L18.4304 15.9846C17.8581 15.4128 17.7845 14.8645 18.1842 14.1518C19.3647 12.0471 19.7066 9.79246 19.2005 7.4506C18.2674 3.13199 14.3755 0.00350182 9.94207 0.00350182Z" fill="#FF6161"/>
<path d="M15.1874 6.76884H9.55891C9.52316 6.76884 9.48886 6.75459 9.46502 6.72959L7.60135 4.32523C7.52926 4.24965 7.58682 4.12988 7.69525 4.12988H13.3237C13.3595 4.12988 13.3938 4.14413 13.4176 4.16913L15.2813 6.57349C15.3534 6.64907 15.2958 6.76884 15.1874 6.76884Z" fill="white"/>
<path d="M15.0786 7.33724H9.20591L6.78701 4.2637C6.73992 4.21777 6.66638 4.21777 6.61899 4.2637L4.20126 7.33782L4.20039 7.33899C4.14486 7.41631 4.11579 7.50701 4.11289 7.59829H4.1123V12.9085C4.1123 13.0381 4.21725 13.1431 4.3469 13.1431H15.0786C15.2082 13.1431 15.3132 13.0381 15.3132 12.9085V7.57213C15.3132 7.44248 15.2082 7.33753 15.0786 7.33753V7.33724Z" fill="white"/>
<path d="M6.95302 11.3165C6.37017 11.3165 5.78965 11.0839 5.22686 10.6185C5.04895 10.4714 5.02395 10.208 5.17104 10.0301C5.31814 9.85221 5.58151 9.8275 5.75941 9.97431C6.57133 10.6458 7.33441 10.6452 8.16029 9.97227C8.33907 9.82663 8.60244 9.85338 8.74808 10.0324C8.89372 10.2112 8.86697 10.4746 8.6879 10.6202C8.11843 11.0842 7.53442 11.3162 6.95273 11.3162L6.95302 11.3165Z" fill="#FF6161"/>
<path d="M6.06471 9.04628C5.83389 9.04628 5.64697 8.85907 5.64697 8.62854V8.18726C5.64697 7.95645 5.83418 7.76953 6.06471 7.76953C6.29523 7.76953 6.48244 7.95674 6.48244 8.18726V8.62854C6.48244 8.85936 6.29523 9.04628 6.06471 9.04628Z" fill="#FF6161"/>
<path d="M7.86256 9.04628C7.63174 9.04628 7.44482 8.85907 7.44482 8.62854V8.18726C7.44482 7.95645 7.63203 7.76953 7.86256 7.76953C8.09308 7.76953 8.28029 7.95674 8.28029 8.18726V8.62854C8.28029 8.85936 8.09308 9.04628 7.86256 9.04628Z" fill="#FF6161"/>
</g>
<g clip-path="url(#clip1_2946_18025)">
<path d="M28.8803 8.01432C27.6967 8.01432 27.2963 7.6523 27.2963 6.47265V3.57121C27.2963 2.39156 27.6967 2.02954 28.8803 2.02954H37.8887C38.6524 2.02954 39.1999 2.39156 39.1999 3.15445C39.1999 3.91733 38.6542 4.27935 37.8887 4.27935H30.2642C30.0817 4.27935 30.0463 4.31644 30.0463 4.4789V5.56672C30.0463 5.72919 30.0835 5.76627 30.2642 5.76627H38.0712C38.8349 5.76627 39.3806 6.12829 39.3806 6.89118C39.3806 7.65407 38.8349 8.01609 38.0712 8.01609H34.6497V9.39529H40.054C40.8726 9.39529 41.3829 9.66724 41.3829 10.4831C41.3829 11.299 40.8726 11.5533 40.054 11.5533H26.4422C25.6236 11.5533 25.1133 11.299 25.1133 10.4831C25.1133 9.66724 25.6236 9.39529 26.4422 9.39529H31.8465V8.01609H28.8803V8.01432ZM27.0234 15.5602C27.0234 13.2751 29.4438 12.295 33.2463 12.295C37.0488 12.295 39.471 13.2751 39.471 15.5602C39.471 17.8453 37.0506 18.8254 33.2463 18.8254C29.442 18.8254 27.0234 17.8453 27.0234 15.5602ZM29.8992 15.5602C29.8992 16.3037 31.0633 16.6851 33.2481 16.6851C35.4328 16.6851 36.597 16.3037 36.597 15.5602C36.597 14.8167 35.4328 14.4353 33.2481 14.4353C31.0633 14.4353 29.8992 14.8167 29.8992 15.5602Z" fill="#FF6161"/>
<path d="M45.6055 13.9635H44.2588C43.0221 13.9635 42.4214 13.3472 42.4214 12.1499V4.00537C42.4214 3.20716 42.8573 2.60851 43.7858 2.60851C44.7142 2.60851 45.1501 3.20716 45.1501 4.00537V11.1875C45.1501 11.4418 45.205 11.4965 45.4602 11.4965H45.9333C46.7342 11.4965 47.6804 11.4064 48.336 11.2969C49.027 11.1875 49.6277 11.4594 49.7553 12.24C49.9006 13.0382 49.392 13.5097 48.6992 13.6721C47.8257 13.8717 46.7147 13.9618 45.6055 13.9618V13.9635ZM53.3771 16.8844C53.3771 17.7003 52.904 18.117 52.0853 18.117C51.2667 18.117 50.7936 17.7003 50.7936 16.8844V8.59505H48.6089C47.7902 8.59505 47.3172 8.28601 47.3172 7.47015C47.3172 6.65428 47.7902 6.34524 48.6089 6.34524H50.7936V3.22659C50.7936 2.41072 51.2667 1.99396 52.0853 1.99396C52.904 1.99396 53.3771 2.41072 53.3771 3.22659V16.8826V16.8844ZM57.1069 17.393C57.1069 18.2088 56.6161 18.645 55.7975 18.645C54.9789 18.645 54.488 18.2106 54.488 17.393V3.06236C54.488 2.24649 54.9789 1.8103 55.7975 1.8103C56.6161 1.8103 57.1069 2.24649 57.1069 3.06236V17.3912V17.393Z" fill="#FF6161"/>
<path d="M59.4925 5.34791C58.6739 5.34791 58.1636 5.0583 58.1636 4.24067C58.1636 3.42304 58.6739 3.13519 59.4925 3.13519H62.1309V2.42881C62.1309 1.61295 62.6766 1.17676 63.4952 1.17676C64.3138 1.17676 64.8596 1.61295 64.8596 2.42881V3.13695H67.3172C68.1358 3.13695 68.6461 3.42657 68.6461 4.24243C68.6461 5.0583 68.1358 5.34968 67.3172 5.34968H59.4925V5.34791ZM63.497 5.8565C66.0273 5.8565 67.9374 6.88958 67.9374 9.06699C67.9374 11.2444 66.0273 12.2775 63.497 12.2775C60.9667 12.2775 59.0566 11.2444 59.0566 9.06699C59.0566 6.88958 60.9667 5.8565 63.497 5.8565ZM63.8071 15.7405C63.8071 15.9948 63.862 16.0495 64.1172 16.0495H71.6885C72.4522 16.0495 72.9253 16.4839 72.9253 17.2468C72.9253 18.0097 72.4522 18.4441 71.6885 18.4441H62.4976C61.314 18.4441 60.8604 18.0097 60.8604 16.8477V14.4355C60.8604 13.5648 61.4611 13.0562 62.3346 13.0562C63.2082 13.0562 63.8089 13.5648 63.8089 14.4355V15.7405H63.8071ZM63.497 7.94208C62.6784 7.94208 61.8403 8.28644 61.8403 9.06699C61.8403 9.84753 62.6766 10.1919 63.497 10.1919C64.3174 10.1919 65.1537 9.84753 65.1537 9.06699C65.1537 8.28644 64.3174 7.94208 63.497 7.94208ZM69.5569 3.11753C69.5569 2.26458 70.1576 1.81073 71.0134 1.81073C71.8692 1.81073 72.4699 2.26458 72.4699 3.11753V6.52756H73.7262C74.4899 6.52756 75.0356 6.90901 75.0356 7.72487C75.0356 8.54074 74.4899 8.92218 73.7262 8.92218H72.4699V12.6589C72.4699 13.5119 71.8692 13.9834 71.0134 13.9834C70.1576 13.9834 69.5569 13.5119 69.5569 12.6589V3.11753Z" fill="#FF6161"/>
<path d="M79.9313 2.02928C82.5519 2.02928 84.5896 3.42614 84.5896 6.03797C84.5896 8.6498 82.5519 10.0467 79.9313 10.0467C77.3106 10.0467 75.2729 8.6498 75.2729 6.03797C75.2729 3.42614 77.3106 2.02928 79.9313 2.02928ZM77.8015 12.4943C77.8015 11.6236 78.4021 11.1875 79.258 11.1875C80.1138 11.1875 80.7145 11.6413 80.7145 12.4943V13.1653H86.684V12.4943C86.684 11.6413 87.2847 11.1875 88.1405 11.1875C88.9963 11.1875 89.597 11.6413 89.597 12.4943V16.9197C89.597 18.0799 89.1239 18.5338 87.9598 18.5338H79.4422C78.2586 18.5338 77.805 18.0799 77.805 16.9197V12.4943H77.8015ZM79.9313 7.86925C81.0405 7.86925 81.7882 7.14345 81.7882 6.03797C81.7882 4.93249 81.0423 4.20669 79.9313 4.20669C78.8203 4.20669 78.0743 4.93249 78.0743 6.03797C78.0743 7.14345 78.8203 7.86925 79.9313 7.86925ZM80.7145 16.2857C80.7145 16.4129 80.7871 16.4853 80.9147 16.4853H86.5015C86.6291 16.4853 86.684 16.4129 86.684 16.2857V15.1785H80.7145V16.2857ZM86.6822 3.13476C86.6822 2.28181 87.2829 1.8103 88.1387 1.8103C88.9946 1.8103 89.5952 2.28181 89.5952 3.13476V9.02947C89.5952 9.88242 88.9946 10.3539 88.1387 10.3539C87.2829 10.3539 86.6822 9.88242 86.6822 9.02947V3.13476Z" fill="#FF6161"/>
</g>
<defs>
<clipPath id="clip0_2946_18025">
<rect width="20" height="20" fill="white" transform="translate(0.407227)"/>
</clipPath>
<clipPath id="clip1_2946_18025">
<rect width="64.4795" height="17.6471" fill="white" transform="translate(25.1133 1.17651)"/>
</clipPath>
</defs>
</svg>
