<svg width="153" height="34" viewBox="0 0 153 34" fill="none" xmlns="http://www.w3.org/2000/svg">
<g clip-path="url(#clip0_2991_17807)">
<g clip-path="url(#clip1_2991_17807)">
<path d="M16.9016 0.00561129C16.8878 0.00561129 16.8759 0.00462292 16.8611 0.00561129C16.7573 0.00561129 16.654 0.00412873 16.5502 0.00314036C16.319 0.000175245 16.1005 -0.00278987 15.8841 0.00907059C15.5811 0.0253787 15.2812 0.0624427 14.9634 0.101978L14.8838 0.111861C11.3415 0.548228 8.283 1.98631 5.79329 4.38558C1.67475 8.35439 0.0380036 13.2295 0.927538 18.8756C1.5255 22.671 3.38809 25.9059 6.46292 28.49C9.898 31.3765 13.9582 32.6234 18.5344 32.1944C20.7281 31.9888 22.858 31.2975 24.8654 30.1396C25.3166 29.8792 25.7475 29.7487 26.1617 29.7487C26.7527 29.7487 27.3102 30.0146 27.8449 30.5478C28.1389 30.8408 28.4315 31.1359 28.724 31.4309C29.3511 32.0635 29.999 32.7173 30.6518 33.3399C31.2256 33.8875 32.0064 34.1094 32.7927 33.9493C33.5715 33.7906 34.1952 33.29 34.5025 32.5759C34.8994 31.6548 34.6597 30.5196 33.9065 29.7507C33.3106 29.1423 32.7062 28.5414 32.1023 27.941L31.3318 27.1735C30.3588 26.2014 30.2338 25.2694 30.9133 24.0576C32.9202 20.4797 33.5013 16.6468 32.6409 12.6657C31.0546 5.32404 24.4384 0.00561129 16.9016 0.00561129Z" fill="#FF6161"/>
<path d="M25.8189 11.507H16.2504C16.1897 11.507 16.1313 11.4828 16.0908 11.4403L12.9226 7.35284C12.8 7.22436 12.8979 7.02075 13.0822 7.02075H22.6506C22.7114 7.02075 22.7697 7.04497 22.8103 7.08747L25.9785 11.1749C26.1011 11.3034 26.0032 11.507 25.8189 11.507Z" fill="white"/>
<path d="M25.6339 12.4733H15.6503L11.5382 7.24826C11.4582 7.17018 11.3331 7.17018 11.2526 7.24826L7.14243 12.4743L7.14095 12.4763C7.04656 12.6077 6.99714 12.7619 6.9922 12.9171H6.99121V21.9444C6.99121 22.1648 7.16961 22.3432 7.39002 22.3432H25.6339C25.8543 22.3432 26.0327 22.1648 26.0327 21.9444V12.8726C26.0327 12.6522 25.8543 12.4738 25.6339 12.4738V12.4733Z" fill="white"/>
<path d="M11.8202 19.2379C10.8294 19.2379 9.8425 18.8425 8.88575 18.0513C8.58331 17.8013 8.54081 17.3535 8.79087 17.0511C9.04093 16.7487 9.48866 16.7067 9.7911 16.9562C11.1714 18.0978 12.4686 18.0968 13.8726 16.9528C14.1765 16.7052 14.6242 16.7506 14.8718 17.0551C15.1194 17.359 15.074 17.8067 14.7695 18.0543C13.8014 18.843 12.8086 19.2374 11.8197 19.2374L11.8202 19.2379Z" fill="#FF6161"/>
<path d="M10.3098 15.3787C9.91737 15.3787 9.59961 15.0605 9.59961 14.6686V13.9184C9.59961 13.526 9.91786 13.2083 10.3098 13.2083C10.7016 13.2083 11.0199 13.5265 11.0199 13.9184V14.6686C11.0199 15.061 10.7016 15.3787 10.3098 15.3787Z" fill="#FF6161"/>
<path d="M13.3659 15.3787C12.9735 15.3787 12.6558 15.0605 12.6558 14.6686V13.9184C12.6558 13.526 12.974 13.2083 13.3659 13.2083C13.7578 13.2083 14.0761 13.5265 14.0761 13.9184V14.6686C14.0761 15.061 13.7578 15.3787 13.3659 15.3787Z" fill="#FF6161"/>
</g>
<g clip-path="url(#clip2_2991_17807)">
<path d="M49.0969 13.6241C47.0847 13.6241 46.4039 13.0086 46.4039 11.0032V6.07079C46.4039 4.06538 47.0847 3.44995 49.0969 3.44995H64.4111C65.7093 3.44995 66.6401 4.06538 66.6401 5.36229C66.6401 6.6592 65.7123 7.27463 64.4111 7.27463H51.4494C51.1392 7.27463 51.0789 7.33767 51.0789 7.61387V9.46316C51.0789 9.73935 51.1422 9.8024 51.4494 9.8024H64.7213C66.0196 9.8024 66.9474 10.4178 66.9474 11.7147C66.9474 13.0116 66.0196 13.6271 64.7213 13.6271H58.9047V15.9717H68.092C69.4837 15.9717 70.3512 16.434 70.3512 17.821C70.3512 19.208 69.4837 19.6403 68.092 19.6403H44.952C43.5604 19.6403 42.6929 19.208 42.6929 17.821C42.6929 16.434 43.5604 15.9717 44.952 15.9717H54.1394V13.6271H49.0969V13.6241ZM45.9401 26.4521C45.9401 22.5673 50.0548 20.9012 56.519 20.9012C62.9833 20.9012 67.101 22.5673 67.101 26.4521C67.101 30.3368 62.9863 32.0029 56.519 32.0029C50.0518 32.0029 45.9401 30.3368 45.9401 26.4521ZM50.8289 26.4521C50.8289 27.7159 52.8079 28.3644 56.522 28.3644C60.2361 28.3644 62.2151 27.7159 62.2151 26.4521C62.2151 25.1882 60.2361 24.5397 56.522 24.5397C52.8079 24.5397 50.8289 25.1882 50.8289 26.4521Z" fill="#FF6161"/>
<path d="M77.5297 23.7376H75.2404C73.1378 23.7376 72.1167 22.6899 72.1167 20.6545V6.80876C72.1167 5.45181 72.8577 4.4341 74.4361 4.4341C76.0145 4.4341 76.7555 5.45181 76.7555 6.80876V19.0183C76.7555 19.4506 76.8489 19.5437 77.2827 19.5437H78.0869C79.4485 19.5437 81.057 19.3906 82.1715 19.2044C83.3463 19.0183 84.3674 19.4806 84.5843 20.8076C84.8313 22.1645 83.9668 22.9661 82.789 23.2423C81.304 23.5815 79.4153 23.7346 77.5297 23.7346V23.7376ZM90.7413 28.7031C90.7413 30.0901 89.9371 30.7986 88.5454 30.7986C87.1538 30.7986 86.3495 30.0901 86.3495 28.7031V14.6112H82.6354C81.2438 14.6112 80.4395 14.0859 80.4395 12.6989C80.4395 11.3119 81.2438 10.7865 82.6354 10.7865H86.3495V5.48483C86.3495 4.09786 87.1538 3.38937 88.5454 3.38937C89.9371 3.38937 90.7413 4.09786 90.7413 5.48483V28.7001V28.7031ZM97.0821 29.5677C97.0821 30.9547 96.2477 31.6962 94.856 31.6962C93.4644 31.6962 92.63 30.9577 92.63 29.5677V5.20564C92.63 3.81867 93.4644 3.07715 94.856 3.07715C96.2477 3.07715 97.0821 3.81867 97.0821 5.20564V29.5647V29.5677Z" fill="#FF6161"/>
<path d="M101.137 9.09145C99.7455 9.09145 98.8779 8.59911 98.8779 7.20913C98.8779 5.81916 99.7455 5.32982 101.137 5.32982H105.622V4.12898C105.622 2.74201 106.55 2.00049 107.942 2.00049C109.333 2.00049 110.261 2.74201 110.261 4.12898V5.33282H114.439C115.831 5.33282 116.698 5.82517 116.698 7.21214C116.698 8.59911 115.831 9.09445 114.439 9.09445H101.137V9.09145ZM107.945 9.95606C112.246 9.95606 115.493 11.7123 115.493 15.4139C115.493 19.1155 112.246 20.8717 107.945 20.8717C103.643 20.8717 100.396 19.1155 100.396 15.4139C100.396 11.7123 103.643 9.95606 107.945 9.95606ZM108.472 26.7588C108.472 27.1911 108.565 27.2842 108.999 27.2842H121.87C123.169 27.2842 123.973 28.0227 123.973 29.3196C123.973 30.6165 123.169 31.355 121.87 31.355H106.246C104.234 31.355 103.463 30.6165 103.463 28.6411V24.5403C103.463 23.0602 104.484 22.1956 105.969 22.1956C107.454 22.1956 108.475 23.0602 108.475 24.5403V26.7588H108.472ZM107.945 13.5015C106.553 13.5015 105.128 14.0869 105.128 15.4139C105.128 16.7408 106.55 17.3262 107.945 17.3262C109.339 17.3262 110.761 16.7408 110.761 15.4139C110.761 14.0869 109.339 13.5015 107.945 13.5015ZM118.247 5.2998C118.247 3.84978 119.268 3.07824 120.723 3.07824C122.178 3.07824 123.199 3.84978 123.199 5.2998V11.0969H125.334C126.633 11.0969 127.56 11.7453 127.56 13.1323C127.56 14.5193 126.633 15.1677 125.334 15.1677H123.199V21.5202C123.199 22.9702 122.178 23.7717 120.723 23.7717C119.268 23.7717 118.247 22.9702 118.247 21.5202V5.2998Z" fill="#FF6161"/>
<path d="M135.884 3.44965C140.339 3.44965 143.803 5.82432 143.803 10.2644C143.803 14.7045 140.339 17.0792 135.884 17.0792C131.428 17.0792 127.964 14.7045 127.964 10.2644C127.964 5.82432 131.428 3.44965 135.884 3.44965ZM132.263 21.2401C132.263 19.7601 133.284 19.0186 134.739 19.0186C136.194 19.0186 137.215 19.7901 137.215 21.2401V22.3809H147.363V21.2401C147.363 19.7901 148.384 19.0186 149.839 19.0186C151.294 19.0186 152.315 19.7901 152.315 21.2401V28.7634C152.315 30.7358 151.511 31.5073 149.532 31.5073H135.052C133.04 31.5073 132.269 30.7358 132.269 28.7634V21.2401H132.263ZM135.884 13.3776C137.769 13.3776 139.04 12.1437 139.04 10.2644C139.04 8.38511 137.772 7.15124 135.884 7.15124C133.995 7.15124 132.727 8.38511 132.727 10.2644C132.727 12.1437 133.995 13.3776 135.884 13.3776ZM137.215 27.6856C137.215 27.9018 137.338 28.0249 137.555 28.0249H147.053C147.27 28.0249 147.363 27.9018 147.363 27.6856V25.8033H137.215V27.6856ZM147.36 5.32897C147.36 3.87895 148.381 3.07739 149.836 3.07739C151.291 3.07739 152.312 3.87895 152.312 5.32897V15.35C152.312 16.8 151.291 17.6016 149.836 17.6016C148.381 17.6016 147.36 16.8 147.36 15.35V5.32897Z" fill="#FF6161"/>
</g>
</g>
<defs>
<clipPath id="clip0_2991_17807">
<rect width="152" height="34" fill="white" transform="translate(0.692383)"/>
</clipPath>
<clipPath id="clip1_2991_17807">
<rect width="34" height="34" fill="white" transform="translate(0.692383)"/>
</clipPath>
<clipPath id="clip2_2991_17807">
<rect width="109.615" height="30" fill="white" transform="translate(42.6924 2)"/>
</clipPath>
</defs>
</svg>
