<svg width="22" height="20" viewBox="0 0 22 20" fill="none" xmlns="http://www.w3.org/2000/svg">
<path d="M16.625 4.99948V5.00948M16.625 11.9995L13.125 6.99948C12.7881 6.39051 12.6159 5.70417 12.6254 5.00828C12.6349 4.31238 12.8258 3.63101 13.1793 3.03148C13.5327 2.43196 14.0365 1.93503 14.6408 1.5898C15.2451 1.24457 15.929 1.06299 16.625 1.06299C17.321 1.06299 18.0049 1.24457 18.6092 1.5898C19.2135 1.93503 19.7173 2.43196 20.0707 3.03148C20.4242 3.63101 20.6151 4.31238 20.6246 5.00828C20.6341 5.70417 20.4619 6.39051 20.125 6.99948L16.625 11.9995Z" stroke="#FF6161" stroke-width="1.28571" stroke-linecap="round" stroke-linejoin="round"/>
<path d="M9.125 3.74927L7.625 2.99927L1.625 5.99927V18.9993L7.625 15.9993L13.625 18.9993L19.625 15.9993V13.9993M7.625 2.99927V15.9993M13.625 13.9993V18.9993" stroke="#FF6161" stroke-width="1.28571" stroke-linecap="round" stroke-linejoin="round"/>
</svg>
