<svg width="19" height="22" viewBox="0 0 19 22" fill="none" xmlns="http://www.w3.org/2000/svg">
<path d="M18.3428 17.1449C18.0101 17.9135 17.6163 18.6211 17.16 19.2715C16.5381 20.1583 16.0288 20.7721 15.6364 21.113C15.028 21.6724 14.3762 21.959 13.6782 21.9753C13.1771 21.9753 12.5728 21.8327 11.8693 21.5434C11.1636 21.2555 10.515 21.113 9.92198 21.113C9.30003 21.113 8.63299 21.2555 7.9195 21.5434C7.20493 21.8327 6.62928 21.9834 6.18916 21.9984C5.51981 22.0269 4.85264 21.7322 4.18668 21.113C3.76164 20.7422 3.22999 20.1067 2.59309 19.2063C1.90976 18.2449 1.34796 17.13 0.907839 15.8589C0.436484 14.486 0.200195 13.1565 0.200195 11.8694C0.200195 10.3951 0.518778 9.12345 1.15689 8.05784C1.6584 7.20191 2.32557 6.52672 3.16059 6.03105C3.99562 5.53539 4.89786 5.2828 5.86949 5.26664C6.40114 5.26664 7.09833 5.43109 7.96472 5.75429C8.82867 6.07858 9.38341 6.24303 9.62662 6.24303C9.80845 6.24303 10.4247 6.05074 11.4694 5.66738C12.4573 5.31186 13.2911 5.16466 13.9742 5.22264C15.8251 5.37202 17.2157 6.10167 18.1405 7.41619C16.4851 8.4192 15.6662 9.82403 15.6825 11.6262C15.6975 13.03 16.2067 14.1981 17.2075 15.1256C17.6611 15.5561 18.1676 15.8888 18.7312 16.1251C18.609 16.4795 18.48 16.819 18.3428 17.1449V17.1449ZM14.0978 0.440369C14.0978 1.54062 13.6958 2.56792 12.8946 3.51878C11.9277 4.64917 10.7582 5.30236 9.49001 5.19929C9.47385 5.06729 9.46448 4.92837 9.46448 4.78239C9.46448 3.72615 9.92429 2.59576 10.7408 1.67152C11.1485 1.20356 11.667 0.814453 12.2957 0.504058C12.9231 0.198295 13.5166 0.0292007 14.0747 0.000244141C14.091 0.147331 14.0978 0.294426 14.0978 0.440355V0.440369Z" fill="white"/>
</svg>
