<svg width="18" height="18" viewBox="0 0 18 18" fill="none" xmlns="http://www.w3.org/2000/svg">
<g clip-path="url(#clip0_2360_17156)">
<path d="M10.875 9.4425L11.3475 11.49C11.4225 11.8125 11.07 12.0675 10.785 11.895L9 10.815L7.2075 11.895C7.14432 11.9333 7.07125 11.9522 6.9974 11.9493C6.92355 11.9464 6.8522 11.9218 6.79222 11.8786C6.73225 11.8355 6.68631 11.7756 6.66013 11.7065C6.63395 11.6374 6.62869 11.5621 6.645 11.49L7.125 9.45L5.55 8.0925C5.49341 8.04466 5.45227 7.98113 5.43175 7.90992C5.41124 7.83872 5.41229 7.76303 5.43475 7.69242C5.45722 7.62181 5.50011 7.55944 5.55799 7.51318C5.61588 7.46692 5.68617 7.43884 5.76 7.4325L7.845 7.2525L8.655 5.3325C8.7825 5.025 9.2175 5.025 9.345 5.3325L10.155 7.245L12.24 7.425C12.3138 7.43134 12.3841 7.45942 12.442 7.50568C12.4999 7.55194 12.5428 7.61431 12.5652 7.68492C12.5877 7.75553 12.5888 7.83122 12.5682 7.90242C12.5477 7.97363 12.5066 8.03716 12.45 8.085L10.875 9.4425ZM3.1425 3.3525C2.6025 3.5925 2.25 4.1325 2.25 4.725V8.25C2.25 12.4125 5.13 16.305 9 17.25C12.87 16.305 15.75 12.4125 15.75 8.25V4.725C15.75 4.1325 15.3975 3.5925 14.8575 3.3525L9.6075 1.02C9.2175 0.8475 8.775 0.8475 8.3925 1.02L3.1425 3.3525Z" fill="#263C96"/>
</g>
<defs>
<clipPath id="clip0_2360_17156">
<rect width="18" height="18" fill="white"/>
</clipPath>
</defs>
</svg>
