<svg width="24" height="30" viewBox="0 0 24 30" fill="none" xmlns="http://www.w3.org/2000/svg">
<path d="M21.8101 27.6999C21.5901 27.4799 21.3301 27.3799 21.0101 27.3799H13.5101C13.3001 27.3799 13.1301 27.2099 13.1301 26.9999V20.9999C13.1301 20.7899 13.3001 20.6199 13.5101 20.6199H16.5101C18.4701 20.6199 20.1701 19.9199 21.5501 18.5399C22.9301 17.1599 23.6301 15.4599 23.6301 13.4999C23.6301 12.0799 23.2301 10.7599 22.4501 9.55988C21.6701 8.36988 20.6101 7.48988 19.2801 6.94988C19.1501 6.89988 19.0701 6.77988 19.0501 6.64988C18.8401 4.87988 18.0501 3.36988 16.7201 2.17988C15.3901 0.989883 13.8001 0.379883 12.0001 0.379883C10.2001 0.379883 8.62012 0.979883 7.28012 2.17988C5.94012 3.36988 5.16012 4.87988 4.95012 6.64988C4.93012 6.78988 4.85012 6.89988 4.72012 6.94988C3.40012 7.48988 2.33012 8.36988 1.55012 9.55988C0.770117 10.7599 0.370117 12.0799 0.370117 13.4999C0.370117 15.4599 1.07012 17.1599 2.45012 18.5399C3.83012 19.9199 5.53012 20.6199 7.49012 20.6199H10.4901C10.7001 20.6199 10.8701 20.7899 10.8701 20.9999V26.9999C10.8701 27.2099 10.7001 27.3799 10.4901 27.3799H3.00012C2.68012 27.3799 2.41012 27.4899 2.20012 27.6999C1.98012 27.9199 1.88012 28.1799 1.88012 28.4999C1.88012 28.8199 1.98012 29.0899 2.20012 29.2999C2.42012 29.5199 2.68012 29.6199 3.00012 29.6199H21.0001C21.3201 29.6199 21.5901 29.5099 21.8001 29.2999C22.0101 29.0899 22.1201 28.8199 22.1201 28.4999C22.1201 28.1799 22.0101 27.9099 21.8001 27.6999H21.8101ZM7.50012 18.3799C6.15012 18.3799 4.99012 17.8999 4.05012 16.9599C3.11012 16.0199 2.63012 14.8499 2.63012 13.5099C2.63012 12.5399 2.91012 11.6299 3.46012 10.8199C4.01012 10.0099 4.74012 9.40988 5.63012 9.03988L7.01012 8.44988L7.21012 6.93988C7.37012 5.72988 7.91012 4.69988 8.81012 3.87988C9.71012 3.05988 10.7901 2.63988 12.0101 2.63988C13.2301 2.63988 14.3001 3.05988 15.2101 3.87988C16.1101 4.69988 16.6501 5.72988 16.8101 6.93988L17.0101 8.44988L18.3901 9.03988C19.2801 9.41988 20.0101 10.0199 20.5601 10.8199C21.1101 11.6299 21.3901 12.5299 21.3901 13.5099C21.3901 14.8599 20.9101 16.0199 19.9701 16.9599C19.0301 17.8999 17.8601 18.3799 16.5201 18.3799H7.50012Z" fill="#DEDEDE"/>
</svg>
