<svg width="36" height="36" viewBox="0 0 36 36" fill="none" xmlns="http://www.w3.org/2000/svg">
<path d="M16.5 30.15H16.65V30V24V23.85H16.5H13.5C11.4647 23.85 9.73437 23.1342 8.3006 21.6995L8.30053 21.6994C6.86578 20.2656 6.15 18.5353 6.15 16.5C6.15 15.0293 6.55391 13.6763 7.36305 12.4376C8.17139 11.2011 9.25993 10.3023 10.632 9.73875L10.7134 9.7053L10.7239 9.61787C10.9446 7.77925 11.7461 6.24361 13.132 5.00484C14.5164 3.7675 16.1367 3.15 18 3.15C19.8633 3.15 21.4836 3.7675 22.868 5.00484C24.2539 6.24361 25.0554 7.77925 25.2761 9.61787L25.2866 9.7053L25.368 9.73875C26.7401 10.3023 27.8286 11.2011 28.6369 12.4376C29.4461 13.6763 29.85 15.0293 29.85 16.5C29.85 18.5354 29.1347 20.2657 27.7009 21.6994C26.2662 23.1342 24.5353 23.85 22.5 23.85H19.5H19.35V24V30V30.15H19.5H27C27.3871 30.15 27.7043 30.2795 27.9618 30.5379L27.9621 30.5382C28.2205 30.7957 28.35 31.1129 28.35 31.5C28.35 31.8871 28.2205 32.2043 27.9621 32.4618L27.9618 32.4621C27.7043 32.7205 27.3871 32.85 27 32.85H9C8.61285 32.85 8.2951 32.7205 8.03657 32.4619C7.77914 32.2045 7.65 31.8873 7.65 31.5C7.65 31.1127 7.77914 30.7955 8.03657 30.5381C8.2951 30.2795 8.61285 30.15 9 30.15H16.5ZM26.3559 13.9404L26.3558 13.9403C25.8269 13.1671 25.1355 12.5984 24.2838 12.237C24.2838 12.237 24.2837 12.2369 24.2836 12.2369L22.7877 11.5958L22.5737 9.9556L22.5737 9.95518C22.419 8.79525 21.9087 7.81899 21.0456 7.03215L21.0454 7.03202C20.18 6.2451 19.1626 5.85 18 5.85C16.8374 5.85 15.8205 6.24511 14.956 7.03208L14.956 7.03209C14.0918 7.81892 13.581 8.7952 13.4263 9.95518L13.4263 9.9556L13.2123 11.5958L11.7164 12.2369C11.7163 12.2369 11.7163 12.237 11.7162 12.237C10.8645 12.5984 10.1735 13.1671 9.64561 13.9404C9.11578 14.7151 8.85 15.5695 8.85 16.5C8.85 17.7893 9.30298 18.8901 10.2064 19.7936C11.1099 20.697 12.2107 21.15 13.5 21.15H22.5C23.7893 21.15 24.8901 20.697 25.7936 19.7936C26.697 18.8901 27.15 17.7893 27.15 16.5C27.15 15.5695 26.8847 14.7151 26.3559 13.9404Z" fill="#DEDEDE" stroke="white" stroke-width="0.3"/>
</svg>
