<svg width="37" height="36" viewBox="0 0 37 36" fill="none" xmlns="http://www.w3.org/2000/svg">
<path d="M17 30.15H17.15V30V24V23.85H17H14C11.9647 23.85 10.2344 23.1342 8.8006 21.6995L8.80053 21.6994C7.36578 20.2656 6.65 18.5353 6.65 16.5C6.65 15.0293 7.05391 13.6763 7.86305 12.4376C8.67139 11.2011 9.75993 10.3023 11.132 9.73875L11.2134 9.7053L11.2239 9.61787C11.4446 7.77925 12.2461 6.24361 13.632 5.00484C15.0164 3.7675 16.6367 3.15 18.5 3.15C20.3633 3.15 21.9836 3.7675 23.368 5.00484C24.7539 6.24361 25.5554 7.77925 25.7761 9.61787L25.7866 9.7053L25.868 9.73875C27.2401 10.3023 28.3286 11.2011 29.1369 12.4376C29.9461 13.6763 30.35 15.0293 30.35 16.5C30.35 18.5354 29.6347 20.2657 28.2009 21.6994C26.7662 23.1342 25.0353 23.85 23 23.85H20H19.85V24V30V30.15H20H27.5C27.8871 30.15 28.2043 30.2795 28.4618 30.5379L28.4621 30.5382C28.7205 30.7957 28.85 31.1129 28.85 31.5C28.85 31.8871 28.7205 32.2043 28.4621 32.4618L28.4618 32.4621C28.2043 32.7205 27.8871 32.85 27.5 32.85H9.5C9.11285 32.85 8.7951 32.7205 8.53657 32.4619C8.27914 32.2045 8.15 31.8873 8.15 31.5C8.15 31.1127 8.27914 30.7955 8.53657 30.5381C8.7951 30.2795 9.11285 30.15 9.5 30.15H17ZM26.8559 13.9404L26.8558 13.9403C26.3269 13.1671 25.6355 12.5984 24.7838 12.237C24.7838 12.237 24.7837 12.2369 24.7836 12.2369L23.2877 11.5958L23.0737 9.9556L23.0737 9.95518C22.919 8.79525 22.4087 7.81899 21.5456 7.03215L21.5454 7.03202C20.68 6.2451 19.6626 5.85 18.5 5.85C17.3374 5.85 16.3205 6.24511 15.456 7.03208L15.456 7.03209C14.5918 7.81892 14.081 8.7952 13.9263 9.95518L13.9263 9.9556L13.7123 11.5958L12.2164 12.2369C12.2163 12.2369 12.2163 12.237 12.2162 12.237C11.3645 12.5984 10.6735 13.1671 10.1456 13.9404C9.61578 14.7151 9.35 15.5695 9.35 16.5C9.35 17.7893 9.80298 18.8901 10.7064 19.7936C11.6099 20.697 12.7107 21.15 14 21.15H23C24.2893 21.15 25.3901 20.697 26.2936 19.7936C27.197 18.8901 27.65 17.7893 27.65 16.5C27.65 15.5695 27.3847 14.7151 26.8559 13.9404Z" fill="#DEDEDE" stroke="white" stroke-width="0.3"/>
</svg>
