<svg width="18" height="22" viewBox="0 0 18 22" fill="none" xmlns="http://www.w3.org/2000/svg">
<path d="M8.99996 0.928467C11.2164 0.928467 13.3421 1.80895 14.9094 3.37622C16.4766 4.94349 17.3571 7.06916 17.3571 9.28561C17.3571 12.817 14.8757 16.6656 9.97711 20.8725C9.70473 21.1065 9.35744 21.235 8.99836 21.2347C8.63928 21.2343 8.29222 21.1052 8.02025 20.8708L7.69625 20.5896C3.01454 16.4925 0.642822 12.7382 0.642822 9.28561C0.642822 7.06916 1.5233 4.94349 3.09057 3.37622C4.65784 1.80895 6.78351 0.928467 8.99996 0.928467ZM8.99996 6.07132C8.14748 6.07132 7.32992 6.40997 6.72712 7.01277C6.12433 7.61556 5.78568 8.43313 5.78568 9.28561C5.78568 10.1381 6.12433 10.9557 6.72712 11.5585C7.32992 12.1612 8.14748 12.4999 8.99996 12.4999C9.85245 12.4999 10.67 12.1612 11.2728 11.5585C11.8756 10.9557 12.2143 10.1381 12.2143 9.28561C12.2143 8.43313 11.8756 7.61556 11.2728 7.01277C10.67 6.40997 9.85245 6.07132 8.99996 6.07132Z" fill="#BEBEBE"/>
</svg>
