<svg width="28" height="32" viewBox="0 0 28 32" fill="none" xmlns="http://www.w3.org/2000/svg">
<g filter="url(#filter0_d_3698_21504)">
<mask id="path-1-outside-1_3698_21504" maskUnits="userSpaceOnUse" x="3" y="3" width="20" height="24" fill="black">
<rect fill="white" x="3" y="3" width="20" height="24"/>
<path fill-rule="evenodd" clip-rule="evenodd" d="M18.6569 7.41084C17.1566 5.86721 15.1217 5 13 5C10.8783 5 8.84344 5.86721 7.34315 7.41084C5.84286 8.95448 5 11.0481 5 13.2311C5 16.6316 7.27036 20.3293 11.752 24.3647L12.0622 24.6416C12.3225 24.8725 12.6547 24.9997 12.9985 25C13.3422 25.0003 13.6746 24.8737 13.9354 24.6433C18.6246 20.4999 21 16.7093 21 13.2311C21 11.0481 20.1571 8.95448 18.6569 7.41084Z"/>
</mask>
<path fill-rule="evenodd" clip-rule="evenodd" d="M18.6569 7.41084C17.1566 5.86721 15.1217 5 13 5C10.8783 5 8.84344 5.86721 7.34315 7.41084C5.84286 8.95448 5 11.0481 5 13.2311C5 16.6316 7.27036 20.3293 11.752 24.3647L12.0622 24.6416C12.3225 24.8725 12.6547 24.9997 12.9985 25C13.3422 25.0003 13.6746 24.8737 13.9354 24.6433C18.6246 20.4999 21 16.7093 21 13.2311C21 11.0481 20.1571 8.95448 18.6569 7.41084Z" fill="#2461FF"/>
<path d="M18.6569 7.41084L17.2226 8.80478L18.6569 7.41084ZM7.34315 7.41084L8.77735 8.80478V8.80478L7.34315 7.41084ZM11.752 24.3647L10.4137 25.851L10.42 25.8566L11.752 24.3647ZM12.0622 24.6416L10.7302 26.1335L10.735 26.1378L12.0622 24.6416ZM12.9985 25L12.9967 27H12.9967L12.9985 25ZM13.9354 24.6433L12.6111 23.1445L12.6109 23.1447L13.9354 24.6433ZM13 7C14.5726 7 16.0928 7.64224 17.2226 8.80478L20.0911 6.01691C18.2204 4.09217 15.6708 3 13 3V7ZM8.77735 8.80478C9.90725 7.64224 11.4274 7 13 7V3C10.3292 3 7.77963 4.09217 5.90894 6.01691L8.77735 8.80478ZM7 13.2311C7 11.5604 7.64558 9.96925 8.77735 8.80478L5.90894 6.01691C4.04013 7.93971 3 10.5358 3 13.2311H7ZM13.0903 22.8784C8.71406 18.938 7 15.7466 7 13.2311H3C3 17.5167 5.82666 21.7207 10.4137 25.851L13.0903 22.8784ZM13.3941 23.1497L13.084 22.8728L10.42 25.8566L10.7302 26.1335L13.3941 23.1497ZM13.0003 23C13.1517 23.0001 13.2892 23.0566 13.3893 23.1454L10.735 26.1378C11.3558 26.6884 12.1578 26.9992 12.9967 27L13.0003 23ZM12.6109 23.1447C12.7112 23.0561 12.8489 22.9999 13.0003 23L12.9967 27C13.8355 27.0008 14.6381 26.6914 15.2599 26.1418L12.6109 23.1447ZM19 13.2311C19 15.8072 17.2018 19.0881 12.6111 23.1445L15.2597 26.142C20.0474 21.9116 23 17.6115 23 13.2311H19ZM17.2226 8.80478C18.3544 9.96925 19 11.5604 19 13.2311H23C23 10.5358 21.9599 7.93971 20.0911 6.01691L17.2226 8.80478Z" fill="white" mask="url(#path-1-outside-1_3698_21504)"/>
</g>
<circle cx="13" cy="13" r="2" fill="white"/>
<defs>
<filter id="filter0_d_3698_21504" x="0" y="0" width="28" height="32" filterUnits="userSpaceOnUse" color-interpolation-filters="sRGB">
<feFlood flood-opacity="0" result="BackgroundImageFix"/>
<feColorMatrix in="SourceAlpha" type="matrix" values="0 0 0 0 0 0 0 0 0 0 0 0 0 0 0 0 0 0 127 0" result="hardAlpha"/>
<feOffset dx="1" dy="1"/>
<feGaussianBlur stdDeviation="2"/>
<feComposite in2="hardAlpha" operator="out"/>
<feColorMatrix type="matrix" values="0 0 0 0 0 0 0 0 0 0 0 0 0 0 0 0 0 0 0.3 0"/>
<feBlend mode="normal" in2="BackgroundImageFix" result="effect1_dropShadow_3698_21504"/>
<feBlend mode="normal" in="SourceGraphic" in2="effect1_dropShadow_3698_21504" result="shape"/>
</filter>
</defs>
</svg>
