<svg width="25" height="24" viewBox="0 0 25 24" fill="none" xmlns="http://www.w3.org/2000/svg">
<rect x="4.64844" y="10.999" width="16" height="8" rx="4" fill="#E7EBEF"/>
<path fill-rule="evenodd" clip-rule="evenodd" d="M6.77926 16.2325C6.97452 16.0372 7.2911 16.0372 7.48637 16.2325L8.19347 16.9396C8.38873 17.1348 8.38873 17.4514 8.19347 17.6467C7.99821 17.8419 7.68163 17.8419 7.48637 17.6467L6.77926 16.9396C6.584 16.7443 6.584 16.4277 6.77926 16.2325Z" fill="#DBE1E7"/>
<path fill-rule="evenodd" clip-rule="evenodd" d="M15.5039 15.6464C15.3087 15.8417 14.9921 15.8417 14.7968 15.6464L14.0897 14.9393C13.8945 14.7441 13.8945 14.4275 14.0897 14.2322C14.285 14.037 14.6016 14.037 14.7968 14.2322L15.5039 14.9393C15.6992 15.1346 15.6992 15.4512 15.5039 15.6464Z" fill="#DBE1E7"/>
<path fill-rule="evenodd" clip-rule="evenodd" d="M9.75297 15.6465C9.55771 15.4513 9.55771 15.1347 9.75297 14.9394L10.4601 14.2323C10.6553 14.037 10.9719 14.037 11.1672 14.2323C11.3624 14.4276 11.3624 14.7442 11.1672 14.9394L10.4601 15.6465C10.2648 15.8418 9.94823 15.8418 9.75297 15.6465Z" fill="#DBE1E7"/>
<path fill-rule="evenodd" clip-rule="evenodd" d="M18.5175 16.2324C18.7128 16.4276 18.7128 16.7442 18.5175 16.9395L17.8104 17.6466C17.6152 17.8419 17.2986 17.8419 17.1033 17.6466C16.9081 17.4513 16.9081 17.1348 17.1033 16.9395L17.8104 16.2324C18.0057 16.0371 18.3223 16.0371 18.5175 16.2324Z" fill="#DBE1E7"/>
<path fill-rule="evenodd" clip-rule="evenodd" d="M12.708 12.1253C11.7412 12.1103 10.5416 12.4017 9.00979 13.4134C7.50277 14.4087 5.39186 14.107 4.29496 12.7396C3.19805 11.3721 3.53051 9.45679 5.03754 8.46149C7.46337 6.85937 10.0656 5.95888 12.8228 6.00144C15.5597 6.0437 18.038 7.00896 20.2466 8.45283C21.7589 9.44153 22.1015 11.3554 21.0119 12.7276C19.9222 14.0998 17.813 14.4107 16.3007 13.422C14.863 12.4821 13.6951 12.1405 12.708 12.1253Z" fill="#FFA47E"/>
<path fill-rule="evenodd" clip-rule="evenodd" d="M14.7782 6.20922C14.2659 6.11778 13.7435 6.05772 13.2111 6.03241V12.1793C13.7005 12.2401 14.2324 12.3816 14.8158 12.6314C15.3858 10.2124 15.3775 8.52856 14.7782 6.20922ZM15.8398 13.1542C15.9903 13.2429 16.1439 13.3383 16.3007 13.4408C16.7852 13.7575 17.3311 13.9409 17.885 13.9987C18.4222 11.5363 18.4722 9.92273 17.8755 7.17102C17.2668 6.9007 16.6409 6.67123 15.998 6.48993C16.5329 8.81038 16.4726 10.6113 15.8398 13.1542ZM19.1459 7.806C19.5741 10.1326 19.5028 11.7413 19.0431 13.9379C19.8089 13.7755 20.516 13.3708 21.0119 12.7464C22.1015 11.3742 21.7589 9.46027 20.2466 8.47157C19.8868 8.23637 19.5199 8.01388 19.1459 7.806ZM5.03754 8.48023C5.40512 8.23747 5.77674 8.01081 6.15235 7.80111C5.72318 10.1303 5.79426 11.7398 6.25427 13.9379C5.49361 13.7767 4.79072 13.3763 4.29496 12.7583C3.19805 11.3909 3.53051 9.47553 5.03754 8.48023ZM7.4123 13.9987C6.87468 11.5342 6.82501 9.92002 7.42336 7.16408C8.03922 6.89031 8.66508 6.66246 9.30063 6.48398C8.76449 8.80644 8.82412 10.6078 9.45676 13.1514C9.31099 13.2381 9.16203 13.3316 9.00979 13.4321C8.52224 13.7541 7.97148 13.9404 7.4123 13.9987ZM10.5201 6.20508C9.92033 8.52467 9.91122 10.2082 10.4801 12.6255C11.073 12.371 11.6053 12.2341 12.0862 12.1766V6.03125C11.5582 6.0553 11.0362 6.11383 10.5201 6.20508Z" fill="#FF8958"/>
</svg>
