<svg width="68" height="68" viewBox="0 0 68 68" fill="none" xmlns="http://www.w3.org/2000/svg">
<g clip-path="url(#clip0_2946_17849)">
<path d="M32.4185 0.0107343C32.3908 0.0107343 32.3671 0.00875756 32.3374 0.0107343C32.1298 0.0107343 31.9233 0.00776919 31.7157 0.00579244C31.2532 -0.00013779 30.8163 -0.00606802 30.3834 0.0176529C29.7775 0.0502692 29.1776 0.124397 28.5421 0.203467L28.3829 0.223234C21.2983 1.09597 15.1812 3.97213 10.2018 8.77068C1.96473 16.7083 -1.30876 26.4586 0.470311 37.7507C1.66624 45.3414 5.39142 51.8113 11.5411 56.9795C18.4112 62.7526 26.5317 65.2463 35.684 64.3884C40.0714 63.9772 44.3313 62.5945 48.3461 60.2787C49.2485 59.7578 50.1103 59.4969 50.9386 59.4969C52.1207 59.4969 53.2355 60.0286 54.305 61.0951C54.893 61.6812 55.4782 62.2713 56.0633 62.8613C57.3175 64.1264 58.6133 65.4341 59.9189 66.6794C61.0664 67.7745 62.628 68.2183 64.2005 67.8981C65.7582 67.5808 67.0055 66.5796 67.6203 65.1514C68.414 63.3091 67.9346 61.0388 66.4283 59.5009C65.2364 58.2842 64.0276 57.0823 62.8198 55.8814L61.2789 54.3465C59.3328 52.4024 59.0828 50.5383 60.4418 48.1148C64.4555 40.959 65.6179 33.2932 63.8971 25.3309C60.7244 10.6476 47.4921 0.0107343 32.4185 0.0107343Z" fill="white"/>
<path d="M50.253 23.0139H31.1161C30.9946 23.0139 30.8779 22.9655 30.7969 22.8805L24.4604 14.7057C24.2153 14.4487 24.411 14.0415 24.7797 14.0415H43.9165C44.0381 14.0415 44.1547 14.0899 44.2358 14.1749L50.5722 22.3498C50.8173 22.6067 50.6216 23.0139 50.253 23.0139Z" fill="#FF6161"/>
<path d="M49.883 24.9466H29.9159L21.6917 14.4965C21.5316 14.3404 21.2815 14.3404 21.1204 14.4965L12.9001 24.9486L12.8971 24.9525C12.7084 25.2154 12.6095 25.5238 12.5996 25.8341H12.5977V43.8887C12.5977 44.3295 12.9545 44.6863 13.3953 44.6863H49.883C50.3238 44.6863 50.6806 44.3295 50.6806 43.8887V25.7452C50.6806 25.3044 50.3238 24.9466 49.883 24.9466Z" fill="#FF6161"/>
<path d="M22.2557 38.4758C20.274 38.4758 18.3002 37.6851 16.3867 36.1027C15.7819 35.6026 15.6969 34.7071 16.197 34.1022C16.6971 33.4973 17.5926 33.4133 18.1974 33.9124C20.958 36.1956 23.5524 36.1936 26.3604 33.9055C26.9683 33.4104 27.8637 33.5013 28.3589 34.1101C28.8541 34.718 28.7631 35.6134 28.1543 36.1086C26.2181 37.6861 24.2324 38.4748 22.2547 38.4748L22.2557 38.4758Z" fill="white"/>
<path d="M19.2352 30.7574C18.4505 30.7574 17.8149 30.1209 17.8149 29.3371V27.8368C17.8149 27.052 18.4515 26.4165 19.2352 26.4165C20.019 26.4165 20.6555 27.053 20.6555 27.8368V29.3371C20.6555 30.1219 20.019 30.7574 19.2352 30.7574Z" fill="white"/>
<path d="M25.347 30.7574C24.5623 30.7574 23.9268 30.1209 23.9268 29.3371V27.8368C23.9268 27.052 24.5633 26.4165 25.347 26.4165C26.1308 26.4165 26.7673 27.053 26.7673 27.8368V29.3371C26.7673 30.1219 26.1308 30.7574 25.347 30.7574Z" fill="white"/>
</g>
<defs>
<clipPath id="clip0_2946_17849">
<rect width="68" height="68" fill="white"/>
</clipPath>
</defs>
</svg>
