<svg width="28" height="33" viewBox="0 0 28 33" fill="none" xmlns="http://www.w3.org/2000/svg">
<g filter="url(#filter0_d_3768_23617)">
<mask id="path-1-outside-1_3768_23617" maskUnits="userSpaceOnUse" x="3" y="3.89502" width="20" height="24" fill="black">
<rect fill="white" x="3" y="3.89502" width="20" height="24"/>
<path fill-rule="evenodd" clip-rule="evenodd" d="M18.6569 8.30586C17.1566 6.76223 15.1217 5.89502 13 5.89502C10.8783 5.89502 8.84344 6.76223 7.34315 8.30586C5.84286 9.8495 5 11.9431 5 14.1262C5 17.5267 7.27036 21.2243 11.752 25.2597L12.0622 25.5366C12.3225 25.7675 12.6547 25.8947 12.9985 25.895C13.3422 25.8953 13.6746 25.7688 13.9354 25.5383C18.6246 21.3949 21 17.6043 21 14.1262C21 11.9431 20.1571 9.8495 18.6569 8.30586Z"/>
</mask>
<path fill-rule="evenodd" clip-rule="evenodd" d="M18.6569 8.30586C17.1566 6.76223 15.1217 5.89502 13 5.89502C10.8783 5.89502 8.84344 6.76223 7.34315 8.30586C5.84286 9.8495 5 11.9431 5 14.1262C5 17.5267 7.27036 21.2243 11.752 25.2597L12.0622 25.5366C12.3225 25.7675 12.6547 25.8947 12.9985 25.895C13.3422 25.8953 13.6746 25.7688 13.9354 25.5383C18.6246 21.3949 21 17.6043 21 14.1262C21 11.9431 20.1571 9.8495 18.6569 8.30586Z" fill="#FF88D7"/>
<path d="M18.6569 8.30586L17.2226 9.6998L18.6569 8.30586ZM7.34315 8.30586L8.77735 9.6998V9.6998L7.34315 8.30586ZM11.752 25.2597L10.4137 26.746L10.42 26.7516L11.752 25.2597ZM12.0622 25.5366L10.7302 27.0285L10.735 27.0328L12.0622 25.5366ZM12.9985 25.895L12.9967 27.895H12.9967L12.9985 25.895ZM13.9354 25.5383L12.6111 24.0396L12.6109 24.0397L13.9354 25.5383ZM13 7.89502C14.5726 7.89502 16.0928 8.53726 17.2226 9.6998L20.0911 6.91193C18.2204 4.98719 15.6708 3.89502 13 3.89502V7.89502ZM8.77735 9.6998C9.90725 8.53726 11.4274 7.89502 13 7.89502V3.89502C10.3292 3.89502 7.77963 4.98719 5.90894 6.91193L8.77735 9.6998ZM7 14.1262C7 12.4555 7.64558 10.8643 8.77735 9.6998L5.90894 6.91193C4.04013 8.83473 3 11.4308 3 14.1262H7ZM13.0903 23.7734C8.71406 19.833 7 16.6416 7 14.1262H3C3 18.4117 5.82666 22.6157 10.4137 26.746L13.0903 23.7734ZM13.3941 24.0447L13.084 23.7678L10.42 26.7516L10.7302 27.0285L13.3941 24.0447ZM13.0003 23.895C13.1517 23.8952 13.2892 23.9516 13.3893 24.0404L10.735 27.0328C11.3558 27.5835 12.1578 27.8943 12.9967 27.895L13.0003 23.895ZM12.6109 24.0397C12.7112 23.9511 12.8489 23.8949 13.0003 23.895L12.9967 27.895C13.8355 27.8958 14.6381 27.5864 15.2599 27.0368L12.6109 24.0397ZM19 14.1262C19 16.7022 17.2018 19.9832 12.6111 24.0396L15.2597 27.037C20.0474 22.8066 23 18.5065 23 14.1262H19ZM17.2226 9.6998C18.3544 10.8643 19 12.4555 19 14.1262H23C23 11.4308 21.9599 8.83473 20.0911 6.91193L17.2226 9.6998Z" fill="white" mask="url(#path-1-outside-1_3768_23617)"/>
</g>
<circle cx="13" cy="13.895" r="2" fill="white"/>
<defs>
<filter id="filter0_d_3768_23617" x="0" y="0.89502" width="28" height="32" filterUnits="userSpaceOnUse" color-interpolation-filters="sRGB">
<feFlood flood-opacity="0" result="BackgroundImageFix"/>
<feColorMatrix in="SourceAlpha" type="matrix" values="0 0 0 0 0 0 0 0 0 0 0 0 0 0 0 0 0 0 127 0" result="hardAlpha"/>
<feOffset dx="1" dy="1"/>
<feGaussianBlur stdDeviation="2"/>
<feComposite in2="hardAlpha" operator="out"/>
<feColorMatrix type="matrix" values="0 0 0 0 0 0 0 0 0 0 0 0 0 0 0 0 0 0 0.3 0"/>
<feBlend mode="normal" in2="BackgroundImageFix" result="effect1_dropShadow_3768_23617"/>
<feBlend mode="normal" in="SourceGraphic" in2="effect1_dropShadow_3768_23617" result="shape"/>
</filter>
</defs>
</svg>
