<svg width="25" height="24" viewBox="0 0 25 24" fill="none" xmlns="http://www.w3.org/2000/svg">
<rect x="21.0498" y="4.81104" width="1" height="8" rx="0.5" transform="rotate(45 21.0498 4.81104)" fill="#C9AC9C"/>
<path fill-rule="evenodd" clip-rule="evenodd" d="M6.77454 12.9999C6.76864 13 6.76274 13 6.75684 13C5.65227 13 4.75684 12.1046 4.75684 11C4.75684 9.89543 5.65227 9 6.75684 9C6.84113 9 6.92421 9.00522 7.00577 9.01534C7.34665 8.39943 8.00305 7.98242 8.75684 7.98242C8.8532 7.98242 8.94798 7.98924 9.04071 8.00241C9.38617 7.40328 10.0333 7 10.7745 7C10.862 7 10.9482 7.00561 11.0327 7.0165C11.3761 6.40961 12.0275 6 12.7745 6C13.5208 6 14.1715 6.40869 14.5152 7.01444C14.5944 7.00491 14.6751 7 14.7568 7C15.4972 7 16.1436 7.40227 16.4894 8.00015C16.5769 7.98846 16.6661 7.98242 16.7568 7.98242C17.5106 7.98242 18.167 8.39943 18.5079 9.01534C18.5895 9.00522 18.6725 9 18.7568 9C19.8614 9 20.7568 9.89543 20.7568 11C20.7568 12.1046 19.8614 13 18.7568 13H6.77454V12.9999Z" fill="#E7EBEF"/>
<rect x="18.5752" y="2.75684" width="1" height="8" rx="0.5" transform="rotate(30 18.5752 2.75684)" fill="#C9AC9C"/>
<path d="M8.75684 19H16.7568V20C16.7568 20.5523 16.3091 21 15.7568 21H9.75684C9.20455 21 8.75684 20.5523 8.75684 20V19Z" fill="#5D4037"/>
<path fill-rule="evenodd" clip-rule="evenodd" d="M4.75684 12C4.20455 12 3.75684 12.4477 3.75684 13V13.875H3.75973C4.27257 17.064 7.03721 19.4999 10.3708 19.4999H15.1444C18.4779 19.4999 21.2426 17.064 21.7554 13.875H21.7568V13C21.7568 12.4477 21.3091 12 20.7568 12H4.75684Z" fill="#5D4037"/>
</svg>
