<svg width="18" height="18" viewBox="0 0 18 18" fill="none" xmlns="http://www.w3.org/2000/svg">
<g clip-path="url(#clip0_2342_18125)">
<path d="M15.75 4.725C15.75 4.1325 15.3975 3.5925 14.8575 3.3525L9.6075 1.02C9.2175 0.8475 8.775 0.8475 8.3925 1.02L3.1425 3.3525C2.6025 3.5925 2.25 4.1325 2.25 4.725V8.25C2.25 12.4125 5.13 16.305 9 17.25C10.725 16.83 12.2475 15.825 13.41 14.4675L11.07 12.1275C9.615 13.095 7.635 12.93 6.3525 11.6475C4.89 10.185 4.89 7.8075 6.3525 6.345C7.815 4.8825 10.1925 4.8825 11.655 6.345C12.9375 7.6275 13.095 9.6075 12.135 11.0625L14.31 13.2375C15.2175 11.7675 15.75 10.035 15.75 8.25V4.725Z" fill="#2C9EDE"/>
<path d="M9 11.25C10.2426 11.25 11.25 10.2426 11.25 9C11.25 7.75736 10.2426 6.75 9 6.75C7.75736 6.75 6.75 7.75736 6.75 9C6.75 10.2426 7.75736 11.25 9 11.25Z" fill="#2C9EDE"/>
</g>
<defs>
<clipPath id="clip0_2342_18125">
<rect width="18" height="18" fill="white"/>
</clipPath>
</defs>
</svg>
