<svg width="25" height="24" viewBox="0 0 25 24" fill="none" xmlns="http://www.w3.org/2000/svg">
<circle cx="12.3887" cy="11.9824" r="7" fill="#F0F0F0"/>
<ellipse cx="12.3883" cy="11.9814" rx="4.66667" ry="4.66667" fill="#E5E5E5"/>
<path d="M4.62488 12.4275C4.64208 12.1866 4.84251 12 5.08398 12C5.32546 12 5.52589 12.1866 5.54309 12.4275L6.01274 19.0025C6.05124 19.5415 5.62435 20 5.08398 20C4.54362 20 4.11673 19.5415 4.15523 19.0025L4.62488 12.4275Z" fill="#BBBBBB"/>
<path fill-rule="evenodd" clip-rule="evenodd" d="M3.50645 7C3.72736 7 3.90645 7.22386 3.90645 7.5L3.90645 8.99414H3.90643V9.5C3.90643 9.77614 4.08552 10 4.30643 10C4.52735 10 4.70643 9.77614 4.70643 9.5L4.70643 8.99414H4.70642V7.5C4.70642 7.22386 4.88551 7 5.10642 7C5.32733 7 5.50642 7.22386 5.50642 7.5V8.99414H5.50482V9.5C5.50482 9.77614 5.68391 10 5.90482 10C6.12574 10 6.30482 9.77614 6.30482 9.5V9.13184H6.3064L6.3064 7.5C6.3064 7.22386 6.48548 7 6.7064 7C6.92731 7 7.1064 7.22386 7.1064 7.5V9.13184V9.5V10H7.10646V11C7.10646 12.1046 6.21103 13 5.10646 13C4.00189 13 3.10646 12.1046 3.10646 11V10V9.50397L3.10645 9.5V7.5C3.10645 7.22386 3.28553 7 3.50645 7Z" fill="#BBBBBB"/>
<path d="M18.106 14.9994C18.4973 15.2838 18.7417 15.474 18.748 15.5336H20.106C20.061 12.6586 20.1808 6.81903 20.106 6.47749C20.0391 6.17201 20.0535 5.99805 19.6381 5.99902C19.2227 6 18.614 7.28601 18.106 8.99902C17.6996 10.3694 17.5926 12.3272 17.5898 13.1348C17.5898 14.0619 17.9339 14.7642 18.106 14.9994Z" fill="#BBBBBB"/>
<path d="M18.9677 12.4275C18.9849 12.1866 19.1853 12 19.4268 12C19.6682 12 19.8687 12.1866 19.8859 12.4275L20.3555 19.0025C20.394 19.5415 19.9671 20 19.4268 20C18.8864 20 18.4595 19.5415 18.498 19.0025L18.9677 12.4275Z" fill="#BBBBBB"/>
</svg>
