<svg width="64" height="64" viewBox="0 0 64 64" fill="none" xmlns="http://www.w3.org/2000/svg">
<g id="ant-design:exclamation-circle-outlined">
<path id="Vector" d="M32 4C16.5375 4 4 16.5375 4 32C4 47.4625 16.5375 60 32 60C47.4625 60 60 47.4625 60 32C60 16.5375 47.4625 4 32 4ZM32 55.25C19.1625 55.25 8.75 44.8375 8.75 32C8.75 19.1625 19.1625 8.75 32 8.75C44.8375 8.75 55.25 19.1625 55.25 32C55.25 44.8375 44.8375 55.25 32 55.25Z" fill="#DEDEDE"/>
<path id="Vector_2" d="M29 43C29 43.7956 29.3161 44.5587 29.8787 45.1213C30.4413 45.6839 31.2044 46 32 46C32.7956 46 33.5587 45.6839 34.1213 45.1213C34.6839 44.5587 35 43.7956 35 43C35 42.2044 34.6839 41.4413 34.1213 40.8787C33.5587 40.3161 32.7956 40 32 40C31.2044 40 30.4413 40.3161 29.8787 40.8787C29.3161 41.4413 29 42.2044 29 43ZM30.5 36H33.5C33.775 36 34 35.775 34 35.5V18.5C34 18.225 33.775 18 33.5 18H30.5C30.225 18 30 18.225 30 18.5V35.5C30 35.775 30.225 36 30.5 36Z" fill="#DEDEDE"/>
</g>
</svg>
