<svg width="60" height="60" viewBox="0 0 60 60" fill="none" xmlns="http://www.w3.org/2000/svg">
<g clip-path="url(#clip0_4586_22985)">
<g filter="url(#filter0_d_4586_22985)">
<circle cx="21" cy="21" r="21" transform="matrix(1 0 0 -1 9 51)" fill="#1A1A1A"/>
<path d="M22.9567 33.268L22.0234 37.4712C21.9912 37.6249 21.9923 37.7841 22.0266 37.9373C22.0609 38.0904 22.1276 38.2336 22.2217 38.3564C22.3159 38.4793 22.4352 38.5786 22.5708 38.6471C22.7065 38.7157 22.8551 38.7518 23.0058 38.7527C23.076 38.7601 23.1468 38.7601 23.217 38.7527L27.2697 37.7788L35.0507 29.6902L30.7083 25.1692L22.9567 33.268Z" fill="white"/>
<path d="M37.6314 25.3331L34.7331 22.3089C34.5426 22.1111 34.2847 22 34.0159 22C33.7471 22 33.4893 22.1111 33.2987 22.3089L31.6875 23.9902L36.025 28.5163L37.6363 26.835C37.7306 26.7361 37.8052 26.6188 37.856 26.4898C37.9068 26.3607 37.9327 26.2225 37.9323 26.083C37.9318 25.9435 37.905 25.8055 37.8534 25.6768C37.8017 25.5481 37.7263 25.4313 37.6314 25.3331Z" fill="white"/>
</g>
</g>
<defs>
<filter id="filter0_d_4586_22985" x="1" y="5" width="58" height="58" filterUnits="userSpaceOnUse" color-interpolation-filters="sRGB">
<feFlood flood-opacity="0" result="BackgroundImageFix"/>
<feColorMatrix in="SourceAlpha" type="matrix" values="0 0 0 0 0 0 0 0 0 0 0 0 0 0 0 0 0 0 127 0" result="hardAlpha"/>
<feOffset dy="4"/>
<feGaussianBlur stdDeviation="4"/>
<feComposite in2="hardAlpha" operator="out"/>
<feColorMatrix type="matrix" values="0 0 0 0 0 0 0 0 0 0 0 0 0 0 0 0 0 0 0.15 0"/>
<feBlend mode="normal" in2="BackgroundImageFix" result="effect1_dropShadow_4586_22985"/>
<feBlend mode="normal" in="SourceGraphic" in2="effect1_dropShadow_4586_22985" result="shape"/>
</filter>
<clipPath id="clip0_4586_22985">
<rect width="60" height="60" fill="white"/>
</clipPath>
</defs>
</svg>
