<svg width="28" height="33" viewBox="0 0 28 33" fill="none" xmlns="http://www.w3.org/2000/svg">
<g filter="url(#filter0_d_3698_21565)">
<mask id="path-1-outside-1_3698_21565" maskUnits="userSpaceOnUse" x="3" y="3.5" width="20" height="24" fill="black">
<rect fill="white" x="3" y="3.5" width="20" height="24"/>
<path fill-rule="evenodd" clip-rule="evenodd" d="M18.6569 7.91084C17.1566 6.36721 15.1217 5.5 13 5.5C10.8783 5.5 8.84344 6.36721 7.34315 7.91084C5.84286 9.45448 5 11.5481 5 13.7311C5 17.1316 7.27036 20.8293 11.752 24.8647L12.0622 25.1416C12.3225 25.3725 12.6547 25.4997 12.9985 25.5C13.3422 25.5003 13.6746 25.3737 13.9354 25.1433C18.6246 20.9999 21 17.2093 21 13.7311C21 11.5481 20.1571 9.45448 18.6569 7.91084Z"/>
</mask>
<path fill-rule="evenodd" clip-rule="evenodd" d="M18.6569 7.91084C17.1566 6.36721 15.1217 5.5 13 5.5C10.8783 5.5 8.84344 6.36721 7.34315 7.91084C5.84286 9.45448 5 11.5481 5 13.7311C5 17.1316 7.27036 20.8293 11.752 24.8647L12.0622 25.1416C12.3225 25.3725 12.6547 25.4997 12.9985 25.5C13.3422 25.5003 13.6746 25.3737 13.9354 25.1433C18.6246 20.9999 21 17.2093 21 13.7311C21 11.5481 20.1571 9.45448 18.6569 7.91084Z" fill="#1246CD"/>
<path d="M18.6569 7.91084L17.2226 9.30478L18.6569 7.91084ZM7.34315 7.91084L8.77735 9.30478V9.30478L7.34315 7.91084ZM11.752 24.8647L10.4137 26.351L10.42 26.3566L11.752 24.8647ZM12.0622 25.1416L10.7302 26.6335L10.735 26.6378L12.0622 25.1416ZM12.9985 25.5L12.9967 27.5H12.9967L12.9985 25.5ZM13.9354 25.1433L12.6111 23.6445L12.6109 23.6447L13.9354 25.1433ZM13 7.5C14.5726 7.5 16.0928 8.14224 17.2226 9.30478L20.0911 6.51691C18.2204 4.59217 15.6708 3.5 13 3.5V7.5ZM8.77735 9.30478C9.90725 8.14224 11.4274 7.5 13 7.5V3.5C10.3292 3.5 7.77963 4.59217 5.90894 6.51691L8.77735 9.30478ZM7 13.7311C7 12.0604 7.64558 10.4693 8.77735 9.30478L5.90894 6.51691C4.04013 8.43971 3 11.0358 3 13.7311H7ZM13.0903 23.3784C8.71406 19.438 7 16.2466 7 13.7311H3C3 18.0167 5.82666 22.2207 10.4137 26.351L13.0903 23.3784ZM13.3941 23.6497L13.084 23.3728L10.42 26.3566L10.7302 26.6335L13.3941 23.6497ZM13.0003 23.5C13.1517 23.5001 13.2892 23.5566 13.3893 23.6454L10.735 26.6378C11.3558 27.1884 12.1578 27.4992 12.9967 27.5L13.0003 23.5ZM12.6109 23.6447C12.7112 23.5561 12.8489 23.4999 13.0003 23.5L12.9967 27.5C13.8355 27.5008 14.6381 27.1914 15.2599 26.6418L12.6109 23.6447ZM19 13.7311C19 16.3072 17.2018 19.5881 12.6111 23.6445L15.2597 26.642C20.0474 22.4116 23 18.1115 23 13.7311H19ZM17.2226 9.30478C18.3544 10.4693 19 12.0604 19 13.7311H23C23 11.0358 21.9599 8.43971 20.0911 6.51691L17.2226 9.30478Z" fill="white" mask="url(#path-1-outside-1_3698_21565)"/>
</g>
<circle cx="13" cy="13.5" r="2" fill="white"/>
<defs>
<filter id="filter0_d_3698_21565" x="0" y="0.5" width="28" height="32" filterUnits="userSpaceOnUse" color-interpolation-filters="sRGB">
<feFlood flood-opacity="0" result="BackgroundImageFix"/>
<feColorMatrix in="SourceAlpha" type="matrix" values="0 0 0 0 0 0 0 0 0 0 0 0 0 0 0 0 0 0 127 0" result="hardAlpha"/>
<feOffset dx="1" dy="1"/>
<feGaussianBlur stdDeviation="2"/>
<feComposite in2="hardAlpha" operator="out"/>
<feColorMatrix type="matrix" values="0 0 0 0 0 0 0 0 0 0 0 0 0 0 0 0 0 0 0.3 0"/>
<feBlend mode="normal" in2="BackgroundImageFix" result="effect1_dropShadow_3698_21565"/>
<feBlend mode="normal" in="SourceGraphic" in2="effect1_dropShadow_3698_21565" result="shape"/>
</filter>
</defs>
</svg>
