<svg width="16" height="16" viewBox="0 0 16 16" fill="none" xmlns="http://www.w3.org/2000/svg">
<path d="M8 0C12.4184 0 16 3.5816 16 8C16 12.4184 12.4184 16 8 16C3.5816 16 0 12.4184 0 8C0 3.5816 3.5816 0 8 0ZM8 1.116C6.17425 1.116 4.42328 1.84128 3.13228 3.13228C1.84128 4.42328 1.116 6.17425 1.116 8C1.116 9.82575 1.84128 11.5767 3.13228 12.8677C4.42328 14.1587 6.17425 14.884 8 14.884C9.82575 14.884 11.5767 14.1587 12.8677 12.8677C14.1587 11.5767 14.884 9.82575 14.884 8C14.884 6.17425 14.1587 4.42328 12.8677 3.13228C11.5767 1.84128 9.82575 1.116 8 1.116ZM7.884 5.768C8.192 5.768 8.4416 6.0184 8.4416 6.3264V12.3728C8.43613 12.5171 8.37495 12.6537 8.27091 12.7539C8.16686 12.8541 8.02804 12.9101 7.8836 12.9101C7.73916 12.9101 7.60034 12.8541 7.4963 12.7539C7.39225 12.6537 7.33107 12.5171 7.3256 12.3728V6.3256C7.3256 6.0176 7.5752 5.7672 7.884 5.7672V5.768ZM7.9064 3.536C8.10372 3.536 8.29296 3.61439 8.43249 3.75391C8.57201 3.89344 8.6504 4.08268 8.6504 4.28C8.6504 4.47732 8.57201 4.66656 8.43249 4.80609C8.29296 4.94561 8.10372 5.024 7.9064 5.024C7.70908 5.024 7.51984 4.94561 7.38031 4.80609C7.24079 4.66656 7.1624 4.47732 7.1624 4.28C7.1624 4.08268 7.24079 3.89344 7.38031 3.75391C7.51984 3.61439 7.70908 3.536 7.9064 3.536Z" fill="#BEBEBE"/>
</svg>
