<svg width="28" height="33" viewBox="0 0 28 33" fill="none" xmlns="http://www.w3.org/2000/svg">
<g filter="url(#filter0_d_3768_23562)">
<mask id="path-1-outside-1_3768_23562" maskUnits="userSpaceOnUse" x="3" y="3.57031" width="20" height="24" fill="black">
<rect fill="white" x="3" y="3.57031" width="20" height="24"/>
<path fill-rule="evenodd" clip-rule="evenodd" d="M18.6569 7.98115C17.1566 6.43752 15.1217 5.57031 13 5.57031C10.8783 5.57031 8.84344 6.43752 7.34315 7.98115C5.84286 9.52479 5 11.6184 5 13.8014C5 17.202 7.27036 20.8996 11.752 24.935L12.0622 25.2119C12.3225 25.4428 12.6547 25.57 12.9985 25.5703C13.3422 25.5706 13.6746 25.444 13.9354 25.2136C18.6246 21.0702 21 17.2796 21 13.8014C21 11.6184 20.1571 9.52479 18.6569 7.98115Z"/>
</mask>
<path fill-rule="evenodd" clip-rule="evenodd" d="M18.6569 7.98115C17.1566 6.43752 15.1217 5.57031 13 5.57031C10.8783 5.57031 8.84344 6.43752 7.34315 7.98115C5.84286 9.52479 5 11.6184 5 13.8014C5 17.202 7.27036 20.8996 11.752 24.935L12.0622 25.2119C12.3225 25.4428 12.6547 25.57 12.9985 25.5703C13.3422 25.5706 13.6746 25.444 13.9354 25.2136C18.6246 21.0702 21 17.2796 21 13.8014C21 11.6184 20.1571 9.52479 18.6569 7.98115Z" fill="#A4774D"/>
<path d="M18.6569 7.98115L17.2226 9.37509L18.6569 7.98115ZM7.34315 7.98115L8.77735 9.37509V9.37509L7.34315 7.98115ZM11.752 24.935L10.4137 26.4213L10.42 26.4269L11.752 24.935ZM12.0622 25.2119L10.7302 26.7038L10.735 26.7081L12.0622 25.2119ZM12.9985 25.5703L12.9967 27.5703H12.9967L12.9985 25.5703ZM13.9354 25.2136L12.6111 23.7148L12.6109 23.715L13.9354 25.2136ZM13 7.57031C14.5726 7.57031 16.0928 8.21255 17.2226 9.37509L20.0911 6.58722C18.2204 4.66249 15.6708 3.57031 13 3.57031V7.57031ZM8.77735 9.37509C9.90725 8.21255 11.4274 7.57031 13 7.57031V3.57031C10.3292 3.57031 7.77963 4.66249 5.90894 6.58722L8.77735 9.37509ZM7 13.8014C7 12.1308 7.64558 10.5396 8.77735 9.37509L5.90894 6.58722C4.04013 8.51002 3 11.1061 3 13.8014H7ZM13.0903 23.4487C8.71406 19.5083 7 16.3169 7 13.8014H3C3 18.087 5.82666 22.291 10.4137 26.4213L13.0903 23.4487ZM13.3941 23.72L13.084 23.4431L10.42 26.4269L10.7302 26.7038L13.3941 23.72ZM13.0003 23.5703C13.1517 23.5704 13.2892 23.6269 13.3893 23.7157L10.735 26.7081C11.3558 27.2588 12.1578 27.5696 12.9967 27.5703L13.0003 23.5703ZM12.6109 23.715C12.7112 23.6264 12.8489 23.5702 13.0003 23.5703L12.9967 27.5703C13.8355 27.5711 14.6381 27.2617 15.2599 26.7121L12.6109 23.715ZM19 13.8014C19 16.3775 17.2018 19.6585 12.6111 23.7148L15.2597 26.7123C20.0474 22.4819 23 18.1818 23 13.8014H19ZM17.2226 9.37509C18.3544 10.5396 19 12.1308 19 13.8014H23C23 11.1061 21.9599 8.51002 20.0911 6.58722L17.2226 9.37509Z" fill="white" mask="url(#path-1-outside-1_3768_23562)"/>
</g>
<circle cx="13" cy="13.5703" r="2" fill="white"/>
<defs>
<filter id="filter0_d_3768_23562" x="0" y="0.570312" width="28" height="32" filterUnits="userSpaceOnUse" color-interpolation-filters="sRGB">
<feFlood flood-opacity="0" result="BackgroundImageFix"/>
<feColorMatrix in="SourceAlpha" type="matrix" values="0 0 0 0 0 0 0 0 0 0 0 0 0 0 0 0 0 0 127 0" result="hardAlpha"/>
<feOffset dx="1" dy="1"/>
<feGaussianBlur stdDeviation="2"/>
<feComposite in2="hardAlpha" operator="out"/>
<feColorMatrix type="matrix" values="0 0 0 0 0 0 0 0 0 0 0 0 0 0 0 0 0 0 0.3 0"/>
<feBlend mode="normal" in2="BackgroundImageFix" result="effect1_dropShadow_3768_23562"/>
<feBlend mode="normal" in="SourceGraphic" in2="effect1_dropShadow_3768_23562" result="shape"/>
</filter>
</defs>
</svg>
