<svg width="17" height="17" viewBox="0 0 17 17" fill="none" xmlns="http://www.w3.org/2000/svg">
<path d="M7.81258 6.09049C7.67292 6.1865 7.56096 6.31755 7.48792 6.47048C7.42595 6.58425 7.32225 6.66952 7.19866 6.70834C7.07507 6.74716 6.94124 6.7365 6.82535 6.6786C6.70947 6.6207 6.62058 6.52008 6.57741 6.39795C6.53424 6.27581 6.54016 6.14168 6.59392 6.02382C6.72725 5.75582 6.93592 5.47315 7.25858 5.25849C7.58392 5.04049 7.99525 4.91382 8.49925 4.91382C8.93792 4.91382 9.41192 5.04382 9.78858 5.32648C9.99858 5.47999 10.1689 5.68143 10.2853 5.91405C10.4017 6.14666 10.4609 6.40371 10.4579 6.66382C10.4579 7.35248 10.1159 7.81048 9.77325 8.14049C9.64658 8.26249 9.50725 8.37915 9.38725 8.47915L9.28925 8.56115C9.18642 8.64526 9.08953 8.73636 8.99925 8.83382V9.74715C8.99925 9.87976 8.94657 10.0069 8.8528 10.1007C8.75904 10.1945 8.63186 10.2472 8.49925 10.2472C8.36664 10.2472 8.23947 10.1945 8.1457 10.1007C8.05193 10.0069 7.99925 9.87976 7.99925 9.74715V8.76515C7.99925 8.60715 8.04392 8.42915 8.16392 8.27449C8.31058 8.08782 8.48792 7.92982 8.64258 7.79848L8.76458 7.69648L8.76525 7.69582C8.87992 7.60049 8.98125 7.51582 9.07858 7.42115C9.32392 7.18448 9.45792 6.97048 9.45792 6.66382C9.46086 6.55898 9.43781 6.45505 9.39081 6.36129C9.34382 6.26753 9.27434 6.18686 9.18858 6.12649C9.00992 5.99249 8.75525 5.91382 8.49925 5.91382C8.16992 5.91382 7.95658 5.99449 7.81258 6.09049ZM9.16592 11.9138C9.16592 12.0906 9.09568 12.2602 8.97066 12.3852C8.84563 12.5102 8.67606 12.5805 8.49925 12.5805C8.32244 12.5805 8.15287 12.5102 8.02785 12.3852C7.90282 12.2602 7.83258 12.0906 7.83258 11.9138C7.83258 11.737 7.90282 11.5674 8.02785 11.4424C8.15287 11.3174 8.32244 11.2472 8.49925 11.2472C8.67606 11.2472 8.84563 11.3174 8.97066 11.4424C9.09568 11.5674 9.16592 11.737 9.16592 11.9138Z" fill="#FF6161"/>
<path d="M8.49935 1.24731C12.5493 1.24731 15.8327 4.53065 15.8327 8.58065C15.8327 12.6306 12.5493 15.914 8.49935 15.914C4.44935 15.914 1.16602 12.6306 1.16602 8.58065C1.16602 4.53065 4.44935 1.24731 8.49935 1.24731ZM2.16602 8.58065C2.16602 10.2604 2.83328 11.8713 4.02101 13.059C5.20874 14.2467 6.81964 14.914 8.49935 14.914C10.1791 14.914 11.79 14.2467 12.9777 13.059C14.1654 11.8713 14.8327 10.2604 14.8327 8.58065C14.8327 6.90094 14.1654 5.29004 12.9777 4.1023C11.79 2.91457 10.1791 2.24731 8.49935 2.24731C6.81964 2.24731 5.20874 2.91457 4.02101 4.1023C2.83328 5.29004 2.16602 6.90094 2.16602 8.58065Z" fill="#FF6161"/>
</svg>
