<svg width="64" height="65" viewBox="0 0 64 65" fill="none" xmlns="http://www.w3.org/2000/svg">
<path d="M53.3348 14.6938C52.1021 13.4605 50.6386 12.4823 49.0278 11.8148C47.417 11.1474 45.6904 10.8038 43.9468 10.8038C42.2032 10.8038 40.4766 11.1474 38.8658 11.8148C37.255 12.4823 35.7914 13.4605 34.5588 14.6938L32.0006 17.2519L29.4425 14.6938C26.9526 12.2039 23.5756 10.8051 20.0545 10.8051C16.5333 10.8051 13.1563 12.2039 10.6665 14.6938C8.17662 17.1836 6.77783 20.5606 6.77783 24.0817C6.77783 27.6029 8.17662 30.9799 10.6665 33.4697L13.2246 36.0279L32.0006 54.8038L50.7766 36.0279L53.3348 33.4697C54.568 32.2371 55.5463 30.7735 56.2137 29.1627C56.8812 27.5519 57.2247 25.8254 57.2247 24.0817C57.2247 22.3381 56.8812 20.6116 56.2137 19.0007C55.5463 17.3899 54.568 15.9264 53.3348 14.6938V14.6938Z" stroke="#DEDEDE" stroke-width="3.62005" stroke-linecap="round" stroke-linejoin="round"/>
</svg>
