<svg width="53" height="44" viewBox="0 0 53 44" fill="none" xmlns="http://www.w3.org/2000/svg">
<path d="M26.0026 40.8295C24.4035 40.8295 23.0519 40.2676 21.9478 39.1437C20.8437 38.0213 20.2916 36.6796 20.2916 35.1186C20.2916 33.5195 20.8437 32.1679 21.9478 31.0638C23.0519 29.9597 24.4035 29.4076 26.0026 29.4076C27.6016 29.4076 28.9532 29.9597 30.0573 31.0638C31.1614 32.1679 31.7135 33.5195 31.7135 35.1186C31.7135 36.6796 31.1614 38.0213 30.0573 39.1437C28.9532 40.2676 27.6016 40.8295 26.0026 40.8295ZM46.1051 15.9298C43.3258 13.6835 40.2327 11.9413 36.8259 10.7032C33.4176 9.46656 29.8099 8.84825 26.0026 8.84825C25.203 8.84825 24.4324 8.87643 23.6908 8.93277C22.9476 8.99065 22.1953 9.07669 21.4338 9.19091L15.6086 3.36575C17.2838 2.90887 18.988 2.56622 20.7211 2.33778C22.4526 2.10934 24.2131 1.99512 26.0026 1.99512C30.7617 1.99512 35.2642 2.79466 39.5101 4.39372C43.7545 5.99278 47.5518 8.20101 50.9023 11.0184C51.6257 11.6276 51.9972 12.389 52.017 13.3028C52.0353 14.2165 51.7018 15.0351 51.0165 15.7585C50.3693 16.4057 49.5796 16.7484 48.6476 16.7865C47.714 16.8245 46.8665 16.539 46.1051 15.9298ZM38.738 26.4951L37.4541 25.209L36.168 23.9251L27.9443 15.7014C30.4571 15.9298 32.8465 16.5009 35.1127 17.4147C37.3772 18.3284 39.4042 19.4896 41.1937 20.8983C41.9551 21.4694 42.3359 22.2119 42.3359 23.1256C42.3359 24.0394 41.9932 24.8389 41.3079 25.5242C40.9652 25.8669 40.5655 26.1235 40.1086 26.294C39.6517 26.4661 39.1948 26.5331 38.738 26.4951ZM42.1074 42.8855L22.2333 22.8972C21.015 23.1637 19.8637 23.5345 18.7794 24.0097C17.6935 24.4863 16.6556 25.0483 15.6657 25.6955C14.8281 26.2666 13.9525 26.5331 13.0387 26.4951C12.125 26.457 11.3445 26.1143 10.6972 25.4671C10.0119 24.7818 9.68829 23.9632 9.72637 23.0114C9.76444 22.0596 10.1452 21.3171 10.8686 20.7841C11.7442 20.0988 12.677 19.4797 13.6669 18.9269C14.6568 18.3756 15.6848 17.8715 16.7508 17.4147L11.611 12.2748C10.583 12.8078 9.59311 13.3789 8.64129 13.9881C7.68946 14.5973 6.77571 15.2445 5.90003 15.9298C5.13857 16.539 4.29183 16.8344 3.35981 16.8162C2.42626 16.7964 1.63586 16.4438 0.988622 15.7585C0.341381 15.0732 0.0177612 14.2546 0.0177612 13.3028C0.0177612 12.351 0.379454 11.5895 1.10284 11.0184C1.97852 10.295 2.8641 9.62875 3.75957 9.01958C4.65352 8.41041 5.59545 7.82028 6.58535 7.24919L3.38722 4.05106C2.96842 3.63226 2.75901 3.09924 2.75901 2.452C2.75901 1.80476 2.96842 1.27174 3.38722 0.852935C3.80602 0.434133 4.33904 0.224731 4.98628 0.224731C5.63352 0.224731 6.16654 0.434133 6.58535 0.852935L45.3627 39.6302C45.7815 40.049 45.9909 40.5919 45.9909 41.259C45.9909 41.9245 45.7815 42.4667 45.3627 42.8855C44.9058 43.3423 44.3537 43.5616 43.7065 43.5434C43.0592 43.5236 42.5262 43.3043 42.1074 42.8855Z" fill="#DEDEDE"/>
</svg>
