<svg width="44" height="44" viewBox="0 0 44 44" fill="none" xmlns="http://www.w3.org/2000/svg">
<path d="M30.8401 14.6099C30.3294 14.0989 29.7229 13.6935 29.0555 13.417C28.388 13.1404 27.6726 12.998 26.9501 12.998C26.2276 12.998 25.5122 13.1404 24.8448 13.417C24.1773 13.6935 23.5709 14.0989 23.0601 14.6099L22.0001 15.6699L20.9401 14.6099C19.9084 13.5782 18.5092 12.9986 17.0501 12.9986C15.5911 12.9986 14.1918 13.5782 13.1601 14.6099C12.1284 15.6416 11.5488 17.0408 11.5488 18.4999C11.5488 19.9589 12.1284 21.3582 13.1601 22.3899L14.2201 23.4499L22.0001 31.2299L29.7801 23.4499L30.8401 22.3899C31.3511 21.8791 31.7565 21.2727 32.033 20.6052C32.3096 19.9378 32.4519 19.2224 32.4519 18.4999C32.4519 17.7774 32.3096 17.062 32.033 16.3945C31.7565 15.7271 31.3511 15.1206 30.8401 14.6099V14.6099Z" stroke="#444444" stroke-width="1.8" stroke-linecap="round" stroke-linejoin="round"/>
</svg>
