<svg width="29" height="33" viewBox="0 0 29 33" fill="none" xmlns="http://www.w3.org/2000/svg">
<g filter="url(#filter0_d_3698_22072)">
<mask id="path-1-outside-1_3698_22072" maskUnits="userSpaceOnUse" x="3.33301" y="3.38086" width="20" height="24" fill="black">
<rect fill="white" x="3.33301" y="3.38086" width="20" height="24"/>
<path fill-rule="evenodd" clip-rule="evenodd" d="M18.9899 7.7917C17.4896 6.24807 15.4547 5.38086 13.333 5.38086C11.2113 5.38086 9.17644 6.24807 7.67615 7.7917C6.17586 9.33534 5.33301 11.429 5.33301 13.612C5.33301 17.0125 7.60337 20.7102 12.085 24.7455L12.3952 25.0224C12.6555 25.2534 12.9877 25.3805 13.3315 25.3809C13.6752 25.3812 14.0077 25.2546 14.2684 25.0241C18.9576 20.8807 21.333 17.0902 21.333 13.612C21.333 11.429 20.4902 9.33534 18.9899 7.7917Z"/>
</mask>
<path fill-rule="evenodd" clip-rule="evenodd" d="M18.9899 7.7917C17.4896 6.24807 15.4547 5.38086 13.333 5.38086C11.2113 5.38086 9.17644 6.24807 7.67615 7.7917C6.17586 9.33534 5.33301 11.429 5.33301 13.612C5.33301 17.0125 7.60337 20.7102 12.085 24.7455L12.3952 25.0224C12.6555 25.2534 12.9877 25.3805 13.3315 25.3809C13.6752 25.3812 14.0077 25.2546 14.2684 25.0241C18.9576 20.8807 21.333 17.0902 21.333 13.612C21.333 11.429 20.4902 9.33534 18.9899 7.7917Z" fill="#662AE4"/>
<path d="M18.9899 7.7917L17.5557 9.18564L18.9899 7.7917ZM7.67615 7.7917L9.11036 9.18564V9.18564L7.67615 7.7917ZM12.085 24.7455L10.7467 26.2318L10.753 26.2375L12.085 24.7455ZM12.3952 25.0224L11.0632 26.5144L11.068 26.5187L12.3952 25.0224ZM13.3315 25.3809L13.3297 27.3809H13.3297L13.3315 25.3809ZM14.2684 25.0241L12.9441 23.5254L12.9439 23.5256L14.2684 25.0241ZM13.333 7.38086C14.9056 7.38086 16.4258 8.0231 17.5557 9.18564L20.4241 6.39777C18.5534 4.47303 16.0039 3.38086 13.333 3.38086V7.38086ZM9.11036 9.18564C10.2403 8.0231 11.7604 7.38086 13.333 7.38086V3.38086C10.6622 3.38086 8.11264 4.47303 6.24195 6.39777L9.11036 9.18564ZM7.33301 13.612C7.33301 11.9413 7.97859 10.3501 9.11036 9.18564L6.24195 6.39777C4.37314 8.32057 3.33301 10.9166 3.33301 13.612H7.33301ZM13.4233 23.2593C9.04706 19.3188 7.33301 16.1274 7.33301 13.612H3.33301C3.33301 17.8976 6.15967 22.1015 10.7467 26.2318L13.4233 23.2593ZM13.7271 23.5305L13.417 23.2536L10.753 26.2375L11.0632 26.5144L13.7271 23.5305ZM13.3333 23.3809C13.4847 23.381 13.6222 23.4375 13.7223 23.5262L11.068 26.5187C11.6888 27.0693 12.4908 27.3801 13.3297 27.3809L13.3333 23.3809ZM12.9439 23.5256C13.0442 23.4369 13.1819 23.3807 13.3333 23.3809L13.3297 27.3809C14.1685 27.3816 14.9711 27.0723 15.5929 26.5227L12.9439 23.5256ZM19.333 13.612C19.333 16.188 17.5348 19.469 12.9441 23.5254L15.5927 26.5229C20.3804 22.2924 23.333 17.9923 23.333 13.612H19.333ZM17.5557 9.18564C18.6874 10.3501 19.333 11.9413 19.333 13.612H23.333C23.333 10.9166 22.2929 8.32057 20.4241 6.39777L17.5557 9.18564Z" fill="white" mask="url(#path-1-outside-1_3698_22072)"/>
</g>
<circle cx="13.333" cy="13.3809" r="2" fill="white"/>
<defs>
<filter id="filter0_d_3698_22072" x="0.333008" y="0.380859" width="28" height="32" filterUnits="userSpaceOnUse" color-interpolation-filters="sRGB">
<feFlood flood-opacity="0" result="BackgroundImageFix"/>
<feColorMatrix in="SourceAlpha" type="matrix" values="0 0 0 0 0 0 0 0 0 0 0 0 0 0 0 0 0 0 127 0" result="hardAlpha"/>
<feOffset dx="1" dy="1"/>
<feGaussianBlur stdDeviation="2"/>
<feComposite in2="hardAlpha" operator="out"/>
<feColorMatrix type="matrix" values="0 0 0 0 0 0 0 0 0 0 0 0 0 0 0 0 0 0 0.3 0"/>
<feBlend mode="normal" in2="BackgroundImageFix" result="effect1_dropShadow_3698_22072"/>
<feBlend mode="normal" in="SourceGraphic" in2="effect1_dropShadow_3698_22072" result="shape"/>
</filter>
</defs>
</svg>
