<svg width="29" height="32" viewBox="0 0 29 32" fill="none" xmlns="http://www.w3.org/2000/svg">
<g filter="url(#filter0_d_3698_21600)">
<mask id="path-1-outside-1_3698_21600" maskUnits="userSpaceOnUse" x="3.5" y="3" width="20" height="24" fill="black">
<rect fill="white" x="3.5" y="3" width="20" height="24"/>
<path fill-rule="evenodd" clip-rule="evenodd" d="M19.1569 7.41084C17.6566 5.86721 15.6217 5 13.5 5C11.3783 5 9.34344 5.86721 7.84315 7.41084C6.34286 8.95448 5.5 11.0481 5.5 13.2311C5.5 16.6316 7.77036 20.3293 12.252 24.3647L12.5622 24.6416C12.8225 24.8725 13.1547 24.9997 13.4985 25C13.8422 25.0003 14.1746 24.8737 14.4354 24.6433C19.1246 20.4999 21.5 16.7093 21.5 13.2311C21.5 11.0481 20.6571 8.95448 19.1569 7.41084Z"/>
</mask>
<path fill-rule="evenodd" clip-rule="evenodd" d="M19.1569 7.41084C17.6566 5.86721 15.6217 5 13.5 5C11.3783 5 9.34344 5.86721 7.84315 7.41084C6.34286 8.95448 5.5 11.0481 5.5 13.2311C5.5 16.6316 7.77036 20.3293 12.252 24.3647L12.5622 24.6416C12.8225 24.8725 13.1547 24.9997 13.4985 25C13.8422 25.0003 14.1746 24.8737 14.4354 24.6433C19.1246 20.4999 21.5 16.7093 21.5 13.2311C21.5 11.0481 20.6571 8.95448 19.1569 7.41084Z" fill="#33C2FF"/>
<path d="M19.1569 7.41084L17.7226 8.80478L19.1569 7.41084ZM7.84315 7.41084L9.27735 8.80478V8.80478L7.84315 7.41084ZM12.252 24.3647L10.9137 25.851L10.92 25.8566L12.252 24.3647ZM12.5622 24.6416L11.2302 26.1335L11.235 26.1378L12.5622 24.6416ZM13.4985 25L13.4967 27H13.4967L13.4985 25ZM14.4354 24.6433L13.1111 23.1445L13.1109 23.1447L14.4354 24.6433ZM13.5 7C15.0726 7 16.5928 7.64224 17.7226 8.80478L20.5911 6.01691C18.7204 4.09217 16.1708 3 13.5 3V7ZM9.27735 8.80478C10.4072 7.64224 11.9274 7 13.5 7V3C10.8292 3 8.27963 4.09217 6.40894 6.01691L9.27735 8.80478ZM7.5 13.2311C7.5 11.5604 8.14558 9.96925 9.27735 8.80478L6.40894 6.01691C4.54013 7.93971 3.5 10.5358 3.5 13.2311H7.5ZM13.5903 22.8784C9.21406 18.938 7.5 15.7466 7.5 13.2311H3.5C3.5 17.5167 6.32666 21.7207 10.9137 25.851L13.5903 22.8784ZM13.8941 23.1497L13.584 22.8728L10.92 25.8566L11.2302 26.1335L13.8941 23.1497ZM13.5003 23C13.6517 23.0001 13.7892 23.0566 13.8893 23.1454L11.235 26.1378C11.8558 26.6884 12.6578 26.9992 13.4967 27L13.5003 23ZM13.1109 23.1447C13.2112 23.0561 13.3489 22.9999 13.5003 23L13.4967 27C14.3355 27.0008 15.1381 26.6914 15.7599 26.1418L13.1109 23.1447ZM19.5 13.2311C19.5 15.8072 17.7018 19.0881 13.1111 23.1445L15.7597 26.142C20.5474 21.9116 23.5 17.6115 23.5 13.2311H19.5ZM17.7226 8.80478C18.8544 9.96925 19.5 11.5604 19.5 13.2311H23.5C23.5 10.5358 22.4599 7.93971 20.5911 6.01691L17.7226 8.80478Z" fill="white" mask="url(#path-1-outside-1_3698_21600)"/>
</g>
<circle cx="13.5" cy="13" r="2" fill="white"/>
<defs>
<filter id="filter0_d_3698_21600" x="0.5" y="0" width="28" height="32" filterUnits="userSpaceOnUse" color-interpolation-filters="sRGB">
<feFlood flood-opacity="0" result="BackgroundImageFix"/>
<feColorMatrix in="SourceAlpha" type="matrix" values="0 0 0 0 0 0 0 0 0 0 0 0 0 0 0 0 0 0 127 0" result="hardAlpha"/>
<feOffset dx="1" dy="1"/>
<feGaussianBlur stdDeviation="2"/>
<feComposite in2="hardAlpha" operator="out"/>
<feColorMatrix type="matrix" values="0 0 0 0 0 0 0 0 0 0 0 0 0 0 0 0 0 0 0.3 0"/>
<feBlend mode="normal" in2="BackgroundImageFix" result="effect1_dropShadow_3698_21600"/>
<feBlend mode="normal" in="SourceGraphic" in2="effect1_dropShadow_3698_21600" result="shape"/>
</filter>
</defs>
</svg>
