<svg width="28" height="33" viewBox="0 0 28 33" fill="none" xmlns="http://www.w3.org/2000/svg">
<g filter="url(#filter0_d_3698_22047)">
<mask id="path-1-outside-1_3698_22047" maskUnits="userSpaceOnUse" x="3" y="3.1814" width="20" height="24" fill="black">
<rect fill="white" x="3" y="3.1814" width="20" height="24"/>
<path fill-rule="evenodd" clip-rule="evenodd" d="M18.6569 7.59224C17.1566 6.0486 15.1217 5.1814 13 5.1814C10.8783 5.1814 8.84344 6.0486 7.34315 7.59224C5.84286 9.13588 5 11.2295 5 13.4125C5 16.813 7.27036 20.5107 11.752 24.5461L12.0622 24.823C12.3225 25.0539 12.6547 25.1811 12.9985 25.1814C13.3422 25.1817 13.6746 25.0551 13.9354 24.8247C18.6246 20.6812 21 16.8907 21 13.4125C21 11.2295 20.1571 9.13588 18.6569 7.59224Z"/>
</mask>
<path fill-rule="evenodd" clip-rule="evenodd" d="M18.6569 7.59224C17.1566 6.0486 15.1217 5.1814 13 5.1814C10.8783 5.1814 8.84344 6.0486 7.34315 7.59224C5.84286 9.13588 5 11.2295 5 13.4125C5 16.813 7.27036 20.5107 11.752 24.5461L12.0622 24.823C12.3225 25.0539 12.6547 25.1811 12.9985 25.1814C13.3422 25.1817 13.6746 25.0551 13.9354 24.8247C18.6246 20.6812 21 16.8907 21 13.4125C21 11.2295 20.1571 9.13588 18.6569 7.59224Z" fill="#E226F2"/>
<path d="M18.6569 7.59224L17.2226 8.98617L18.6569 7.59224ZM7.34315 7.59224L8.77735 8.98617V8.98617L7.34315 7.59224ZM11.752 24.5461L10.4137 26.0324L10.42 26.038L11.752 24.5461ZM12.0622 24.823L10.7302 26.3149L10.735 26.3192L12.0622 24.823ZM12.9985 25.1814L12.9967 27.1814H12.9967L12.9985 25.1814ZM13.9354 24.8247L12.6111 23.3259L12.6109 23.3261L13.9354 24.8247ZM13 7.1814C14.5726 7.1814 16.0928 7.82363 17.2226 8.98617L20.0911 6.19831C18.2204 4.27357 15.6708 3.1814 13 3.1814V7.1814ZM8.77735 8.98617C9.90725 7.82363 11.4274 7.1814 13 7.1814V3.1814C10.3292 3.1814 7.77963 4.27357 5.90894 6.19831L8.77735 8.98617ZM7 13.4125C7 11.7418 7.64558 10.1506 8.77735 8.98617L5.90894 6.1983C4.04013 8.1211 3 10.7172 3 13.4125H7ZM13.0903 23.0598C8.71406 19.1194 7 15.928 7 13.4125H3C3 17.6981 5.82666 21.9021 10.4137 26.0324L13.0903 23.0598ZM13.3941 23.3311L13.084 23.0542L10.42 26.038L10.7302 26.3149L13.3941 23.3311ZM13.0003 23.1814C13.1517 23.1815 13.2892 23.238 13.3893 23.3268L10.735 26.3192C11.3558 26.8698 12.1578 27.1806 12.9967 27.1814L13.0003 23.1814ZM12.6109 23.3261C12.7112 23.2375 12.8489 23.1813 13.0003 23.1814L12.9967 27.1814C13.8355 27.1821 14.6381 26.8728 15.2599 26.3232L12.6109 23.3261ZM19 13.4125C19 15.9886 17.2018 19.2695 12.6111 23.3259L15.2597 26.3234C20.0474 22.093 23 17.7928 23 13.4125H19ZM17.2226 8.98617C18.3544 10.1506 19 11.7418 19 13.4125H23C23 10.7172 21.9599 8.1211 20.0911 6.19831L17.2226 8.98617Z" fill="white" mask="url(#path-1-outside-1_3698_22047)"/>
</g>
<circle cx="13" cy="13.1814" r="2" fill="white"/>
<defs>
<filter id="filter0_d_3698_22047" x="0" y="0.181396" width="28" height="32" filterUnits="userSpaceOnUse" color-interpolation-filters="sRGB">
<feFlood flood-opacity="0" result="BackgroundImageFix"/>
<feColorMatrix in="SourceAlpha" type="matrix" values="0 0 0 0 0 0 0 0 0 0 0 0 0 0 0 0 0 0 127 0" result="hardAlpha"/>
<feOffset dx="1" dy="1"/>
<feGaussianBlur stdDeviation="2"/>
<feComposite in2="hardAlpha" operator="out"/>
<feColorMatrix type="matrix" values="0 0 0 0 0 0 0 0 0 0 0 0 0 0 0 0 0 0 0.3 0"/>
<feBlend mode="normal" in2="BackgroundImageFix" result="effect1_dropShadow_3698_22047"/>
<feBlend mode="normal" in="SourceGraphic" in2="effect1_dropShadow_3698_22047" result="shape"/>
</filter>
</defs>
</svg>
