<svg width="37" height="36" viewBox="0 0 37 36" fill="none" xmlns="http://www.w3.org/2000/svg">
<g clip-path="url(#clip0_2319_19341)">
<path d="M11.6 10.5H7.4C7.16131 10.5 6.93239 10.5948 6.7636 10.7636C6.59482 10.9324 6.5 11.1613 6.5 11.4V24.6C6.5 24.7182 6.52328 24.8352 6.56851 24.9444C6.61374 25.0536 6.68003 25.1528 6.7636 25.2364C6.84718 25.32 6.94639 25.3863 7.05558 25.4315C7.16478 25.4767 7.28181 25.5 7.4 25.5H11.6C11.7182 25.5 11.8352 25.4767 11.9444 25.4315C12.0536 25.3863 12.1528 25.32 12.2364 25.2364C12.32 25.1528 12.3863 25.0536 12.4315 24.9444C12.4767 24.8352 12.5 24.7182 12.5 24.6V11.4C12.5 11.1613 12.4052 10.9324 12.2364 10.7636C12.0676 10.5948 11.8387 10.5 11.6 10.5V10.5ZM29.6 10.5H25.4C25.1613 10.5 24.9324 10.5948 24.7636 10.7636C24.5948 10.9324 24.5 11.1613 24.5 11.4V24.6C24.5 24.7182 24.5233 24.8352 24.5685 24.9444C24.6137 25.0536 24.68 25.1528 24.7636 25.2364C24.8472 25.32 24.9464 25.3863 25.0556 25.4315C25.1648 25.4767 25.2818 25.5 25.4 25.5H29.6C29.7182 25.5 29.8352 25.4767 29.9444 25.4315C30.0536 25.3863 30.1528 25.32 30.2364 25.2364C30.32 25.1528 30.3863 25.0536 30.4315 24.9444C30.4767 24.8352 30.5 24.7182 30.5 24.6V11.4C30.5 11.1613 30.4052 10.9324 30.2364 10.7636C30.0676 10.5948 29.8387 10.5 29.6 10.5V10.5Z" stroke="#DEDEDE" stroke-width="2.25" stroke-linecap="round" stroke-linejoin="round"/>
<path d="M12.5 18H24.5M2 21.6V14.4C2 14.1613 2.09482 13.9324 2.2636 13.7636C2.43239 13.5948 2.66131 13.5 2.9 13.5H5.6C5.83869 13.5 6.06761 13.5948 6.2364 13.7636C6.40518 13.9324 6.5 14.1613 6.5 14.4V21.6C6.5 21.8387 6.40518 22.0676 6.2364 22.2364C6.06761 22.4052 5.83869 22.5 5.6 22.5H2.9C2.66131 22.5 2.43239 22.4052 2.2636 22.2364C2.09482 22.0676 2 21.8387 2 21.6V21.6ZM35 21.6V14.4C35 14.1613 34.9052 13.9324 34.7364 13.7636C34.5676 13.5948 34.3387 13.5 34.1 13.5H31.4C31.1613 13.5 30.9324 13.5948 30.7636 13.7636C30.5948 13.9324 30.5 14.1613 30.5 14.4V21.6C30.5 21.8387 30.5948 22.0676 30.7636 22.2364C30.9324 22.4052 31.1613 22.5 31.4 22.5H34.1C34.3387 22.5 34.5676 22.4052 34.7364 22.2364C34.9052 22.0676 35 21.8387 35 21.6V21.6Z" stroke="#DEDEDE" stroke-width="2.25" stroke-linecap="round" stroke-linejoin="round"/>
</g>
<defs>
<clipPath id="clip0_2319_19341">
<rect width="36" height="36" fill="white" transform="translate(0.5)"/>
</clipPath>
</defs>
</svg>
