<svg width="36" height="36" viewBox="0 0 36 36" fill="none" xmlns="http://www.w3.org/2000/svg">
<path d="M11.1 10.5H6.9C6.66131 10.5 6.43239 10.5948 6.2636 10.7636C6.09482 10.9324 6 11.1613 6 11.4V24.6C6 24.7182 6.02328 24.8352 6.06851 24.9444C6.11374 25.0536 6.18003 25.1528 6.2636 25.2364C6.34718 25.32 6.44639 25.3863 6.55558 25.4315C6.66478 25.4767 6.78181 25.5 6.9 25.5H11.1C11.2182 25.5 11.3352 25.4767 11.4444 25.4315C11.5536 25.3863 11.6528 25.32 11.7364 25.2364C11.82 25.1528 11.8863 25.0536 11.9315 24.9444C11.9767 24.8352 12 24.7182 12 24.6V11.4C12 11.1613 11.9052 10.9324 11.7364 10.7636C11.5676 10.5948 11.3387 10.5 11.1 10.5V10.5ZM29.1 10.5H24.9C24.6613 10.5 24.4324 10.5948 24.2636 10.7636C24.0948 10.9324 24 11.1613 24 11.4V24.6C24 24.7182 24.0233 24.8352 24.0685 24.9444C24.1137 25.0536 24.18 25.1528 24.2636 25.2364C24.3472 25.32 24.4464 25.3863 24.5556 25.4315C24.6648 25.4767 24.7818 25.5 24.9 25.5H29.1C29.2182 25.5 29.3352 25.4767 29.4444 25.4315C29.5536 25.3863 29.6528 25.32 29.7364 25.2364C29.82 25.1528 29.8863 25.0536 29.9315 24.9444C29.9767 24.8352 30 24.7182 30 24.6V11.4C30 11.1613 29.9052 10.9324 29.7364 10.7636C29.5676 10.5948 29.3387 10.5 29.1 10.5V10.5Z" stroke="#DEDEDE" stroke-width="2.25" stroke-linecap="round" stroke-linejoin="round"/>
<path d="M12 18H24M1.5 21.6V14.4C1.5 14.1613 1.59482 13.9324 1.7636 13.7636C1.93239 13.5948 2.16131 13.5 2.4 13.5H5.1C5.33869 13.5 5.56761 13.5948 5.7364 13.7636C5.90518 13.9324 6 14.1613 6 14.4V21.6C6 21.8387 5.90518 22.0676 5.7364 22.2364C5.56761 22.4052 5.33869 22.5 5.1 22.5H2.4C2.16131 22.5 1.93239 22.4052 1.7636 22.2364C1.59482 22.0676 1.5 21.8387 1.5 21.6V21.6ZM34.5 21.6V14.4C34.5 14.1613 34.4052 13.9324 34.2364 13.7636C34.0676 13.5948 33.8387 13.5 33.6 13.5H30.9C30.6613 13.5 30.4324 13.5948 30.2636 13.7636C30.0948 13.9324 30 14.1613 30 14.4V21.6C30 21.8387 30.0948 22.0676 30.2636 22.2364C30.4324 22.4052 30.6613 22.5 30.9 22.5H33.6C33.8387 22.5 34.0676 22.4052 34.2364 22.2364C34.4052 22.0676 34.5 21.8387 34.5 21.6V21.6Z" stroke="#DEDEDE" stroke-width="2.25" stroke-linecap="round" stroke-linejoin="round"/>
</svg>
