<svg width="18" height="18" viewBox="0 0 18 18" fill="none" xmlns="http://www.w3.org/2000/svg">
<path d="M14.25 1.5C14.6478 1.5 15.0294 1.65804 15.3107 1.93934C15.592 2.22064 15.75 2.60218 15.75 3V12C15.75 12.3978 15.592 12.7794 15.3107 13.0607C15.0294 13.342 14.6478 13.5 14.25 13.5H12.75V15C12.75 15.3978 12.592 15.7794 12.3107 16.0607C12.0294 16.342 11.6478 16.5 11.25 16.5H3.75C3.35218 16.5 2.97064 16.342 2.68934 16.0607C2.40804 15.7794 2.25 15.3978 2.25 15V6C2.25 5.60218 2.40804 5.22064 2.68934 4.93934C2.97064 4.65804 3.35218 4.5 3.75 4.5H5.25V3C5.25 2.60218 5.40804 2.22064 5.68934 1.93934C5.97064 1.65804 6.35218 1.5 6.75 1.5H14.25ZM11.25 6H3.75V15H11.25V6ZM7.5 11.25C7.69891 11.25 7.88968 11.329 8.03033 11.4697C8.17098 11.6103 8.25 11.8011 8.25 12C8.25 12.1989 8.17098 12.3897 8.03033 12.5303C7.88968 12.671 7.69891 12.75 7.5 12.75H6C5.80109 12.75 5.61032 12.671 5.46967 12.5303C5.32902 12.3897 5.25 12.1989 5.25 12C5.25 11.8011 5.32902 11.6103 5.46967 11.4697C5.61032 11.329 5.80109 11.25 6 11.25H7.5ZM14.25 3H6.75V4.5H11.25C11.6478 4.5 12.0294 4.65804 12.3107 4.93934C12.592 5.22064 12.75 5.60218 12.75 6V12H14.25V3ZM9 8.25C9.19116 8.25021 9.37502 8.32341 9.51403 8.45464C9.65303 8.58586 9.73668 8.76521 9.74788 8.95605C9.75908 9.14688 9.69699 9.33478 9.5743 9.48137C9.45161 9.62796 9.27757 9.72217 9.08775 9.74475L9 9.75H6C5.80884 9.74979 5.62498 9.67659 5.48597 9.54536C5.34697 9.41414 5.26332 9.23479 5.25212 9.04395C5.24092 8.85312 5.30301 8.66522 5.4257 8.51863C5.54839 8.37204 5.72243 8.27783 5.91225 8.25525L6 8.25H9Z" fill="#41D6B2" stroke="white" stroke-width="0.5"/>
</svg>
