<svg width="52" height="52" viewBox="0 0 52 52" fill="none" xmlns="http://www.w3.org/2000/svg">
<path d="M26 0.5C20.9566 0.5 16.0264 1.99555 11.833 4.79752C7.63952 7.5995 4.37112 11.5821 2.44108 16.2416C0.511048 20.9011 0.00606382 26.0283 0.989987 30.9748C1.97391 35.9213 4.40255 40.465 7.96879 44.0312C11.535 47.5975 16.0787 50.0261 21.0252 51.01C25.9717 51.9939 31.0989 51.489 35.7584 49.5589C40.418 47.6289 44.4005 44.3605 47.2025 40.167C50.0045 35.9736 51.5 31.0434 51.5 26C51.4868 19.241 48.796 12.7627 44.0166 7.98337C39.2373 3.20406 32.759 0.513214 26 0.5ZM26 48.5C21.5499 48.5 17.1998 47.1804 13.4997 44.7081C9.79958 42.2357 6.91569 38.7217 5.21272 34.6104C3.50975 30.499 3.06418 25.975 3.93234 21.6105C4.80051 17.2459 6.94343 13.2368 10.0901 10.0901C13.2368 6.94342 17.2459 4.8005 21.6105 3.93233C25.9751 3.06416 30.4991 3.50974 34.6104 5.21271C38.7217 6.91568 42.2357 9.79956 44.7081 13.4997C47.1804 17.1998 48.5 21.5499 48.5 26C48.4934 31.9653 46.1207 37.6845 41.9026 41.9026C37.6845 46.1207 31.9654 48.4934 26 48.5ZM28.5 39C28.5 39.4945 28.3534 39.9778 28.0787 40.3889C27.804 40.8 27.4135 41.1205 26.9567 41.3097C26.4999 41.4989 25.9972 41.5484 25.5123 41.452C25.0273 41.3555 24.5819 41.1174 24.2322 40.7678C23.8826 40.4181 23.6445 39.9727 23.548 39.4877C23.4516 39.0028 23.5011 38.5001 23.6903 38.0433C23.8795 37.5865 24.2 37.196 24.6111 36.9213C25.0222 36.6466 25.5056 36.5 26 36.5C26.6631 36.5 27.2989 36.7634 27.7678 37.2322C28.2366 37.7011 28.5 38.337 28.5 39ZM34.5 21C34.4971 22.9943 33.7951 24.9245 32.5161 26.4547C31.2371 27.9849 29.4622 29.0182 27.5 29.375V30C27.5 30.3978 27.342 30.7794 27.0607 31.0607C26.7794 31.342 26.3978 31.5 26 31.5C25.6022 31.5 25.2207 31.342 24.9394 31.0607C24.658 30.7794 24.5 30.3978 24.5 30V28C24.5 27.6022 24.658 27.2206 24.9394 26.9393C25.2207 26.658 25.6022 26.5 26 26.5C27.0878 26.5 28.1512 26.1774 29.0556 25.5731C29.9601 24.9687 30.6651 24.1098 31.0813 23.1048C31.4976 22.0998 31.6065 20.9939 31.3943 19.927C31.1821 18.8601 30.6583 17.8801 29.8891 17.1109C29.1199 16.3417 28.1399 15.8179 27.073 15.6057C26.0061 15.3935 24.9002 15.5024 23.8953 15.9187C22.8903 16.3349 22.0313 17.0399 21.4269 17.9444C20.8226 18.8488 20.5 19.9122 20.5 21C20.5 21.3978 20.342 21.7794 20.0607 22.0607C19.7794 22.342 19.3978 22.5 19 22.5C18.6022 22.5 18.2207 22.342 17.9394 22.0607C17.658 21.7794 17.5 21.3978 17.5 21C17.5 18.7457 18.3955 16.5837 19.9896 14.9896C21.5837 13.3955 23.7457 12.5 26 12.5C28.2544 12.5 30.4164 13.3955 32.0104 14.9896C33.6045 16.5837 34.5 18.7457 34.5 21Z" fill="#DEDEDE" stroke="#DEDEDE"/>
</svg>
