<svg width="24" height="24" viewBox="0 0 24 24" fill="none" xmlns="http://www.w3.org/2000/svg">
<g id="Frame 2608708">
<g id="Group 17286">
<path id="Vector" d="M11.9996 1.79993C14.2274 1.79993 16.364 2.68448 17.9393 4.25899C19.5146 5.8335 20.3996 7.96899 20.3996 10.1957C20.3996 13.7434 17.9055 17.6098 12.9818 21.8361C12.708 22.0711 12.3589 22.2002 11.998 22.1999C11.6371 22.1996 11.2882 22.0699 11.0149 21.8343L10.6892 21.5519C5.98349 17.4358 3.59961 13.6642 3.59961 10.1957C3.59961 7.96899 4.48461 5.8335 6.05991 4.25899C7.63522 2.68448 9.77179 1.79993 11.9996 1.79993Z" fill="#444444"/>
<path id="Ellipse 302" d="M15 9.79858C15 11.4554 13.6569 12.7986 12 12.7986C10.3431 12.7986 9 11.4554 9 9.79858C9 8.14173 10.3431 6.79858 12 6.79858C13.6569 6.79858 15 8.14173 15 9.79858Z" fill="white"/>
</g>
</g>
</svg>
