<svg width="25" height="24" viewBox="0 0 25 24" fill="none" xmlns="http://www.w3.org/2000/svg">
<path d="M4.98131 20.5716C4.98131 20.5716 3.55273 20.5716 3.55273 19.143C3.55273 17.7144 4.98131 14.143 12.1242 14.143C19.267 14.143 20.6956 17.7144 20.6956 19.143C20.6956 20.5716 19.267 20.5716 19.267 20.5716H4.98131ZM12.1242 12.0001C13.2608 12.0001 14.3509 11.5486 15.1546 10.7449C15.9583 9.94115 16.4099 8.85107 16.4099 7.71442C16.4099 6.57778 15.9583 5.48769 15.1546 4.68397C14.3509 3.88024 13.2608 3.42871 12.1242 3.42871C10.9875 3.42871 9.89743 3.88024 9.09371 4.68397C8.28998 5.48769 7.83845 6.57778 7.83845 7.71442C7.83845 8.85107 8.28998 9.94115 9.09371 10.7449C9.89743 11.5486 10.9875 12.0001 12.1242 12.0001Z" stroke="#808080" stroke-width="1.28571"/>
</svg>
