<svg width="12" height="14" viewBox="0 0 12 14" fill="none" xmlns="http://www.w3.org/2000/svg">
<path d="M1.6275 1.86238H1.7071L1.73359 1.78732C1.8808 1.37012 2.15379 1.00885 2.51493 0.753312C2.87608 0.497774 3.30759 0.360547 3.75 0.360547C4.19241 0.360547 4.62392 0.497774 4.98507 0.753312C5.34621 1.00885 5.6192 1.37012 5.76641 1.78732L5.7929 1.86238H5.8725H11.25C11.4191 1.86238 11.5812 1.92955 11.7008 2.0491C11.8203 2.16866 11.8875 2.33081 11.8875 2.49988C11.8875 2.66896 11.8203 2.83111 11.7008 2.95067C11.5812 3.07022 11.4191 3.13738 11.25 3.13738H5.8725H5.7929L5.76641 3.21245C5.6192 3.62965 5.34621 3.99092 4.98507 4.24646C4.62392 4.502 4.19241 4.63922 3.75 4.63922C3.30759 4.63922 2.87608 4.502 2.51493 4.24646C2.15379 3.99092 1.8808 3.62965 1.73359 3.21245L1.7071 3.13738H1.6275H0.75C0.580925 3.13738 0.418774 3.07022 0.29922 2.95067C0.179665 2.83111 0.1125 2.66896 0.1125 2.49988C0.1125 2.33081 0.179665 2.16866 0.29922 2.0491C0.418774 1.92955 0.580925 1.86238 0.75 1.86238H1.6275ZM6.1275 6.36239H6.2071L6.23359 6.28732C6.3808 5.87012 6.65379 5.50885 7.01493 5.25331C7.37608 4.99777 7.80759 4.86055 8.25 4.86055C8.69241 4.86055 9.12393 4.99777 9.48507 5.25331C9.84621 5.50885 10.1192 5.87012 10.2664 6.28732L10.2929 6.36239H10.3725H11.25C11.4191 6.36239 11.5812 6.42955 11.7008 6.5491C11.8203 6.66866 11.8875 6.83081 11.8875 6.99989C11.8875 7.16896 11.8203 7.33111 11.7008 7.45066C11.5812 7.57022 11.4191 7.63738 11.25 7.63738H10.3725H10.2929L10.2664 7.71245C10.1192 8.12965 9.84621 8.49092 9.48507 8.74646C9.12393 9.002 8.69241 9.13922 8.25 9.13922C7.80759 9.13922 7.37608 9.002 7.01493 8.74646C6.65379 8.49092 6.3808 8.12965 6.23359 7.71245L6.2071 7.63738H6.1275H0.75C0.580925 7.63738 0.418774 7.57022 0.29922 7.45066C0.179665 7.33111 0.1125 7.16896 0.1125 6.99989C0.1125 6.83081 0.179665 6.66866 0.29922 6.5491C0.418774 6.42955 0.580924 6.36239 0.75 6.36239H6.1275ZM1.6275 10.8624H1.7071L1.73359 10.7873C1.8808 10.3701 2.15379 10.0089 2.51493 9.75331C2.87607 9.49777 3.30759 9.36055 3.75 9.36055C4.19241 9.36055 4.62392 9.49777 4.98507 9.75331C5.34621 10.0089 5.6192 10.3701 5.76641 10.7873L5.7929 10.8624H5.8725H11.25C11.4191 10.8624 11.5812 10.9296 11.7008 11.0491C11.8203 11.1687 11.8875 11.3308 11.8875 11.4999C11.8875 11.669 11.8203 11.8311 11.7008 11.9507C11.5812 12.0702 11.4191 12.1374 11.25 12.1374H5.8725H5.7929L5.76641 12.2125C5.6192 12.6297 5.34621 12.9909 4.98507 13.2465C4.62392 13.502 4.19241 13.6392 3.75 13.6392C3.30759 13.6392 2.87608 13.502 2.51493 13.2465C2.15379 12.9909 1.8808 12.6297 1.73359 12.2125L1.7071 12.1374H1.6275H0.75C0.580924 12.1374 0.418774 12.0702 0.29922 11.9507C0.179665 11.8311 0.1125 11.669 0.1125 11.4999C0.1125 11.3308 0.179665 11.1687 0.29922 11.0491C0.418774 10.9296 0.580924 10.8624 0.75 10.8624H1.6275ZM3.75 1.63738C3.52125 1.63738 3.30187 1.72826 3.14012 1.89001C2.97837 2.05176 2.8875 2.27114 2.8875 2.49988C2.8875 2.72863 2.97837 2.94801 3.14012 3.10976C3.30187 3.27151 3.52125 3.36238 3.75 3.36238C3.97875 3.36238 4.19813 3.27151 4.35988 3.10976C4.52163 2.94801 4.6125 2.72863 4.6125 2.49988C4.6125 2.27114 4.52163 2.05176 4.35988 1.89001C4.19813 1.72826 3.97875 1.63738 3.75 1.63738ZM8.25 6.13738C8.02125 6.13738 7.80187 6.22825 7.64012 6.39001C7.47837 6.55175 7.3875 6.77114 7.3875 6.99989C7.3875 7.22863 7.47837 7.44801 7.64012 7.60976C7.80187 7.77151 8.02125 7.86239 8.25 7.86239C8.47875 7.86239 8.69813 7.77151 8.85988 7.60976C9.02163 7.44801 9.1125 7.22863 9.1125 6.99989C9.1125 6.77114 9.02163 6.55175 8.85988 6.39C8.69813 6.22825 8.47875 6.13738 8.25 6.13738ZM3.75 10.6374C3.52125 10.6374 3.30187 10.7283 3.14012 10.89C2.97837 11.0518 2.8875 11.2711 2.8875 11.4999C2.8875 11.7286 2.97837 11.948 3.14012 12.1098C3.30187 12.2715 3.52125 12.3624 3.75 12.3624C3.97875 12.3624 4.19813 12.2715 4.35988 12.1098C4.52163 11.948 4.6125 11.7286 4.6125 11.4999C4.6125 11.2711 4.52163 11.0518 4.35988 10.89C4.19813 10.7283 3.97875 10.6374 3.75 10.6374Z" fill="#444444" stroke="white" stroke-width="0.225"/>
</svg>
