<svg width="28" height="33" viewBox="0 0 28 33" fill="none" xmlns="http://www.w3.org/2000/svg">
<g filter="url(#filter0_d_3698_21509)">
<mask id="path-1-outside-1_3698_21509" maskUnits="userSpaceOnUse" x="3" y="3.6499" width="20" height="24" fill="black">
<rect fill="white" x="3" y="3.6499" width="20" height="24"/>
<path fill-rule="evenodd" clip-rule="evenodd" d="M18.6569 8.06074C17.1566 6.51711 15.1217 5.6499 13 5.6499C10.8783 5.6499 8.84344 6.51711 7.34315 8.06074C5.84286 9.60438 5 11.698 5 13.881C5 17.2815 7.27036 20.9792 11.752 25.0146L12.0622 25.2915C12.3225 25.5224 12.6547 25.6496 12.9985 25.6499C13.3422 25.6502 13.6746 25.5236 13.9354 25.2932C18.6246 21.1498 21 17.3592 21 13.881C21 11.698 20.1571 9.60438 18.6569 8.06074Z"/>
</mask>
<path fill-rule="evenodd" clip-rule="evenodd" d="M18.6569 8.06074C17.1566 6.51711 15.1217 5.6499 13 5.6499C10.8783 5.6499 8.84344 6.51711 7.34315 8.06074C5.84286 9.60438 5 11.698 5 13.881C5 17.2815 7.27036 20.9792 11.752 25.0146L12.0622 25.2915C12.3225 25.5224 12.6547 25.6496 12.9985 25.6499C13.3422 25.6502 13.6746 25.5236 13.9354 25.2932C18.6246 21.1498 21 17.3592 21 13.881C21 11.698 20.1571 9.60438 18.6569 8.06074Z" fill="#002994"/>
<path d="M18.6569 8.06074L17.2226 9.45468L18.6569 8.06074ZM7.34315 8.06074L8.77735 9.45468V9.45468L7.34315 8.06074ZM11.752 25.0146L10.4137 26.5009L10.42 26.5065L11.752 25.0146ZM12.0622 25.2915L10.7302 26.7834L10.735 26.7877L12.0622 25.2915ZM12.9985 25.6499L12.9967 27.6499H12.9967L12.9985 25.6499ZM13.9354 25.2932L12.6111 23.7944L12.6109 23.7946L13.9354 25.2932ZM13 7.6499C14.5726 7.6499 16.0928 8.29214 17.2226 9.45468L20.0911 6.66681C18.2204 4.74208 15.6708 3.6499 13 3.6499V7.6499ZM8.77735 9.45468C9.90725 8.29214 11.4274 7.6499 13 7.6499V3.6499C10.3292 3.6499 7.77963 4.74208 5.90894 6.66681L8.77735 9.45468ZM7 13.881C7 12.2103 7.64558 10.6192 8.77735 9.45468L5.90894 6.66681C4.04013 8.58961 3 11.1857 3 13.881H7ZM13.0903 23.5283C8.71406 19.5879 7 16.3965 7 13.881H3C3 18.1666 5.82666 22.3706 10.4137 26.5009L13.0903 23.5283ZM13.3941 23.7996L13.084 23.5227L10.42 26.5065L10.7302 26.7834L13.3941 23.7996ZM13.0003 23.6499C13.1517 23.65 13.2892 23.7065 13.3893 23.7953L10.735 26.7877C11.3558 27.3383 12.1578 27.6491 12.9967 27.6499L13.0003 23.6499ZM12.6109 23.7946C12.7112 23.706 12.8489 23.6498 13.0003 23.6499L12.9967 27.6499C13.8355 27.6507 14.6381 27.3413 15.2599 26.7917L12.6109 23.7946ZM19 13.881C19 16.4571 17.2018 19.738 12.6111 23.7944L15.2597 26.7919C20.0474 22.5615 23 18.2614 23 13.881H19ZM17.2226 9.45468C18.3544 10.6192 19 12.2103 19 13.881H23C23 11.1857 21.9599 8.58961 20.0911 6.66681L17.2226 9.45468Z" fill="white" mask="url(#path-1-outside-1_3698_21509)"/>
</g>
<circle cx="13" cy="13.6499" r="2" fill="white"/>
<defs>
<filter id="filter0_d_3698_21509" x="0" y="0.649902" width="28" height="32" filterUnits="userSpaceOnUse" color-interpolation-filters="sRGB">
<feFlood flood-opacity="0" result="BackgroundImageFix"/>
<feColorMatrix in="SourceAlpha" type="matrix" values="0 0 0 0 0 0 0 0 0 0 0 0 0 0 0 0 0 0 127 0" result="hardAlpha"/>
<feOffset dx="1" dy="1"/>
<feGaussianBlur stdDeviation="2"/>
<feComposite in2="hardAlpha" operator="out"/>
<feColorMatrix type="matrix" values="0 0 0 0 0 0 0 0 0 0 0 0 0 0 0 0 0 0 0.3 0"/>
<feBlend mode="normal" in2="BackgroundImageFix" result="effect1_dropShadow_3698_21509"/>
<feBlend mode="normal" in="SourceGraphic" in2="effect1_dropShadow_3698_21509" result="shape"/>
</filter>
</defs>
</svg>
