<svg width="21" height="21" viewBox="0 0 21 21" fill="none" xmlns="http://www.w3.org/2000/svg">
<path d="M10.3984 2.08057C12.255 2.08057 14.0354 2.81769 15.3482 4.12978C16.6609 5.44187 17.3984 7.22145 17.3984 9.07703C17.3984 12.0335 15.32 15.2554 11.2169 18.7774C10.9888 18.9732 10.6979 19.0808 10.3971 19.0806C10.0963 19.0803 9.80563 18.9722 9.57782 18.7759L9.30644 18.5405C5.385 15.1105 3.39844 11.9675 3.39844 9.07703C3.39844 7.22145 4.13594 5.44187 5.44869 4.12978C6.76144 2.81769 8.54192 2.08057 10.3984 2.08057Z" fill="#444444"/>
<path d="M12.8984 8.74622C12.8984 10.1269 11.7791 11.2462 10.3984 11.2462C9.01773 11.2462 7.89844 10.1269 7.89844 8.74622C7.89844 7.3655 9.01773 6.24622 10.3984 6.24622C11.7791 6.24622 12.8984 7.3655 12.8984 8.74622Z" fill="white"/>
</svg>
