<svg width="65" height="65" viewBox="0 0 65 65" fill="none" xmlns="http://www.w3.org/2000/svg">
<path d="M32.3984 4.58057C16.9359 4.58057 4.39844 17.1181 4.39844 32.5806C4.39844 48.0431 16.9359 60.5806 32.3984 60.5806C47.8609 60.5806 60.3984 48.0431 60.3984 32.5806C60.3984 17.1181 47.8609 4.58057 32.3984 4.58057ZM32.3984 55.8306C19.5609 55.8306 9.14844 45.4181 9.14844 32.5806C9.14844 19.7431 19.5609 9.33057 32.3984 9.33057C45.2359 9.33057 55.6484 19.7431 55.6484 32.5806C55.6484 45.4181 45.2359 55.8306 32.3984 55.8306Z" fill="#DEDEDE"/>
<path d="M29.3984 43.5806C29.3984 44.3762 29.7145 45.1393 30.2771 45.7019C30.8397 46.2645 31.6028 46.5806 32.3984 46.5806C33.1941 46.5806 33.9571 46.2645 34.5198 45.7019C35.0824 45.1393 35.3984 44.3762 35.3984 43.5806C35.3984 42.7849 35.0824 42.0219 34.5198 41.4592C33.9571 40.8966 33.1941 40.5806 32.3984 40.5806C31.6028 40.5806 30.8397 40.8966 30.2771 41.4592C29.7145 42.0219 29.3984 42.7849 29.3984 43.5806ZM30.8984 36.5806H33.8984C34.1734 36.5806 34.3984 36.3556 34.3984 36.0806V19.0806C34.3984 18.8056 34.1734 18.5806 33.8984 18.5806H30.8984C30.6234 18.5806 30.3984 18.8056 30.3984 19.0806V36.0806C30.3984 36.3556 30.6234 36.5806 30.8984 36.5806Z" fill="#DEDEDE"/>
</svg>
