<svg width="29" height="33" viewBox="0 0 29 33" fill="none" xmlns="http://www.w3.org/2000/svg">
<g filter="url(#filter0_d_3698_22052)">
<mask id="path-1-outside-1_3698_22052" maskUnits="userSpaceOnUse" x="3.5" y="3.38086" width="20" height="24" fill="black">
<rect fill="white" x="3.5" y="3.38086" width="20" height="24"/>
<path fill-rule="evenodd" clip-rule="evenodd" d="M19.1569 7.7917C17.6566 6.24807 15.6217 5.38086 13.5 5.38086C11.3783 5.38086 9.34344 6.24807 7.84315 7.7917C6.34286 9.33534 5.5 11.429 5.5 13.612C5.5 17.0125 7.77036 20.7102 12.252 24.7455L12.5622 25.0224C12.8225 25.2534 13.1547 25.3805 13.4985 25.3809C13.8422 25.3812 14.1746 25.2546 14.4354 25.0241C19.1246 20.8807 21.5 17.0902 21.5 13.612C21.5 11.429 20.6571 9.33534 19.1569 7.7917Z"/>
</mask>
<path fill-rule="evenodd" clip-rule="evenodd" d="M19.1569 7.7917C17.6566 6.24807 15.6217 5.38086 13.5 5.38086C11.3783 5.38086 9.34344 6.24807 7.84315 7.7917C6.34286 9.33534 5.5 11.429 5.5 13.612C5.5 17.0125 7.77036 20.7102 12.252 24.7455L12.5622 25.0224C12.8225 25.2534 13.1547 25.3805 13.4985 25.3809C13.8422 25.3812 14.1746 25.2546 14.4354 25.0241C19.1246 20.8807 21.5 17.0902 21.5 13.612C21.5 11.429 20.6571 9.33534 19.1569 7.7917Z" fill="#A395FB"/>
<path d="M19.1569 7.7917L17.7226 9.18564L19.1569 7.7917ZM7.84315 7.7917L9.27735 9.18564V9.18564L7.84315 7.7917ZM12.252 24.7455L10.9137 26.2318L10.92 26.2375L12.252 24.7455ZM12.5622 25.0224L11.2302 26.5144L11.235 26.5187L12.5622 25.0224ZM13.4985 25.3809L13.4967 27.3809H13.4967L13.4985 25.3809ZM14.4354 25.0241L13.1111 23.5254L13.1109 23.5256L14.4354 25.0241ZM13.5 7.38086C15.0726 7.38086 16.5928 8.0231 17.7226 9.18564L20.5911 6.39777C18.7204 4.47303 16.1708 3.38086 13.5 3.38086V7.38086ZM9.27735 9.18564C10.4072 8.0231 11.9274 7.38086 13.5 7.38086V3.38086C10.8292 3.38086 8.27963 4.47303 6.40894 6.39777L9.27735 9.18564ZM7.5 13.612C7.5 11.9413 8.14558 10.3501 9.27735 9.18564L6.40894 6.39777C4.54013 8.32057 3.5 10.9166 3.5 13.612H7.5ZM13.5903 23.2593C9.21406 19.3188 7.5 16.1274 7.5 13.612H3.5C3.5 17.8976 6.32666 22.1015 10.9137 26.2318L13.5903 23.2593ZM13.8941 23.5305L13.584 23.2536L10.92 26.2375L11.2302 26.5144L13.8941 23.5305ZM13.5003 23.3809C13.6517 23.381 13.7892 23.4375 13.8893 23.5262L11.235 26.5187C11.8558 27.0693 12.6578 27.3801 13.4967 27.3809L13.5003 23.3809ZM13.1109 23.5256C13.2112 23.4369 13.3489 23.3807 13.5003 23.3809L13.4967 27.3809C14.3355 27.3816 15.1381 27.0723 15.7599 26.5227L13.1109 23.5256ZM19.5 13.612C19.5 16.188 17.7018 19.469 13.1111 23.5254L15.7597 26.5229C20.5474 22.2924 23.5 17.9923 23.5 13.612H19.5ZM17.7226 9.18564C18.8544 10.3501 19.5 11.9413 19.5 13.612H23.5C23.5 10.9166 22.4599 8.32057 20.5911 6.39777L17.7226 9.18564Z" fill="white" mask="url(#path-1-outside-1_3698_22052)"/>
</g>
<circle cx="13.5" cy="13.3809" r="2" fill="white"/>
<defs>
<filter id="filter0_d_3698_22052" x="0.5" y="0.380859" width="28" height="32" filterUnits="userSpaceOnUse" color-interpolation-filters="sRGB">
<feFlood flood-opacity="0" result="BackgroundImageFix"/>
<feColorMatrix in="SourceAlpha" type="matrix" values="0 0 0 0 0 0 0 0 0 0 0 0 0 0 0 0 0 0 127 0" result="hardAlpha"/>
<feOffset dx="1" dy="1"/>
<feGaussianBlur stdDeviation="2"/>
<feComposite in2="hardAlpha" operator="out"/>
<feColorMatrix type="matrix" values="0 0 0 0 0 0 0 0 0 0 0 0 0 0 0 0 0 0 0.3 0"/>
<feBlend mode="normal" in2="BackgroundImageFix" result="effect1_dropShadow_3698_22052"/>
<feBlend mode="normal" in="SourceGraphic" in2="effect1_dropShadow_3698_22052" result="shape"/>
</filter>
</defs>
</svg>
