<svg width="28" height="33" viewBox="0 0 28 33" fill="none" xmlns="http://www.w3.org/2000/svg">
<g filter="url(#filter0_d_3698_21628)">
<mask id="path-1-outside-1_3698_21628" maskUnits="userSpaceOnUse" x="3" y="3.8999" width="20" height="24" fill="black">
<rect fill="white" x="3" y="3.8999" width="20" height="24"/>
<path fill-rule="evenodd" clip-rule="evenodd" d="M18.6569 8.31074C17.1566 6.76711 15.1217 5.8999 13 5.8999C10.8783 5.8999 8.84344 6.76711 7.34315 8.31074C5.84286 9.85438 5 11.948 5 14.131C5 17.5315 7.27036 21.2292 11.752 25.2646L12.0622 25.5415C12.3225 25.7724 12.6547 25.8996 12.9985 25.8999C13.3422 25.9002 13.6746 25.7736 13.9354 25.5432C18.6246 21.3998 21 17.6092 21 14.131C21 11.948 20.1571 9.85438 18.6569 8.31074Z"/>
</mask>
<path fill-rule="evenodd" clip-rule="evenodd" d="M18.6569 8.31074C17.1566 6.76711 15.1217 5.8999 13 5.8999C10.8783 5.8999 8.84344 6.76711 7.34315 8.31074C5.84286 9.85438 5 11.948 5 14.131C5 17.5315 7.27036 21.2292 11.752 25.2646L12.0622 25.5415C12.3225 25.7724 12.6547 25.8996 12.9985 25.8999C13.3422 25.9002 13.6746 25.7736 13.9354 25.5432C18.6246 21.3998 21 17.6092 21 14.131C21 11.948 20.1571 9.85438 18.6569 8.31074Z" fill="#444444"/>
<path d="M18.6569 8.31074L17.2226 9.70468L18.6569 8.31074ZM7.34315 8.31074L8.77735 9.70468V9.70468L7.34315 8.31074ZM11.752 25.2646L10.4137 26.7509L10.42 26.7565L11.752 25.2646ZM12.0622 25.5415L10.7302 27.0334L10.735 27.0377L12.0622 25.5415ZM12.9985 25.8999L12.9967 27.8999H12.9967L12.9985 25.8999ZM13.9354 25.5432L12.6111 24.0444L12.6109 24.0446L13.9354 25.5432ZM13 7.8999C14.5726 7.8999 16.0928 8.54214 17.2226 9.70468L20.0911 6.91681C18.2204 4.99208 15.6708 3.8999 13 3.8999V7.8999ZM8.77735 9.70468C9.90725 8.54214 11.4274 7.8999 13 7.8999V3.8999C10.3292 3.8999 7.77963 4.99208 5.90894 6.91681L8.77735 9.70468ZM7 14.131C7 12.4603 7.64558 10.8692 8.77735 9.70468L5.90894 6.91681C4.04013 8.83961 3 11.4357 3 14.131H7ZM13.0903 23.7783C8.71406 19.8379 7 16.6465 7 14.131H3C3 18.4166 5.82666 22.6206 10.4137 26.7509L13.0903 23.7783ZM13.3941 24.0496L13.084 23.7727L10.42 26.7565L10.7302 27.0334L13.3941 24.0496ZM13.0003 23.8999C13.1517 23.9 13.2892 23.9565 13.3893 24.0453L10.735 27.0377C11.3558 27.5883 12.1578 27.8991 12.9967 27.8999L13.0003 23.8999ZM12.6109 24.0446C12.7112 23.956 12.8489 23.8998 13.0003 23.8999L12.9967 27.8999C13.8355 27.9007 14.6381 27.5913 15.2599 27.0417L12.6109 24.0446ZM19 14.131C19 16.7071 17.2018 19.988 12.6111 24.0444L15.2597 27.0419C20.0474 22.8115 23 18.5114 23 14.131H19ZM17.2226 9.70468C18.3544 10.8692 19 12.4603 19 14.131H23C23 11.4357 21.9599 8.83961 20.0911 6.91681L17.2226 9.70468Z" fill="white" mask="url(#path-1-outside-1_3698_21628)"/>
</g>
<circle cx="13" cy="13.8999" r="2" fill="white"/>
<defs>
<filter id="filter0_d_3698_21628" x="0" y="0.899902" width="28" height="32" filterUnits="userSpaceOnUse" color-interpolation-filters="sRGB">
<feFlood flood-opacity="0" result="BackgroundImageFix"/>
<feColorMatrix in="SourceAlpha" type="matrix" values="0 0 0 0 0 0 0 0 0 0 0 0 0 0 0 0 0 0 127 0" result="hardAlpha"/>
<feOffset dx="1" dy="1"/>
<feGaussianBlur stdDeviation="2"/>
<feComposite in2="hardAlpha" operator="out"/>
<feColorMatrix type="matrix" values="0 0 0 0 0 0 0 0 0 0 0 0 0 0 0 0 0 0 0.3 0"/>
<feBlend mode="normal" in2="BackgroundImageFix" result="effect1_dropShadow_3698_21628"/>
<feBlend mode="normal" in="SourceGraphic" in2="effect1_dropShadow_3698_21628" result="shape"/>
</filter>
</defs>
</svg>
