<svg width="36" height="36" viewBox="0 0 36 36" fill="none" xmlns="http://www.w3.org/2000/svg">
<g clip-path="url(#clip0_387_2498)">
<path d="M28 29.9987H16V21.999H14V29.9987H8V21.999H6V29.9987C6 30.5291 6.21071 31.0378 6.58579 31.4129C6.96086 31.7879 7.46957 31.9986 8 31.9986H28C28.5304 31.9986 29.0391 31.7879 29.4142 31.4129C29.7893 31.0378 30 30.5291 30 29.9987V21.999H28V29.9987Z" fill="#DEDEDE"/>
<path d="M33.7881 13.2701L29.7081 5.11045C29.5425 4.77725 29.2872 4.49684 28.971 4.30076C28.6548 4.10467 28.2901 4.00069 27.9181 4.00049H8.07806C7.70598 4.00069 7.34133 4.10467 7.02511 4.30076C6.70889 4.49684 6.45364 4.77725 6.28806 5.11045L2.20806 13.2701C2.06876 13.5496 1.99684 13.8578 1.99806 14.1701V17.25C1.99715 17.7173 2.1599 18.1701 2.45806 18.5299C2.89872 19.035 3.44296 19.4394 4.0538 19.7154C4.66463 19.9915 5.32774 20.1329 5.99806 20.1299C7.09183 20.1316 8.15224 19.7534 8.99806 19.0599C9.84387 19.7538 10.9041 20.133 11.9981 20.133C13.0921 20.133 14.1523 19.7538 14.9981 19.0599C15.8439 19.7538 16.9041 20.133 17.9981 20.133C19.0921 20.133 20.1523 19.7538 20.9981 19.0599C21.8439 19.7538 22.9041 20.133 23.9981 20.133C25.0921 20.133 26.1523 19.7538 26.9981 19.0599C27.9422 19.8351 29.1502 20.2141 30.368 20.1171C31.5857 20.0201 32.7185 19.4548 33.5281 18.5399C33.8298 18.1815 33.9962 17.7285 33.9981 17.26V14.1701C33.9993 13.8578 33.9274 13.5496 33.7881 13.2701ZM29.9981 18.1299C29.5709 18.1289 29.1502 18.0259 28.771 17.8293C28.3918 17.6328 28.0651 17.3484 27.8181 17L26.9981 15.88L26.1881 17C25.9363 17.3431 25.6074 17.6221 25.2278 17.8144C24.8482 18.0067 24.4286 18.1069 24.0031 18.1069C23.5775 18.1069 23.158 18.0067 22.7784 17.8144C22.3988 17.6221 22.0698 17.3431 21.8181 17L20.9981 15.88L20.1881 17C19.9363 17.3431 19.6074 17.6221 19.2278 17.8144C18.8482 18.0067 18.4286 18.1069 18.0031 18.1069C17.5775 18.1069 17.158 18.0067 16.7784 17.8144C16.3988 17.6221 16.0698 17.3431 15.8181 17L14.9981 15.88L14.1881 17C13.9363 17.3431 13.6074 17.6221 13.2278 17.8144C12.8482 18.0067 12.4286 18.1069 12.0031 18.1069C11.5775 18.1069 11.158 18.0067 10.7784 17.8144C10.3988 17.6221 10.0698 17.3431 9.81806 17L8.99806 15.88L8.17806 17C7.93103 17.3484 7.6043 17.6328 7.22509 17.8293C6.84588 18.0259 6.42519 18.1289 5.99806 18.1299C5.6212 18.1345 5.24772 18.0584 4.90275 17.9066C4.55777 17.7548 4.2493 17.5309 3.99806 17.25V14.1701L8.07806 6.00041H27.9181L31.9981 14.1601V17.22C31.7483 17.5049 31.4408 17.7333 31.096 17.8902C30.7512 18.0471 30.3769 18.1288 29.9981 18.1299Z" fill="#DEDEDE"/>
</g>
<defs>
<clipPath id="clip0_387_2498">
<rect width="36" height="35.9986" fill="white"/>
</clipPath>
</defs>
</svg>
