<svg width="37" height="36" viewBox="0 0 37 36" fill="none" xmlns="http://www.w3.org/2000/svg">
<g clip-path="url(#clip0_2319_19338)">
<path d="M28.5 29.9999H16.5V21.9999H14.5V29.9999H8.5V21.9999H6.5V29.9999C6.5 30.5303 6.71071 31.039 7.08579 31.4141C7.46086 31.7892 7.96957 31.9999 8.5 31.9999H28.5C29.0304 31.9999 29.5391 31.7892 29.9142 31.4141C30.2893 31.039 30.5 30.5303 30.5 29.9999V21.9999H28.5V29.9999Z" fill="#DEDEDE"/>
<path d="M34.2881 13.2705L30.2081 5.11049C30.0425 4.77728 29.7872 4.49686 29.471 4.30077C29.1548 4.10468 28.7901 4.00069 28.4181 4.00049H8.57806C8.20598 4.00069 7.84133 4.10468 7.52511 4.30077C7.20889 4.49686 6.95364 4.77728 6.78806 5.11049L2.70806 13.2705C2.56876 13.55 2.49684 13.8582 2.49806 14.1705V17.2505C2.49715 17.7178 2.6599 18.1707 2.95806 18.5305C3.39872 19.0356 3.94296 19.44 4.5538 19.7161C5.16463 19.9921 5.82774 20.1335 6.49806 20.1305C7.59183 20.1322 8.65224 19.754 9.49806 19.0605C10.3439 19.7544 11.4041 20.1336 12.4981 20.1336C13.5921 20.1336 14.6523 19.7544 15.4981 19.0605C16.3439 19.7544 17.4041 20.1336 18.4981 20.1336C19.5921 20.1336 20.6523 19.7544 21.4981 19.0605C22.3439 19.7544 23.4041 20.1336 24.4981 20.1336C25.5921 20.1336 26.6523 19.7544 27.4981 19.0605C28.4422 19.8357 29.6502 20.2147 30.868 20.1177C32.0857 20.0207 33.2185 19.4554 34.0281 18.5405C34.3298 18.182 34.4962 17.729 34.4981 17.2605V14.1705C34.4993 13.8582 34.4274 13.55 34.2881 13.2705ZM30.4981 18.1305C30.0709 18.1295 29.6502 18.0264 29.271 17.8298C28.8918 17.6333 28.5651 17.3489 28.3181 17.0005L27.4981 15.8805L26.6881 17.0005C26.4363 17.3436 26.1074 17.6226 25.7278 17.8149C25.3482 18.0072 24.9286 18.1074 24.5031 18.1074C24.0775 18.1074 23.658 18.0072 23.2784 17.8149C22.8988 17.6226 22.5698 17.3436 22.3181 17.0005L21.4981 15.8805L20.6881 17.0005C20.4363 17.3436 20.1074 17.6226 19.7278 17.8149C19.3482 18.0072 18.9286 18.1074 18.5031 18.1074C18.0775 18.1074 17.658 18.0072 17.2784 17.8149C16.8988 17.6226 16.5698 17.3436 16.3181 17.0005L15.4981 15.8805L14.6881 17.0005C14.4363 17.3436 14.1074 17.6226 13.7278 17.8149C13.3482 18.0072 12.9286 18.1074 12.5031 18.1074C12.0775 18.1074 11.658 18.0072 11.2784 17.8149C10.8988 17.6226 10.5698 17.3436 10.3181 17.0005L9.49806 15.8805L8.67806 17.0005C8.43103 17.3489 8.1043 17.6333 7.72509 17.8298C7.34588 18.0264 6.92519 18.1295 6.49806 18.1305C6.1212 18.1351 5.74772 18.0589 5.40275 17.9071C5.05777 17.7553 4.7493 17.5314 4.49806 17.2505V14.1705L8.57806 6.00049H28.4181L32.4981 14.1605V17.2205C32.2483 17.5054 31.9408 17.7339 31.596 17.8908C31.2512 18.0477 30.8769 18.1294 30.4981 18.1305Z" fill="#DEDEDE"/>
</g>
<defs>
<clipPath id="clip0_2319_19338">
<rect width="36" height="36" fill="white" transform="translate(0.5)"/>
</clipPath>
</defs>
</svg>
