<svg width="25" height="24" viewBox="0 0 25 24" fill="none" xmlns="http://www.w3.org/2000/svg">
<path d="M21.1869 5.05803C20.7066 4.57756 20.1364 4.19641 19.5088 3.93637C18.8812 3.67633 18.2086 3.54248 17.5292 3.54248C16.8499 3.54248 16.1772 3.67633 15.5496 3.93637C14.922 4.19641 14.3518 4.57756 13.8716 5.05803L12.8749 6.05472L11.8782 5.05803C10.9081 4.08796 9.59244 3.54298 8.22055 3.54298C6.84867 3.54298 5.53297 4.08796 4.5629 5.05803C3.59283 6.0281 3.04785 7.3438 3.04785 8.71569C3.04785 10.0876 3.59283 11.4033 4.5629 12.3733L5.55959 13.37L12.8749 20.6853L20.1902 13.37L21.1869 12.3733C21.6674 11.8931 22.0485 11.3229 22.3086 10.6953C22.5686 10.0677 22.7024 9.39502 22.7024 8.71569C22.7024 8.03635 22.5686 7.36368 22.3086 6.73608C22.0485 6.10849 21.6674 5.53828 21.1869 5.05803Z" stroke="#808080" stroke-width="1.28571" stroke-linecap="round" stroke-linejoin="round"/>
</svg>
