<svg width="36" height="37" viewBox="0 0 36 37" fill="none" xmlns="http://www.w3.org/2000/svg">
<g clip-path="url(#clip0_387_2598)">
<path d="M28 30.9972H16V22.9976H14V30.9972H8V22.9976H6V30.9972C6 31.5277 6.21071 32.0364 6.58579 32.4114C6.96086 32.7865 7.46957 32.9972 8 32.9972H28C28.5304 32.9972 29.0391 32.7865 29.4142 32.4114C29.7893 32.0364 30 31.5277 30 30.9972V22.9976H28V30.9972Z" fill="#FF6161"/>
<path d="M33.7881 14.2687L29.7081 6.10898C29.5425 5.77578 29.2872 5.49538 28.971 5.29929C28.6548 5.10321 28.2901 4.99922 27.9181 4.99902H8.07806C7.70598 4.99922 7.34133 5.10321 7.02511 5.29929C6.70889 5.49538 6.45364 5.77578 6.28806 6.10898L2.20806 14.2687C2.06876 14.5481 1.99684 14.8564 1.99806 15.1686V18.2485C1.99715 18.7158 2.1599 19.1687 2.45806 19.5285C2.89872 20.0336 3.44296 20.4379 4.0538 20.714C4.66463 20.9901 5.32774 21.1314 5.99806 21.1284C7.09183 21.1301 8.15224 20.7519 8.99806 20.0584C9.84387 20.7523 10.9041 21.1315 11.9981 21.1315C13.0921 21.1315 14.1523 20.7523 14.9981 20.0584C15.8439 20.7523 16.9041 21.1315 17.9981 21.1315C19.0921 21.1315 20.1523 20.7523 20.9981 20.0584C21.8439 20.7523 22.9041 21.1315 23.9981 21.1315C25.0921 21.1315 26.1523 20.7523 26.9981 20.0584C27.9422 20.8336 29.1502 21.2126 30.368 21.1156C31.5857 21.0186 32.7185 20.4533 33.5281 19.5385C33.8298 19.18 33.9962 18.727 33.9981 18.2585V15.1686C33.9993 14.8564 33.9274 14.5481 33.7881 14.2687ZM29.9981 19.1285C29.5709 19.1275 29.1502 19.0244 28.771 18.8278C28.3918 18.6313 28.0651 18.347 27.8181 17.9985L26.9981 16.8786L26.1881 17.9985C25.9363 18.3416 25.6074 18.6206 25.2278 18.8129C24.8482 19.0052 24.4286 19.1054 24.0031 19.1054C23.5775 19.1054 23.158 19.0052 22.7784 18.8129C22.3988 18.6206 22.0698 18.3416 21.8181 17.9985L20.9981 16.8786L20.1881 17.9985C19.9363 18.3416 19.6074 18.6206 19.2278 18.8129C18.8482 19.0052 18.4286 19.1054 18.0031 19.1054C17.5775 19.1054 17.158 19.0052 16.7784 18.8129C16.3988 18.6206 16.0698 18.3416 15.8181 17.9985L14.9981 16.8786L14.1881 17.9985C13.9363 18.3416 13.6074 18.6206 13.2278 18.8129C12.8482 19.0052 12.4286 19.1054 12.0031 19.1054C11.5775 19.1054 11.158 19.0052 10.7784 18.8129C10.3988 18.6206 10.0698 18.3416 9.81806 17.9985L8.99806 16.8786L8.17806 17.9985C7.93103 18.347 7.6043 18.6313 7.22509 18.8278C6.84588 19.0244 6.42519 19.1275 5.99806 19.1285C5.6212 19.1331 5.24772 19.0569 4.90275 18.9051C4.55777 18.7533 4.2493 18.5294 3.99806 18.2485V15.1686L8.07806 6.99895H27.9181L31.9981 15.1586V18.2185C31.7483 18.5034 31.4408 18.7319 31.096 18.8888C30.7512 19.0457 30.3769 19.1274 29.9981 19.1285Z" fill="#FF6161"/>
</g>
<defs>
<clipPath id="clip0_387_2598">
<rect width="36" height="35.9986" fill="white" transform="translate(0 0.998535)"/>
</clipPath>
</defs>
</svg>
