<svg width="238" height="60" viewBox="0 0 238 60" fill="none" xmlns="http://www.w3.org/2000/svg">
<rect y="8" width="238" height="52" rx="8" fill="#1A1A1A"/>
<path d="M14.2539 23.5898C14.2539 24.168 14.3711 24.7422 14.6055 25.3125C14.8438 25.8828 15.1719 26.3926 15.5898 26.8418C16.0117 27.291 16.4883 27.6289 17.0195 27.8555L16.4102 28.7227C15.7969 28.4531 15.2539 28.0449 14.7812 27.498C14.3086 26.9512 13.9492 26.3242 13.7031 25.6172C13.457 26.375 13.0977 27.0527 12.625 27.6504C12.1523 28.248 11.6133 28.6953 11.0078 28.9922L10.3633 28.1133C10.8828 27.8711 11.3516 27.5098 11.7695 27.0293C12.1914 26.5449 12.5215 26 12.7598 25.3945C13.002 24.7891 13.125 24.1875 13.1289 23.5898V22.4766H10.7266V21.5508H16.6445V22.4766H14.2539V23.5898ZM17.9688 20.4961H19.082V30.9961H17.9688V20.4961ZM29.5117 30.9961H28.3984V28.1133H22.3984V27.2344H29.5117V30.9961ZM20.9102 23.6133C20.9102 23.1289 21.0273 22.6953 21.2617 22.3125C21.5 21.9258 21.8281 21.625 22.2461 21.4102C22.6641 21.1914 23.1328 21.082 23.6523 21.082C24.0977 21.082 24.5059 21.1621 24.877 21.3223C25.252 21.4785 25.5625 21.7031 25.8086 21.9961H28.3984V20.4961H29.5117V26.6836H28.3984V25.2422H25.8086C25.5586 25.5352 25.2461 25.7617 24.8711 25.9219C24.5 26.0781 24.0938 26.1562 23.6523 26.1562C23.1328 26.1562 22.6641 26.0488 22.2461 25.834C21.8281 25.6152 21.5 25.3125 21.2617 24.9258C21.0273 24.5391 20.9102 24.1016 20.9102 23.6133ZM21.9766 23.6133C21.9766 23.9297 22.0469 24.209 22.1875 24.4512C22.332 24.6934 22.5312 24.8828 22.7852 25.0195C23.043 25.1523 23.3359 25.2188 23.6641 25.2188C23.9766 25.2188 24.2598 25.1523 24.5137 25.0195C24.7676 24.8828 24.9668 24.6934 25.1113 24.4512C25.2559 24.2051 25.3281 23.9258 25.3281 23.6133C25.3281 23.3047 25.2559 23.0312 25.1113 22.793C24.9668 22.5508 24.7676 22.3613 24.5137 22.2246C24.2598 22.0879 23.9766 22.0195 23.6641 22.0195C23.3398 22.0195 23.0488 22.0879 22.791 22.2246C22.5332 22.3613 22.332 22.5508 22.1875 22.793C22.0469 23.0312 21.9766 23.3047 21.9766 23.6133ZM28.3984 24.3281V22.9102H26.3008C26.3633 23.1484 26.3945 23.3828 26.3945 23.6133C26.3945 23.8594 26.3613 24.0977 26.2949 24.3281H28.3984ZM42.3086 23.625H43.832V24.5625H42.3086V28.207H41.1953V20.4844H42.3086V23.625ZM34.2227 23.8242C34.2188 23.3242 34.3379 22.877 34.5801 22.4824C34.8262 22.084 35.1621 21.7734 35.5879 21.5508C36.0137 21.3242 36.4883 21.2109 37.0117 21.2109C37.5352 21.2109 38.0098 21.3242 38.4355 21.5508C38.8613 21.7734 39.1953 22.084 39.4375 22.4824C39.6836 22.877 39.8086 23.3242 39.8125 23.8242C39.8086 24.3242 39.6836 24.7734 39.4375 25.1719C39.1953 25.5703 38.8613 25.8809 38.4355 26.1035C38.0098 26.3262 37.5352 26.4375 37.0117 26.4375C36.4883 26.4375 36.0137 26.3262 35.5879 26.1035C35.1621 25.8809 34.8262 25.5703 34.5801 25.1719C34.3379 24.7734 34.2188 24.3242 34.2227 23.8242ZM35.3125 23.8242C35.3086 24.1445 35.3809 24.4297 35.5293 24.6797C35.6777 24.9258 35.8809 25.1191 36.1387 25.2598C36.4004 25.3965 36.6914 25.4648 37.0117 25.4648C37.332 25.4648 37.6211 25.3965 37.8789 25.2598C38.1406 25.1191 38.3457 24.9258 38.4941 24.6797C38.6465 24.4297 38.7227 24.1445 38.7227 23.8242C38.7227 23.5039 38.6465 23.2207 38.4941 22.9746C38.3457 22.7246 38.1406 22.5312 37.8789 22.3945C37.6211 22.2539 37.332 22.1836 37.0117 22.1836C36.6914 22.1836 36.4004 22.2539 36.1387 22.3945C35.8809 22.5312 35.6777 22.7246 35.5293 22.9746C35.3809 23.2207 35.3086 23.5039 35.3125 23.8242ZM35.6523 27.3984H36.7656V29.8711H42.7539V30.7734H35.6523V27.3984ZM53.1836 28.1953H52.0703V24.2461H50.0664V23.3438H52.0703V20.5078H53.1836V28.1953ZM44.4414 26.0039C44.9688 25.8242 45.4297 25.5625 45.8242 25.2188C46.2227 24.8711 46.5273 24.4727 46.7383 24.0234C46.9492 23.5742 47.0547 23.1094 47.0547 22.6289V22.2188H44.7812V21.3047H50.4414V22.2188H48.1914V22.6289C48.1875 23.0664 48.2871 23.4941 48.4902 23.9121C48.6973 24.3301 48.9922 24.7031 49.375 25.0312C49.7578 25.3594 50.207 25.6094 50.7227 25.7812L50.1484 26.6719C49.5703 26.4688 49.0664 26.168 48.6367 25.7695C48.207 25.3711 47.875 24.9062 47.6406 24.375C47.4102 24.9609 47.0684 25.4746 46.6152 25.916C46.166 26.3574 45.6328 26.6875 45.0156 26.9062L44.4414 26.0039ZM46.3633 27.5039H47.4766V29.8711H53.4648V30.7734H46.3633V27.5039ZM58.668 23.5898C58.668 24.168 58.7852 24.7422 59.0195 25.3125C59.2578 25.8828 59.5859 26.3926 60.0039 26.8418C60.4258 27.291 60.9023 27.6289 61.4336 27.8555L60.8242 28.7227C60.2109 28.4531 59.668 28.0449 59.1953 27.498C58.7227 26.9512 58.3633 26.3242 58.1172 25.6172C57.8711 26.375 57.5117 27.0527 57.0391 27.6504C56.5664 28.248 56.0273 28.6953 55.4219 28.9922L54.7773 28.1133C55.2969 27.8711 55.7656 27.5098 56.1836 27.0293C56.6055 26.5449 56.9355 26 57.1738 25.3945C57.416 24.7891 57.5391 24.1875 57.543 23.5898V22.4766H55.1406V21.5508H61.0586V22.4766H58.668V23.5898ZM62.3828 20.4961H63.4961V30.9961H62.3828V20.4961ZM70.5508 21.4219C70.5508 21.8789 70.7188 22.3184 71.0547 22.7402C71.3945 23.1621 71.8516 23.5215 72.4258 23.8184C73.0039 24.1152 73.6328 24.3086 74.3125 24.3984L73.8789 25.3125C73.3086 25.2227 72.7676 25.0664 72.2559 24.8438C71.7441 24.6211 71.291 24.3457 70.8965 24.0176C70.5059 23.6855 70.1973 23.3164 69.9707 22.9102C69.7441 23.3164 69.4336 23.6855 69.0391 24.0176C68.6484 24.3457 68.1992 24.6211 67.6914 24.8438C67.1836 25.0625 66.6445 25.2188 66.0742 25.3125L65.6289 24.3984C66.3086 24.3086 66.9355 24.1172 67.5098 23.8242C68.084 23.5312 68.541 23.1738 68.8809 22.752C69.2207 22.3262 69.3906 21.8828 69.3906 21.4219V20.8477H70.5508V21.4219ZM65.1719 26.3438H74.7461V27.2578H70.4805V30.9961H69.3906V27.2578H65.1719V26.3438ZM76.4922 32.4258H75.4961L76.1172 29.1914H77.4297L76.4922 32.4258ZM85.1875 23.168C85.1836 23.7812 85.293 24.3887 85.5156 24.9902C85.7383 25.5918 86.0508 26.1309 86.4531 26.6074C86.8555 27.0801 87.3125 27.4414 87.8242 27.6914L87.1328 28.582C86.5703 28.2852 86.0723 27.8613 85.6387 27.3105C85.209 26.7559 84.877 26.123 84.6426 25.4121C84.4043 26.1699 84.0605 26.8457 83.6113 27.4395C83.166 28.0293 82.6484 28.4766 82.0586 28.7812L81.3672 27.8789C81.8945 27.625 82.3633 27.25 82.7734 26.7539C83.1836 26.2578 83.502 25.6953 83.7285 25.0664C83.959 24.4375 84.0742 23.8047 84.0742 23.168V21.375H85.1875V23.168ZM88.6094 20.4961H89.7227V24.6797H91.4102V25.6289H89.7227V30.9961H88.6094V20.4961ZM100.598 30.9961H99.4844V20.4961H100.598V30.9961ZM91.9727 28.1367C93.2383 28.1289 94.1992 28.1172 94.8555 28.1016V27.0469C94.4492 26.9922 94.0938 26.8789 93.7891 26.707C93.4844 26.5352 93.25 26.3145 93.0859 26.0449C92.9219 25.7754 92.8398 25.4727 92.8398 25.1367C92.8398 24.7461 92.9453 24.4023 93.1562 24.1055C93.3672 23.8086 93.666 23.5781 94.0527 23.4141C94.4395 23.25 94.8828 23.168 95.3828 23.168C95.8906 23.168 96.3398 23.25 96.7305 23.4141C97.1211 23.5781 97.4258 23.8086 97.6445 24.1055C97.8633 24.4023 97.9727 24.7461 97.9727 25.1367C97.9727 25.4688 97.8887 25.7695 97.7207 26.0391C97.5566 26.3047 97.3223 26.5234 97.0176 26.6953C96.7168 26.8672 96.3633 26.9824 95.957 27.041V28.0605C97.082 28.0059 98.043 27.9258 98.8398 27.8203L98.9219 28.6523C97.9414 28.8164 96.9219 28.9258 95.8633 28.9805C94.8047 29.0352 93.6855 29.0625 92.5059 29.0625H92.125L91.9727 28.1367ZM92.1953 21.75H94.8555V20.5195H95.9688V21.75H98.6055V22.6406H92.1953V21.75ZM93.8945 25.1367C93.8906 25.3555 93.9492 25.5469 94.0703 25.7109C94.1953 25.8711 94.3691 25.9961 94.5918 26.0859C94.8184 26.1719 95.0762 26.2148 95.3652 26.2148C95.6699 26.2148 95.9375 26.1719 96.168 26.0859C96.4023 26 96.584 25.877 96.7129 25.7168C96.8418 25.5527 96.9062 25.3594 96.9062 25.1367C96.9062 24.9141 96.8418 24.7207 96.7129 24.5566C96.5879 24.3887 96.4102 24.2598 96.1797 24.1699C95.9492 24.0801 95.6836 24.0352 95.3828 24.0352C95.0898 24.0352 94.8301 24.0801 94.6035 24.1699C94.377 24.2598 94.2012 24.3887 94.0762 24.5566C93.9512 24.7207 93.8906 24.9141 93.8945 25.1367ZM113.465 23.625H114.988V24.5625H113.465V28.207H112.352V20.4844H113.465V23.625ZM105.379 23.8242C105.375 23.3242 105.494 22.877 105.736 22.4824C105.982 22.084 106.318 21.7734 106.744 21.5508C107.17 21.3242 107.645 21.2109 108.168 21.2109C108.691 21.2109 109.166 21.3242 109.592 21.5508C110.018 21.7734 110.352 22.084 110.594 22.4824C110.84 22.877 110.965 23.3242 110.969 23.8242C110.965 24.3242 110.84 24.7734 110.594 25.1719C110.352 25.5703 110.018 25.8809 109.592 26.1035C109.166 26.3262 108.691 26.4375 108.168 26.4375C107.645 26.4375 107.17 26.3262 106.744 26.1035C106.318 25.8809 105.982 25.5703 105.736 25.1719C105.494 24.7734 105.375 24.3242 105.379 23.8242ZM106.469 23.8242C106.465 24.1445 106.537 24.4297 106.686 24.6797C106.834 24.9258 107.037 25.1191 107.295 25.2598C107.557 25.3965 107.848 25.4648 108.168 25.4648C108.488 25.4648 108.777 25.3965 109.035 25.2598C109.297 25.1191 109.502 24.9258 109.65 24.6797C109.803 24.4297 109.879 24.1445 109.879 23.8242C109.879 23.5039 109.803 23.2207 109.65 22.9746C109.502 22.7246 109.297 22.5312 109.035 22.3945C108.777 22.2539 108.488 22.1836 108.168 22.1836C107.848 22.1836 107.557 22.2539 107.295 22.3945C107.037 22.5312 106.834 22.7246 106.686 22.9746C106.537 23.2207 106.465 23.5039 106.469 23.8242ZM106.809 27.3984H107.922V29.8711H113.91V30.7734H106.809V27.3984ZM124.34 28.1953H123.227V24.2461H121.223V23.3438H123.227V20.5078H124.34V28.1953ZM115.598 26.0039C116.125 25.8242 116.586 25.5625 116.98 25.2188C117.379 24.8711 117.684 24.4727 117.895 24.0234C118.105 23.5742 118.211 23.1094 118.211 22.6289V22.2188H115.938V21.3047H121.598V22.2188H119.348V22.6289C119.344 23.0664 119.443 23.4941 119.646 23.9121C119.854 24.3301 120.148 24.7031 120.531 25.0312C120.914 25.3594 121.363 25.6094 121.879 25.7812L121.305 26.6719C120.727 26.4688 120.223 26.168 119.793 25.7695C119.363 25.3711 119.031 24.9062 118.797 24.375C118.566 24.9609 118.225 25.4746 117.771 25.916C117.322 26.3574 116.789 26.6875 116.172 26.9062L115.598 26.0039ZM117.52 27.5039H118.633V29.8711H124.621V30.7734H117.52V27.5039ZM129.824 23.5898C129.824 24.168 129.941 24.7422 130.176 25.3125C130.414 25.8828 130.742 26.3926 131.16 26.8418C131.582 27.291 132.059 27.6289 132.59 27.8555L131.98 28.7227C131.367 28.4531 130.824 28.0449 130.352 27.498C129.879 26.9512 129.52 26.3242 129.273 25.6172C129.027 26.375 128.668 27.0527 128.195 27.6504C127.723 28.248 127.184 28.6953 126.578 28.9922L125.934 28.1133C126.453 27.8711 126.922 27.5098 127.34 27.0293C127.762 26.5449 128.092 26 128.33 25.3945C128.572 24.7891 128.695 24.1875 128.699 23.5898V22.4766H126.297V21.5508H132.215V22.4766H129.824V23.5898ZM133.539 20.4961H134.652V30.9961H133.539V20.4961ZM141.707 21.4219C141.707 21.8789 141.875 22.3184 142.211 22.7402C142.551 23.1621 143.008 23.5215 143.582 23.8184C144.16 24.1152 144.789 24.3086 145.469 24.3984L145.035 25.3125C144.465 25.2227 143.924 25.0664 143.412 24.8438C142.9 24.6211 142.447 24.3457 142.053 24.0176C141.662 23.6855 141.354 23.3164 141.127 22.9102C140.9 23.3164 140.59 23.6855 140.195 24.0176C139.805 24.3457 139.355 24.6211 138.848 24.8438C138.34 25.0625 137.801 25.2188 137.23 25.3125L136.785 24.3984C137.465 24.3086 138.092 24.1172 138.666 23.8242C139.24 23.5312 139.697 23.1738 140.037 22.752C140.377 22.3262 140.547 21.8828 140.547 21.4219V20.8477H141.707V21.4219ZM136.328 26.3438H145.902V27.2578H141.637V30.9961H140.547V27.2578H136.328V26.3438ZM147.648 32.4258H146.652L147.273 29.1914H148.586L147.648 32.4258ZM156.484 23.168C156.484 23.8047 156.596 24.4297 156.818 25.043C157.045 25.6523 157.361 26.1934 157.768 26.666C158.174 27.1387 158.641 27.4922 159.168 27.7266L158.488 28.6172C157.902 28.3203 157.389 27.8926 156.947 27.334C156.506 26.7715 156.168 26.127 155.934 25.4004C155.699 26.1699 155.357 26.8555 154.908 27.457C154.463 28.0547 153.941 28.5078 153.344 28.8164L152.641 27.9141C153.172 27.6602 153.643 27.2852 154.053 26.7891C154.467 26.2891 154.787 25.7227 155.014 25.0898C155.244 24.4531 155.359 23.8125 155.359 23.168V21.375H156.484V23.168ZM158.008 23.9883H160.352V20.4961H161.453V31.0195H160.352V24.8906H158.008V23.9883ZM167.852 20.6133C168.637 20.6133 169.309 20.6836 169.867 20.8242C170.43 20.9609 170.859 21.166 171.156 21.4395C171.453 21.709 171.602 22.0352 171.602 22.418C171.602 22.8086 171.453 23.1406 171.156 23.4141C170.859 23.6836 170.432 23.8887 169.873 24.0293C169.314 24.166 168.641 24.2344 167.852 24.2344C167.062 24.2344 166.387 24.166 165.824 24.0293C165.266 23.8887 164.838 23.6836 164.541 23.4141C164.248 23.1406 164.102 22.8086 164.102 22.418C164.102 22.0352 164.248 21.709 164.541 21.4395C164.838 21.166 165.268 20.9609 165.83 20.8242C166.393 20.6836 167.066 20.6133 167.852 20.6133ZM163.07 24.8555H172.645V25.7344H168.402V26.6367H171.438V29.0977H165.32V30.0352H171.73V30.8906H164.23V28.2891H170.336V27.4688H164.219V26.6367H167.289V25.7344H163.07V24.8555ZM165.262 22.418C165.258 22.7422 165.477 22.9863 165.918 23.1504C166.363 23.3145 167.008 23.3984 167.852 23.4023C168.699 23.3984 169.346 23.3145 169.791 23.1504C170.236 22.9863 170.457 22.7422 170.453 22.418C170.457 22.1094 170.234 21.8711 169.785 21.7031C169.336 21.5352 168.691 21.4492 167.852 21.4453C167.02 21.4492 166.379 21.5352 165.93 21.7031C165.48 21.8711 165.258 22.1094 165.262 22.418ZM184.879 26.2266H181.703V28.793H185.98V29.707H176.371V28.793H180.602V26.2266H177.566V21.3047H184.785V22.207H178.68V25.3359H184.879V26.2266ZM190.598 23.168C190.594 23.8008 190.709 24.4238 190.943 25.0371C191.182 25.6504 191.512 26.1953 191.934 26.6719C192.359 27.1445 192.84 27.5 193.375 27.7383L192.707 28.6172C192.109 28.332 191.58 27.9102 191.119 27.3516C190.658 26.793 190.303 26.1523 190.053 25.4297C189.807 26.2109 189.447 26.9004 188.975 27.498C188.506 28.0957 187.961 28.5469 187.34 28.8516L186.66 27.9141C187.203 27.6758 187.688 27.3105 188.113 26.8184C188.539 26.3223 188.871 25.7559 189.109 25.1191C189.352 24.4785 189.473 23.8281 189.473 23.168V21.375H190.598V23.168ZM194.324 20.4961H195.438V31.0195H194.324V20.4961ZM200.793 22.7344C200.793 23.1445 200.9 23.5391 201.115 23.918C201.33 24.2969 201.635 24.6309 202.029 24.9199C202.424 25.209 202.883 25.4258 203.406 25.5703L202.879 26.4375C202.277 26.2656 201.752 26.002 201.303 25.6465C200.854 25.2871 200.508 24.8613 200.266 24.3691C200.031 24.9199 199.689 25.4004 199.24 25.8105C198.791 26.2168 198.258 26.5156 197.641 26.707L197.113 25.8516C197.637 25.6836 198.092 25.4414 198.479 25.125C198.869 24.8086 199.168 24.4434 199.375 24.0293C199.586 23.6152 199.691 23.1836 199.691 22.7344V22.6055H197.406V21.7148H199.691V20.4492H200.805V21.7148H203.078V22.6055H200.793V22.7344ZM198.801 29.0273C198.801 28.6211 198.941 28.2734 199.223 27.9844C199.508 27.6953 199.916 27.4746 200.447 27.3223C200.982 27.1699 201.617 27.0938 202.352 27.0938C203.082 27.0938 203.713 27.1699 204.244 27.3223C204.779 27.4746 205.189 27.6953 205.475 27.9844C205.76 28.2734 205.902 28.6211 205.902 29.0273C205.902 29.4375 205.758 29.7871 205.469 30.0762C205.184 30.3691 204.775 30.5918 204.244 30.7441C203.713 30.8965 203.082 30.9727 202.352 30.9727C201.621 30.9727 200.988 30.8965 200.453 30.7441C199.918 30.5918 199.508 30.3691 199.223 30.0762C198.941 29.7832 198.801 29.4336 198.801 29.0273ZM199.902 29.0273C199.902 29.2539 199.998 29.4492 200.189 29.6133C200.385 29.7734 200.666 29.8984 201.033 29.9883C201.4 30.0742 201.84 30.1172 202.352 30.1172C203.121 30.1133 203.721 30.0156 204.15 29.8242C204.58 29.6328 204.797 29.3672 204.801 29.0273C204.797 28.6875 204.58 28.4258 204.15 28.2422C203.725 28.0547 203.125 27.9609 202.352 27.9609C201.578 27.9609 200.975 28.0547 200.541 28.2422C200.111 28.4258 199.898 28.6875 199.902 29.0273ZM202.75 23.4375H204.754V20.4961H205.867V26.8594H204.754V24.3516H202.75V23.4375ZM216.238 25.8398H215.125V24.832H212.465V23.9648H215.125V22.8281H212.594C212.273 23.6328 211.727 24.3066 210.953 24.8496C210.184 25.3926 209.211 25.8008 208.035 26.0742L207.648 25.1602C208.891 24.8867 209.854 24.4688 210.537 23.9062C211.225 23.3438 211.615 22.6719 211.709 21.8906H208.199V20.9766H212.934C212.934 21.3125 212.904 21.6367 212.846 21.9492H215.125V20.4961H216.238V25.8398ZM209.371 26.2852H216.238V28.9453H210.496V30H216.555V30.8906H209.395V28.1016H215.125V27.1641H209.371V26.2852ZM226.363 26.2266H223.188V28.793H227.465V29.707H217.855V28.793H222.086V26.2266H219.051V21.3047H226.27V22.207H220.164V25.3359H226.363V26.2266ZM16.2695 38.1602H15.2617V41.3359C15.7422 41.2969 16.1719 41.2539 16.5508 41.207L16.5977 42.0508C15.6953 42.1914 14.7363 42.2852 13.7207 42.332C12.7051 42.3789 11.6445 42.4023 10.5391 42.4023L10.3984 41.4766C10.9492 41.4766 11.375 41.4746 11.6758 41.4707V38.1602H10.6914V37.2578H16.2695V38.1602ZM12.0742 45.0742C12.0742 44.668 12.2148 44.3223 12.4961 44.0371C12.7773 43.748 13.1836 43.5293 13.7148 43.3809C14.25 43.2285 14.8867 43.1523 15.625 43.1523C16.3594 43.1523 16.9922 43.2285 17.5234 43.3809C18.0586 43.5293 18.4668 43.748 18.748 44.0371C19.0332 44.3223 19.1758 44.668 19.1758 45.0742C19.1758 45.4727 19.0332 45.8145 18.748 46.0996C18.4629 46.3848 18.0547 46.6016 17.5234 46.75C16.9922 46.8984 16.3594 46.9727 15.625 46.9727C14.8867 46.9727 14.25 46.8984 13.7148 46.75C13.1836 46.6016 12.7773 46.3848 12.4961 46.0996C12.2148 45.8145 12.0742 45.4727 12.0742 45.0742ZM12.7539 41.4531C13.2305 41.4414 13.7109 41.4238 14.1953 41.4004V38.1602H12.7539V41.4531ZM13.1758 45.0742C13.1719 45.4023 13.3848 45.6582 13.8145 45.8418C14.2441 46.0215 14.8477 46.1133 15.625 46.1172C16.3984 46.1133 16.998 46.0215 17.4238 45.8418C17.8535 45.6582 18.0703 45.4023 18.0742 45.0742C18.0703 44.7383 17.8574 44.4785 17.4355 44.2949C17.0137 44.1113 16.4219 44.0195 15.6602 44.0195C14.8672 44.0195 14.2539 44.1113 13.8203 44.2949C13.3867 44.4746 13.1719 44.7344 13.1758 45.0742ZM16.4219 40.2344H18.0273V39.2148H16.4219V38.3242H18.0273V36.4961H19.1406V42.9531H18.0273V41.125H16.4219V40.2344ZM28.9375 40.6797H30.5664V41.6055H28.9375V46.9844H27.8242V36.4961H28.9375V40.6797ZM20.7695 44.1836C22.082 43.5273 23.0957 42.7266 23.8105 41.7812C24.5293 40.8359 24.9453 39.75 25.0586 38.5234H21.2969V37.5977H26.1953C26.1875 39.1992 25.7988 40.6387 25.0293 41.916C24.2598 43.1895 23.0469 44.2344 21.3906 45.0508L20.7695 44.1836ZM40.7266 42.168H31.1172V41.3125H40.7266V42.168ZM32.2539 42.9062H39.543V45.2148H33.3789V46.082H39.8711V46.8672H32.2656V44.4766H38.4414V43.7031H32.2539V42.9062ZM32.3242 36.7656H39.5195V39.0391H33.4492V39.8359H39.6953V40.6211H32.3477V38.3008H38.4062V37.5508H32.3242V36.7656ZM52.9492 42.7656H49.7734V44.8164H54.0391V45.7305H44.4297V44.8164H48.6602V42.7656H45.6367V37.3047H52.8438V38.2188H46.7617V39.5664H52.6211V40.4453H46.7617V41.875H52.9492V42.7656ZM63.8125 46.9961H62.7461V41.5703H61.3867V46.457H60.3672V36.707H61.3867V40.6562H62.7461V36.4961H63.8125V46.9961ZM55.1523 37.7617H59.0898V38.6641H56.2656V43.5273C56.9492 43.5234 57.5488 43.502 58.0645 43.4629C58.584 43.4238 59.1133 43.3516 59.6523 43.2461L59.7344 44.1602C59.1484 44.2812 58.5703 44.3633 58 44.4062C57.4336 44.4453 56.7188 44.4688 55.8555 44.4766H55.1523V37.7617ZM74.7812 45.7422H65.1719V44.8047H69.4023V42.9648H66.3438V39.625H72.5078V38.1484H66.3203V37.2344H73.6094V40.5156H67.4453V42.0508H73.8555V42.9648H70.5039V44.8047H74.7812V45.7422ZM87.4844 46.9961H86.418V36.4961H87.4844V46.9961ZM78.3203 44.1016C78.8008 43.8125 79.209 43.4219 79.5449 42.9297C79.8848 42.4375 80.1387 41.8906 80.3066 41.2891C80.4785 40.6836 80.5664 40.0625 80.5703 39.4258V38.582H78.6367V37.6797H83.4414V38.582H81.6367V39.4258C81.6367 40.0352 81.7188 40.627 81.8828 41.2012C82.0508 41.7754 82.2988 42.2949 82.627 42.7598C82.959 43.2246 83.3633 43.5938 83.8398 43.8672L83.1719 44.6875C82.6836 44.3984 82.2656 44 81.918 43.4922C81.5742 42.9844 81.3066 42.4043 81.1152 41.752C80.9238 42.459 80.6484 43.0879 80.2891 43.6387C79.9297 44.1895 79.5 44.6211 79 44.9336L78.3203 44.1016ZM82.668 40.2109H84.2969V36.7188H85.3516V46.4688H84.2969V41.125H82.668V40.2109ZM93.5781 43.0938C94.332 43.0938 94.9883 43.1719 95.5469 43.3281C96.1055 43.4805 96.5352 43.7031 96.8359 43.9961C97.1406 44.2891 97.293 44.6367 97.293 45.0391C97.293 45.4414 97.1406 45.7871 96.8359 46.0762C96.5352 46.3691 96.1055 46.5918 95.5469 46.7441C94.9883 46.8965 94.332 46.9727 93.5781 46.9727C92.832 46.9727 92.1797 46.8965 91.6211 46.7441C91.0664 46.5918 90.6387 46.3691 90.3379 46.0762C90.0371 45.7871 89.8867 45.4414 89.8867 45.0391C89.8867 44.6367 90.0371 44.2891 90.3379 43.9961C90.6387 43.7031 91.0664 43.4805 91.6211 43.3281C92.1758 43.1719 92.8281 43.0938 93.5781 43.0938ZM88.8555 41.3242H92.6875V39.3555H93.7773V41.3242H98.4062V42.2266H88.8555V41.3242ZM89.9688 37.0117H97.2109V37.8906V38.2012C97.2109 38.6543 97.1914 39.0742 97.1523 39.4609C97.1172 39.8438 97.0391 40.25 96.918 40.6797L95.8281 40.5625C95.9531 40.0859 96.0312 39.6582 96.0625 39.2793C96.0938 38.8965 96.1094 38.4375 96.1094 37.9023H89.9688V37.0117ZM91 45.0391C90.9961 45.2617 91.0977 45.4551 91.3047 45.6191C91.5156 45.7793 91.8145 45.9023 92.2012 45.9883C92.5918 46.0742 93.0508 46.1172 93.5781 46.1172C94.1133 46.1172 94.5762 46.0742 94.9668 45.9883C95.3574 45.9023 95.6582 45.7793 95.8691 45.6191C96.0801 45.4551 96.1875 45.2617 96.1914 45.0391C96.1875 44.8125 96.0801 44.6172 95.8691 44.4531C95.6582 44.2852 95.3574 44.1582 94.9668 44.0723C94.5762 43.9824 94.1133 43.9375 93.5781 43.9375C93.0508 43.9375 92.5918 43.9824 92.2012 44.0723C91.8145 44.1582 91.5156 44.2852 91.3047 44.4531C91.0977 44.6172 90.9961 44.8125 91 45.0391ZM107.395 40.75H109.082V41.6758H107.395V46.9961H106.293V36.4961H107.395V40.75ZM99.1562 38.1367H101.746V36.6367H102.859V38.1367H105.379V39.0508H99.1562V38.1367ZM99.6953 42.2617C99.6953 41.793 99.8066 41.373 100.029 41.002C100.256 40.6309 100.566 40.3418 100.961 40.1348C101.359 39.9277 101.809 39.8242 102.309 39.8242C102.805 39.8242 103.25 39.9277 103.645 40.1348C104.043 40.3418 104.355 40.6309 104.582 41.002C104.809 41.373 104.922 41.793 104.922 42.2617C104.922 42.7344 104.809 43.1562 104.582 43.5273C104.355 43.8984 104.043 44.1895 103.645 44.4004C103.25 44.6074 102.805 44.7109 102.309 44.7109C101.809 44.7109 101.359 44.6074 100.961 44.4004C100.566 44.1895 100.256 43.8984 100.029 43.5273C99.8066 43.1562 99.6953 42.7344 99.6953 42.2617ZM100.762 42.2617C100.762 42.5625 100.826 42.8281 100.955 43.0586C101.088 43.2891 101.271 43.4668 101.506 43.5918C101.744 43.7168 102.012 43.7773 102.309 43.7734C102.602 43.7773 102.865 43.7168 103.1 43.5918C103.334 43.4668 103.518 43.2891 103.65 43.0586C103.787 42.8281 103.855 42.5625 103.855 42.2617C103.855 41.9688 103.787 41.707 103.65 41.4766C103.518 41.2461 103.334 41.0664 103.1 40.9375C102.865 40.8047 102.602 40.7383 102.309 40.7383C102.012 40.7383 101.744 40.8047 101.506 40.9375C101.271 41.0664 101.088 41.2461 100.955 41.4766C100.826 41.707 100.762 41.9688 100.762 42.2617ZM118.082 40.457H110.852V36.8711H111.953V39.5664H118.082V40.457ZM109.574 41.7812H119.184V42.6719H109.574V41.7812ZM110.77 43.668H111.883V45.8359H118.152V46.75H110.77V43.668ZM131.641 42.7422H130.527V40.082H128.57V39.168H130.527V36.4961H131.641V42.7422ZM122.887 41.793C123.418 41.6055 123.883 41.3359 124.281 40.9844C124.68 40.6289 124.984 40.2246 125.195 39.7715C125.41 39.3145 125.516 38.8438 125.512 38.3594V38.125H123.238V37.2227H128.898V38.125H126.648V38.3477C126.645 38.793 126.744 39.2246 126.947 39.6426C127.15 40.0605 127.443 40.4336 127.826 40.7617C128.209 41.0859 128.66 41.3359 129.18 41.5117L128.605 42.3906C128.027 42.1914 127.523 41.8945 127.094 41.5C126.668 41.1016 126.338 40.6367 126.104 40.1055C125.873 40.6992 125.531 41.2207 125.078 41.6699C124.625 42.1191 124.09 42.457 123.473 42.6836L122.887 41.793ZM124.574 45.0156C124.574 44.6016 124.715 44.248 124.996 43.9551C125.281 43.6582 125.689 43.4316 126.221 43.2754C126.756 43.1152 127.391 43.0352 128.125 43.0352C128.855 43.0352 129.486 43.1152 130.018 43.2754C130.549 43.4316 130.957 43.6582 131.242 43.9551C131.531 44.248 131.676 44.6016 131.676 45.0156C131.676 45.4297 131.531 45.7832 131.242 46.0762C130.957 46.373 130.549 46.5996 130.018 46.7559C129.486 46.916 128.855 46.9961 128.125 46.9961C127.391 46.9961 126.756 46.916 126.221 46.7559C125.689 46.5996 125.281 46.373 124.996 46.0762C124.715 45.7832 124.574 45.4297 124.574 45.0156ZM125.676 45.0156C125.672 45.3711 125.885 45.6465 126.314 45.8418C126.748 46.0332 127.352 46.125 128.125 46.1172C128.891 46.125 129.488 46.0332 129.918 45.8418C130.352 45.6465 130.57 45.3711 130.574 45.0156C130.57 44.6641 130.355 44.3906 129.93 44.1953C129.508 44 128.918 43.9023 128.16 43.9023C127.371 43.9023 126.758 43.998 126.32 44.1895C125.887 44.3809 125.672 44.6562 125.676 45.0156ZM142.867 45.6953H133.258V44.7695H137.488V42.6133H134.359V37.2109H135.473V39.0156H140.629V37.2109H141.73V42.6133H138.59V44.7695H142.867V45.6953ZM140.629 41.7109V39.918H135.473V41.7109H140.629ZM152.336 42.1328H151.223V36.4961H152.336V42.1328ZM143.84 39.4141C143.84 38.9414 143.961 38.5195 144.203 38.1484C144.445 37.7773 144.779 37.4902 145.205 37.2871C145.631 37.0801 146.109 36.9766 146.641 36.9766C147.172 36.9766 147.648 37.0801 148.07 37.2871C148.496 37.4902 148.828 37.7773 149.066 38.1484C149.309 38.5195 149.43 38.9414 149.43 39.4141C149.43 39.8867 149.309 40.3086 149.066 40.6797C148.828 41.0469 148.496 41.334 148.07 41.541C147.648 41.7441 147.172 41.8438 146.641 41.8398C146.109 41.8438 145.631 41.7441 145.205 41.541C144.779 41.334 144.445 41.0469 144.203 40.6797C143.961 40.3086 143.84 39.8867 143.84 39.4141ZM144.93 39.4141C144.93 39.7109 145.002 39.9746 145.146 40.2051C145.291 40.4316 145.494 40.6094 145.756 40.7383C146.018 40.8633 146.312 40.9258 146.641 40.9258C146.965 40.9258 147.256 40.8633 147.514 40.7383C147.771 40.6094 147.973 40.4316 148.117 40.2051C148.266 39.9746 148.34 39.7109 148.34 39.4141C148.34 39.1211 148.266 38.8613 148.117 38.6348C147.973 38.4043 147.771 38.2266 147.514 38.1016C147.256 37.9766 146.965 37.9141 146.641 37.9141C146.312 37.9141 146.018 37.9766 145.756 38.1016C145.494 38.2266 145.291 38.4043 145.146 38.6348C145.002 38.8613 144.93 39.1211 144.93 39.4141ZM145.469 42.6367H146.559V43.8203H151.234V42.6367H152.336V46.8672H145.469V42.6367ZM151.234 45.9531V44.6992H146.559V45.9531H151.234ZM162.719 46.9961H161.605V36.4961H162.719V46.9961ZM154.645 37.5156H155.746V43.3633C157.41 43.3555 159.02 43.1953 160.574 42.8828L160.727 43.8203C159.836 44.0039 158.965 44.1348 158.113 44.2129C157.262 44.291 156.398 44.3281 155.523 44.3242H154.645V37.5156ZM172.551 40.5625H174.238V41.4766H172.551V47.0195H171.438V36.4961H172.551V40.5625ZM164.816 37.5039H169.727V38.4062H165.93V43.4805C166.859 43.4766 167.676 43.4492 168.379 43.3984C169.082 43.3477 169.793 43.2578 170.512 43.1289L170.652 44.0664C169.91 44.1992 169.182 44.2891 168.467 44.3359C167.756 44.3828 166.91 44.4062 165.93 44.4062H165.66H164.816V37.5039ZM175.938 46.082C175.789 46.082 175.65 46.0449 175.521 45.9707C175.396 45.8965 175.295 45.7969 175.217 45.6719C175.143 45.5469 175.105 45.4102 175.105 45.2617C175.105 45.1094 175.143 44.9688 175.217 44.8398C175.291 44.7109 175.391 44.6094 175.516 44.5352C175.645 44.457 175.785 44.418 175.938 44.418C176.086 44.418 176.223 44.4551 176.348 44.5293C176.477 44.6035 176.578 44.7051 176.652 44.834C176.73 44.9629 176.77 45.1016 176.77 45.25C176.77 45.3984 176.73 45.5371 176.652 45.666C176.578 45.791 176.477 45.8926 176.348 45.9707C176.223 46.0449 176.086 46.082 175.938 46.082Z" fill="white"/>
<path d="M134.408 1.04838C134.808 0.521542 135.6 0.521541 136 1.04838L141.581 8.39513C142.081 9.05358 141.611 10 140.785 10H129.624C128.797 10 128.327 9.05358 128.827 8.39513L134.408 1.04838Z" fill="#1A1A1A"/>
</svg>
