<svg width="16" height="16" viewBox="0 0 16 16" fill="none" xmlns="http://www.w3.org/2000/svg">
<g clip-path="url(#clip0_1768_4929)">
<path d="M8.00016 1.33325C4.32016 1.33325 1.3335 4.31992 1.3335 7.99992C1.3335 11.6799 4.32016 14.6666 8.00016 14.6666C11.6802 14.6666 14.6668 11.6799 14.6668 7.99992C14.6668 4.31992 11.6802 1.33325 8.00016 1.33325ZM8.00016 12.3333C7.44683 12.3333 7.00016 11.8866 7.00016 11.3333H9.00016C9.00016 11.8866 8.5535 12.3333 8.00016 12.3333ZM11.3335 10.6666H4.66683V9.99992L5.3335 9.33325V7.59325C5.3335 6.17992 6.02016 4.97992 7.3335 4.66658V4.33325C7.3335 3.95325 7.62016 3.66659 8.00016 3.66659C8.38016 3.66659 8.66683 3.95325 8.66683 4.33325V4.66658C9.98016 4.97992 10.6668 6.18659 10.6668 7.59325V9.33325L11.3335 9.99992V10.6666Z" fill="#BEBEBE"/>
</g>
<defs>
<clipPath id="clip0_1768_4929">
<rect width="16" height="16" fill="white"/>
</clipPath>
</defs>
</svg>
