<svg width="42" height="49" viewBox="0 0 42 49" fill="none" xmlns="http://www.w3.org/2000/svg">
<g filter="url(#filter0_d_3698_22190)">
<mask id="path-1-outside-1_3698_22190" maskUnits="userSpaceOnUse" x="4" y="3.6499" width="32" height="39" fill="black">
<rect fill="white" x="4" y="3.6499" width="32" height="39"/>
<path fill-rule="evenodd" clip-rule="evenodd" d="M29.8995 9.86888C27.274 7.16751 23.713 5.6499 20 5.6499C16.287 5.6499 12.726 7.16751 10.1005 9.86888C7.475 12.5702 6 16.2341 6 20.0544C6 26.0053 9.97313 32.4762 17.816 39.5381L18.3588 40.0227C18.8144 40.4268 19.3958 40.6494 19.9973 40.6499C20.5989 40.6504 21.1806 40.4289 21.6369 40.0256C29.8431 32.7746 34 26.1412 34 20.0544C34 16.2341 32.525 12.5702 29.8995 9.86888Z"/>
</mask>
<path fill-rule="evenodd" clip-rule="evenodd" d="M29.8995 9.86888C27.274 7.16751 23.713 5.6499 20 5.6499C16.287 5.6499 12.726 7.16751 10.1005 9.86888C7.475 12.5702 6 16.2341 6 20.0544C6 26.0053 9.97313 32.4762 17.816 39.5381L18.3588 40.0227C18.8144 40.4268 19.3958 40.6494 19.9973 40.6499C20.5989 40.6504 21.1806 40.4289 21.6369 40.0256C29.8431 32.7746 34 26.1412 34 20.0544C34 16.2341 32.525 12.5702 29.8995 9.86888Z" fill="#FF1E1E"/>
<path d="M10.1005 9.86888L8.6663 8.47494V8.47494L10.1005 9.86888ZM17.816 39.5381L16.4777 41.0244L16.484 41.03L17.816 39.5381ZM18.3588 40.0227L17.0268 41.5146L17.0316 41.5189L18.3588 40.0227ZM21.6369 40.0256L20.3126 38.5269L20.3124 38.5271L21.6369 40.0256ZM20 7.6499C23.1639 7.6499 26.2102 8.94255 28.4653 11.2628L31.3337 8.47494C28.3378 5.39248 24.2621 3.6499 20 3.6499V7.6499ZM11.5347 11.2628C13.7898 8.94255 16.8361 7.6499 20 7.6499V3.6499C15.7379 3.6499 11.6622 5.39248 8.6663 8.47494L11.5347 11.2628ZM8 20.0544C8 16.7464 9.27772 13.585 11.5347 11.2628L8.6663 8.47494C5.67227 11.5555 4 15.7217 4 20.0544H8ZM19.1543 38.0518C11.4168 31.0849 8 25.1202 8 20.0544H4C4 26.8904 8.52943 33.8676 16.4777 41.0244L19.1543 38.0518ZM19.6908 38.5308L19.148 38.0462L16.484 41.03L17.0268 41.5146L19.6908 38.5308ZM19.9991 38.6499C19.8927 38.6498 19.7811 38.6109 19.6859 38.5265L17.0316 41.5189C17.8477 42.2427 18.8988 42.6489 19.9955 42.6499L19.9991 38.6499ZM20.3124 38.5271C20.2171 38.6113 20.1055 38.65 19.9991 38.6499L19.9955 42.6499C21.0922 42.6509 22.1441 42.2466 22.9614 41.5242L20.3124 38.5271ZM32 20.0544C32 25.2391 28.4203 31.3629 20.3126 38.5269L22.9612 41.5244C31.2659 34.1863 36 27.0433 36 20.0544H32ZM28.4653 11.2628C30.7223 13.585 32 16.7464 32 20.0544H36C36 15.7217 34.3277 11.5555 31.3337 8.47494L28.4653 11.2628Z" fill="white" mask="url(#path-1-outside-1_3698_22190)"/>
</g>
<circle cx="20" cy="19.6499" r="3.5" fill="white"/>
<defs>
<filter id="filter0_d_3698_22190" x="0.769231" y="0.419133" width="40.6154" height="47.6154" filterUnits="userSpaceOnUse" color-interpolation-filters="sRGB">
<feFlood flood-opacity="0" result="BackgroundImageFix"/>
<feColorMatrix in="SourceAlpha" type="matrix" values="0 0 0 0 0 0 0 0 0 0 0 0 0 0 0 0 0 0 127 0" result="hardAlpha"/>
<feOffset dx="1.07692" dy="1.07692"/>
<feGaussianBlur stdDeviation="2.15385"/>
<feComposite in2="hardAlpha" operator="out"/>
<feColorMatrix type="matrix" values="0 0 0 0 0 0 0 0 0 0 0 0 0 0 0 0 0 0 0.3 0"/>
<feBlend mode="normal" in2="BackgroundImageFix" result="effect1_dropShadow_3698_22190"/>
<feBlend mode="normal" in="SourceGraphic" in2="effect1_dropShadow_3698_22190" result="shape"/>
</filter>
</defs>
</svg>
