<svg width="64" height="64" viewBox="0 0 64 64" fill="none" xmlns="http://www.w3.org/2000/svg">
<g id="ic_no place">
<path id="Union" fill-rule="evenodd" clip-rule="evenodd" d="M32 10C36.5087 10 40.8327 11.8428 44.0208 15.123C47.2089 18.4033 49 22.8522 49 27.4912C49 30.791 47.9939 34.2231 45.9933 37.7951L37.53 29.3319C37.8327 28.615 38 27.827 38 27C38 23.6863 35.3137 21 32 21C31.173 21 30.385 21.1673 29.6681 21.47L21.7416 13.5434C24.6777 11.2573 28.2758 10 32 10ZM16.3903 20.5633C15.4818 22.7305 15 25.0852 15 27.4912C15 34.7172 19.8245 42.5748 29.348 51.15L30.0071 51.7384C30.5603 52.2291 31.2663 52.4993 31.9967 52.5C32.7272 52.5007 33.4336 52.2317 33.9877 51.742C36.584 49.4478 38.8465 47.2046 40.7729 45.0108L49.3484 53.6356C49.7672 54.0544 50.3002 54.2737 50.9475 54.2935C51.5947 54.3118 52.1468 54.0925 52.6036 53.6356C53.0224 53.2168 53.2318 52.6746 53.2318 52.0091C53.2318 51.3421 53.0224 50.7991 52.6036 50.3803L13.8263 11.6031C13.4075 11.1843 12.8745 10.9749 12.2273 10.9749C11.58 10.9749 11.047 11.1843 10.6282 11.6031C10.2094 12.0219 10 12.5549 10 13.2021C10 13.8494 10.2094 14.3824 10.6282 14.8012L13.8263 17.9993L16.3903 20.5633Z" fill="#DEDEDE"/>
</g>
</svg>
