<svg width="25" height="24" viewBox="0 0 25 24" fill="none" xmlns="http://www.w3.org/2000/svg">
<g id="Icon_Btn_Place">
<path id="Vector" d="M12.7653 21.2423L12.7476 21.2554L12.7307 21.2698C12.6664 21.3248 12.5846 21.3551 12.5 21.3551C12.416 21.3551 12.3348 21.3253 12.2708 21.2711C12.1192 21.1398 10.3228 19.583 8.5655 17.3938C6.7775 15.1662 5.14639 12.4245 5.145 9.92321C5.16522 7.98649 5.94856 6.13586 7.32503 4.77316C8.70226 3.4097 10.562 2.6449 12.5 2.645H12.5C14.438 2.6449 16.2977 3.4097 17.675 4.77316C19.0514 6.13586 19.8348 7.98648 19.855 9.92319C19.8536 12.4258 18.2335 15.1682 16.4526 17.3946C15.5754 18.4912 14.6859 19.4302 13.9937 20.1112C13.648 20.4513 13.3529 20.7257 13.1349 20.9219C13.0258 21.02 12.9368 21.098 12.871 21.1542C12.838 21.1824 12.8117 21.2045 12.7922 21.2205C12.7706 21.2383 12.7631 21.2439 12.7653 21.2423Z" stroke="#808080" stroke-width="1.29"/>
<circle id="Ellipse 315" cx="12.5" cy="9.5" r="1.9625" stroke="#808080" stroke-width="1.075"/>
</g>
</svg>
