<svg width="18" height="18" viewBox="0 0 18 18" fill="none" xmlns="http://www.w3.org/2000/svg">
<g clip-path="url(#clip0_2573_17255)">
<path d="M15 2.25H9C8.5875 2.25 8.25 2.5875 8.25 3V4.2075C8.25 4.2075 8.25 4.2075 8.2575 4.215L12.0075 7.59C12.48 8.01 12.75 8.625 12.75 9.2625V9.75H14.25V11.25H12.75V12.75H14.25V14.25H12.75V15.75H15C15.4125 15.75 15.75 15.4125 15.75 15V3C15.75 2.5875 15.4125 2.25 15 2.25ZM11.25 5.25H9.75V3.75H11.25V5.25ZM14.25 8.25H12.75V6.75H14.25V8.25ZM14.25 5.25H12.75V3.75H14.25V5.25Z" fill="#7CC4A5"/>
<path d="M11.25 15V9.26245C11.25 9.05245 11.16 8.84995 11.0025 8.70745L7.2525 5.33245C7.11 5.19745 6.93 5.13745 6.75 5.13745C6.57 5.13745 6.39 5.20495 6.2475 5.33245L2.4975 8.70745C2.34 8.84245 2.25 9.04495 2.25 9.26245V15C2.25 15.4124 2.5875 15.75 3 15.75H4.5C4.9125 15.75 5.25 15.4124 5.25 15V12H8.25V15C8.25 15.4124 8.5875 15.75 9 15.75H10.5C10.9125 15.75 11.25 15.4124 11.25 15Z" fill="#7CC4A5"/>
</g>
<defs>
<clipPath id="clip0_2573_17255">
<rect width="18" height="18" fill="white"/>
</clipPath>
</defs>
</svg>
