<svg width="14" height="11" viewBox="0 0 14 11" fill="none" xmlns="http://www.w3.org/2000/svg">
<path d="M11.6667 9.459C12.3083 9.459 12.8275 8.93397 12.8275 8.29227L12.8333 1.87523C12.8333 1.23353 12.3083 0.708496 11.6667 0.708496H2.33333C1.69167 0.708496 1.16667 1.23353 1.16667 1.87523V8.29227C1.16667 8.93397 1.69167 9.459 2.33333 9.459H0C0 10.1007 0.525 10.6257 1.16667 10.6257H12.8333C13.475 10.6257 14 10.1007 14 9.459H11.6667ZM2.91667 1.87523H11.0833C11.4042 1.87523 11.6667 2.13774 11.6667 2.4586V7.7089C11.6667 8.02975 11.4042 8.29227 11.0833 8.29227H2.91667C2.59583 8.29227 2.33333 8.02975 2.33333 7.7089V2.4586C2.33333 2.13774 2.59583 1.87523 2.91667 1.87523ZM7 10.0424C6.67917 10.0424 6.41667 9.77985 6.41667 9.459C6.41667 9.13815 6.67917 8.87563 7 8.87563C7.32083 8.87563 7.58333 9.13815 7.58333 9.459C7.58333 9.77985 7.32083 10.0424 7 10.0424Z" fill="#BEBEBE"/>
</svg>
