<svg width="16" height="16" viewBox="0 0 16 16" fill="none" xmlns="http://www.w3.org/2000/svg">
<g clip-path="url(#clip0_2389_19270)">
<path d="M15.0533 3.69778L12.4444 1.07556C12.272 0.904029 12.0387 0.807739 11.7956 0.807739C11.5524 0.807739 11.3191 0.904029 11.1467 1.07556L1.89777 10.3111L1.05333 13.9556C1.0242 14.0888 1.0252 14.2268 1.05625 14.3596C1.08731 14.4924 1.14763 14.6166 1.23282 14.7231C1.31801 14.8296 1.42592 14.9157 1.54865 14.9751C1.67138 15.0346 1.80585 15.0658 1.94222 15.0667C2.00576 15.0731 2.06979 15.0731 2.13333 15.0667L5.81777 14.2222L15.0533 4.99556C15.2249 4.82316 15.3211 4.58986 15.3211 4.34667C15.3211 4.10347 15.2249 3.87018 15.0533 3.69778ZM5.37333 13.4222L1.91999 14.1467L2.70666 10.76L9.62666 3.86667L12.2933 6.53333L5.37333 13.4222ZM12.8889 5.88889L10.2222 3.22222L11.7689 1.68444L14.3911 4.35111L12.8889 5.88889Z" fill="black"/>
</g>
<defs>
<clipPath id="clip0_2389_19270">
<rect width="16" height="16" fill="white"/>
</clipPath>
</defs>
</svg>
