<svg width="16" height="16" viewBox="0 0 16 16" fill="none" xmlns="http://www.w3.org/2000/svg">
<path d="M5.375 8.0581C5.375 8.29017 5.28281 8.51273 5.11872 8.67682C4.95462 8.84092 4.73206 8.9331 4.5 8.9331C4.26794 8.9331 4.04538 8.84092 3.88128 8.67682C3.71719 8.51273 3.625 8.29017 3.625 8.0581C3.625 7.82604 3.71719 7.60348 3.88128 7.43939C4.04538 7.27529 4.26794 7.18311 4.5 7.18311C4.73206 7.18311 4.95462 7.27529 5.11872 7.43939C5.28281 7.60348 5.375 7.82604 5.375 8.0581ZM8.875 8.0581C8.875 8.29017 8.78281 8.51273 8.61872 8.67682C8.45462 8.84092 8.23206 8.9331 8 8.9331C7.76794 8.9331 7.54538 8.84092 7.38128 8.67682C7.21719 8.51273 7.125 8.29017 7.125 8.0581C7.125 7.82604 7.21719 7.60348 7.38128 7.43939C7.54538 7.27529 7.76794 7.18311 8 7.18311C8.23206 7.18311 8.45462 7.27529 8.61872 7.43939C8.78281 7.60348 8.875 7.82604 8.875 8.0581ZM11.5 8.9331C11.7321 8.9331 11.9546 8.84092 12.1187 8.67682C12.2828 8.51273 12.375 8.29017 12.375 8.0581C12.375 7.82604 12.2828 7.60348 12.1187 7.43939C11.9546 7.27529 11.7321 7.18311 11.5 7.18311C11.2679 7.18311 11.0454 7.27529 10.8813 7.43939C10.7172 7.60348 10.625 7.82604 10.625 8.0581C10.625 8.29017 10.7172 8.51273 10.8813 8.67682C11.0454 8.84092 11.2679 8.9331 11.5 8.9331Z" fill="white"/>
<path d="M2.89437 14.8857L2.91187 14.8822C4.51312 14.5646 5.49137 14.1455 5.94637 13.9153C6.61626 14.094 7.3067 14.184 8 14.1831C11.8658 14.1831 15 11.4409 15 8.0581C15 4.67535 11.8658 1.93311 8 1.93311C4.13425 1.93311 1 4.67535 1 8.0581C1 9.5981 1.65013 11.0069 2.72375 12.0831C2.64864 12.7744 2.49481 13.4549 2.26525 14.1113L2.26262 14.121C2.19739 14.309 2.12619 14.4949 2.04913 14.6783C1.98 14.8411 2.11388 15.0231 2.288 14.9951C2.4907 14.9619 2.69286 14.9255 2.89437 14.8857V14.8857ZM3.59437 12.1662C3.60663 12.0381 3.59048 11.9089 3.54707 11.7877C3.50367 11.6666 3.43407 11.5565 3.34325 11.4654C2.41575 10.5344 1.875 9.3426 1.875 8.0581C1.875 5.2651 4.5035 2.8081 8 2.8081C11.4965 2.8081 14.125 5.2651 14.125 8.0581C14.125 10.852 11.4965 13.3081 8 13.3081C7.38321 13.309 6.76897 13.229 6.173 13.0701C5.96473 13.0143 5.74319 13.0374 5.55088 13.1348C5.21225 13.3063 4.46587 13.6336 3.24612 13.9162C3.41629 13.345 3.53288 12.7591 3.59437 12.1662V12.1662Z" fill="white"/>
</svg>
