<svg width="25" height="25" viewBox="0 0 25 25" fill="none" xmlns="http://www.w3.org/2000/svg">
<path fill-rule="evenodd" clip-rule="evenodd" d="M4.39844 10.5806C4.39844 7.26686 7.08473 4.58057 10.3984 4.58057C13.7121 4.58057 16.3984 7.26686 16.3984 10.5806C16.3984 13.8943 13.7121 16.5806 10.3984 16.5806C7.08473 16.5806 4.39844 13.8943 4.39844 10.5806ZM10.3984 2.58057C5.98016 2.58057 2.39844 6.16229 2.39844 10.5806C2.39844 14.9988 5.98016 18.5806 10.3984 18.5806C12.2471 18.5806 13.9494 17.9535 15.304 16.9005L20.6912 22.2877C21.0818 22.6782 21.7149 22.6782 22.1054 22.2877C22.496 21.8971 22.496 21.264 22.1054 20.8735L16.7183 15.4863C17.7713 14.1316 18.3984 12.4293 18.3984 10.5806C18.3984 6.16229 14.8167 2.58057 10.3984 2.58057Z" fill="#BEBEBE"/>
</svg>
