<svg width="15" height="11" viewBox="0 0 15 11" fill="none" xmlns="http://www.w3.org/2000/svg">
<path d="M4.49996 8.47494L1.60829 5.58328C1.45248 5.42746 1.24115 5.33992 1.02079 5.33992C0.800437 5.33992 0.589107 5.42746 0.433292 5.58328C0.277477 5.73909 0.189941 5.95042 0.189941 6.17078C0.189941 6.27988 0.211432 6.38792 0.253186 6.48873C0.29494 6.58953 0.35614 6.68112 0.433292 6.75828L3.91663 10.2416C4.24163 10.5666 4.76663 10.5666 5.09163 10.2416L13.9083 1.42494C14.0641 1.26913 14.1516 1.0578 14.1516 0.837442C14.1516 0.617087 14.0641 0.405757 13.9083 0.249942C13.7525 0.0941278 13.5411 0.0065918 13.3208 0.0065918C13.1004 0.0065918 12.8891 0.0941278 12.7333 0.249942L4.49996 8.47494Z" fill="black"/>
</svg>
