<svg width="37" height="36" viewBox="0 0 37 36" fill="none" xmlns="http://www.w3.org/2000/svg">
<path d="M10.0956 12C10.3343 12 10.5632 11.9052 10.732 11.7364C10.9008 11.5676 10.9956 11.3387 10.9956 11.1V5.4C10.9956 5.16131 11.0904 4.93239 11.2592 4.7636C11.428 4.59482 11.6569 4.5 11.8956 4.5H25.0956C25.2138 4.5 25.3308 4.52328 25.44 4.56851C25.5492 4.61374 25.6484 4.68003 25.732 4.7636C25.8156 4.84718 25.8819 4.94639 25.9271 5.05558C25.9723 5.16478 25.9956 5.28181 25.9956 5.4V11.1C25.9956 11.3387 26.0904 11.5676 26.2592 11.7364C26.428 11.9052 26.6569 12 26.8956 12H29.5956C29.7138 12 29.8308 12.0233 29.94 12.0685C30.0492 12.1137 30.1484 12.18 30.232 12.2636C30.3156 12.3472 30.3819 12.4464 30.4271 12.5556C30.4723 12.6648 30.4956 12.7818 30.4956 12.9V30.6C30.4956 30.7182 30.4723 30.8352 30.4271 30.9444C30.3819 31.0536 30.3156 31.1528 30.232 31.2364C30.1484 31.32 30.0492 31.3863 29.94 31.4315C29.8308 31.4767 29.7138 31.5 29.5956 31.5H7.39561C7.15691 31.5 6.92799 31.4052 6.75921 31.2364C6.59043 31.0676 6.49561 30.8387 6.49561 30.6V12.9C6.49561 12.6613 6.59043 12.4324 6.75921 12.2636C6.92799 12.0948 7.15691 12 7.39561 12H10.0956V12Z" stroke="#DEDEDE" stroke-width="2.25"/>
<path d="M15.4836 12H18.4836M21.4836 12H18.4836M18.4836 12V9M18.4836 12V15M24.4956 25.515L24.5106 25.4985M24.4956 19.515L24.5106 19.4985M18.4956 19.515L18.5106 19.4985M12.4956 19.515L12.5106 19.4985M12.4956 25.515L12.5106 25.4985M18.4956 25.515L18.5106 25.4985" stroke="#DEDEDE" stroke-width="2.25" stroke-linecap="round" stroke-linejoin="round"/>
</svg>
