<svg width="36" height="36" viewBox="0 0 36 36" fill="none" xmlns="http://www.w3.org/2000/svg">
<path d="M9.59512 12C9.83381 12 10.0627 11.9052 10.2315 11.7364C10.4003 11.5676 10.4951 11.3387 10.4951 11.1V5.4C10.4951 5.16131 10.5899 4.93239 10.7587 4.7636C10.9275 4.59482 11.1564 4.5 11.3951 4.5H24.5951C24.7133 4.5 24.8303 4.52328 24.9395 4.56851C25.0487 4.61374 25.1479 4.68003 25.2315 4.7636C25.3151 4.84718 25.3814 4.94639 25.4266 5.05558C25.4718 5.16478 25.4951 5.28181 25.4951 5.4V11.1C25.4951 11.3387 25.5899 11.5676 25.7587 11.7364C25.9275 11.9052 26.1564 12 26.3951 12H29.0951C29.2133 12 29.3303 12.0233 29.4395 12.0685C29.5487 12.1137 29.6479 12.18 29.7315 12.2636C29.8151 12.3472 29.8814 12.4464 29.9266 12.5556C29.9718 12.6648 29.9951 12.7818 29.9951 12.9V30.6C29.9951 30.7182 29.9718 30.8352 29.9266 30.9444C29.8814 31.0536 29.8151 31.1528 29.7315 31.2364C29.6479 31.32 29.5487 31.3863 29.4395 31.4315C29.3303 31.4767 29.2133 31.5 29.0951 31.5H6.89512C6.65642 31.5 6.4275 31.4052 6.25872 31.2364C6.08994 31.0676 5.99512 30.8387 5.99512 30.6V12.9C5.99512 12.6613 6.08994 12.4324 6.25872 12.2636C6.4275 12.0948 6.65642 12 6.89512 12H9.59512V12Z" stroke="#DEDEDE" stroke-width="2.25"/>
<path d="M14.9831 12H17.9831M20.9831 12H17.9831M17.9831 12V9M17.9831 12V15M23.9951 25.515L24.0101 25.4985M23.9951 19.515L24.0101 19.4985M17.9951 19.515L18.0101 19.4985M11.9951 19.515L12.0101 19.4985M11.9951 25.515L12.0101 25.4985M17.9951 25.515L18.0101 25.4985" stroke="#DEDEDE" stroke-width="2.25" stroke-linecap="round" stroke-linejoin="round"/>
</svg>
