<svg width="25" height="24" viewBox="0 0 25 24" fill="none" xmlns="http://www.w3.org/2000/svg">
<path fill-rule="evenodd" clip-rule="evenodd" d="M9.48277 3.11697C9.7009 3.26846 9.74488 3.55474 9.58102 3.75639C9.3007 4.10138 9.28443 4.306 9.30832 4.44344C9.33877 4.6186 9.4434 4.77952 9.62379 5.05696C9.63211 5.06976 9.6406 5.08281 9.64924 5.09612C9.82652 5.36904 10.0538 5.73289 10.1027 6.19953C10.1531 6.67903 10.0117 7.20214 9.60632 7.80868C9.46293 8.02325 9.15854 8.08972 8.92645 7.95716C8.69436 7.82459 8.62245 7.54318 8.76585 7.32861C9.0896 6.84415 9.14369 6.51898 9.11942 6.28775C9.0938 6.04364 8.97633 5.83429 8.80229 5.56636C8.78743 5.54348 8.77175 5.51967 8.75548 5.49497C8.60173 5.26153 8.39547 4.94836 8.33289 4.58838C8.25572 4.1445 8.39527 3.69498 8.79113 3.2078C8.95499 3.00615 9.26465 2.96548 9.48277 3.11697Z" fill="#DCDCDC"/>
<path fill-rule="evenodd" clip-rule="evenodd" d="M12.8011 3.11697C13.0193 3.26846 13.0632 3.55474 12.8994 3.75639C12.6191 4.10138 12.6028 4.306 12.6267 4.44344C12.6571 4.6186 12.7618 4.77952 12.9421 5.05696C12.9505 5.06976 12.959 5.08281 12.9676 5.09612C13.1449 5.36904 13.3721 5.73289 13.4211 6.19953C13.4714 6.67903 13.33 7.20214 12.9247 7.80868C12.7813 8.02325 12.4769 8.08972 12.2448 7.95716C12.0127 7.82459 11.9408 7.54318 12.0842 7.32861C12.408 6.84415 12.4621 6.51898 12.4378 6.28775C12.4122 6.04364 12.2947 5.83429 12.1206 5.56636C12.1058 5.54348 12.0901 5.51967 12.0738 5.49497C11.9201 5.26153 11.7138 4.94836 11.6512 4.58838C11.5741 4.1445 11.7136 3.69498 12.1095 3.2078C12.2734 3.00615 12.583 2.96548 12.8011 3.11697Z" fill="#DCDCDC"/>
<path fill-rule="evenodd" clip-rule="evenodd" d="M16.1205 3.11697C16.3386 3.26846 16.3826 3.55474 16.2187 3.75639C15.9384 4.10138 15.9221 4.306 15.946 4.44344C15.9765 4.6186 16.0811 4.77952 16.2615 5.05696C16.2698 5.06976 16.2783 5.08281 16.2869 5.09612C16.4642 5.36904 16.6915 5.73289 16.7404 6.19953C16.7908 6.67903 16.6494 7.20214 16.244 7.80868C16.1006 8.02325 15.7962 8.08972 15.5641 7.95716C15.3321 7.82459 15.2601 7.54318 15.4035 7.32861C15.7273 6.84415 15.7814 6.51898 15.7571 6.28775C15.7315 6.04364 15.614 5.83429 15.44 5.56636C15.4251 5.54348 15.4094 5.51967 15.3932 5.49497C15.2394 5.26153 15.0332 4.94836 14.9706 4.58838C14.8934 4.1445 15.033 3.69498 15.4288 3.2078C15.5927 3.00615 15.9023 2.96548 16.1205 3.11697Z" fill="#DCDCDC"/>
<path fill-rule="evenodd" clip-rule="evenodd" d="M16.5911 11C16.5911 10.7239 16.815 10.5 17.0911 10.5H20.4985C21.3269 10.5 21.9985 11.1716 21.9985 12V15C21.9985 15.8284 21.3269 16.5 20.4985 16.5H15.9893C15.7131 16.5 15.4893 16.2761 15.4893 16C15.4893 15.7239 15.7131 15.5 15.9893 15.5H20.4985C20.7746 15.5 20.9985 15.2761 20.9985 15V12C20.9985 11.7239 20.7746 11.5 20.4985 11.5H17.0911C16.815 11.5 16.5911 11.2761 16.5911 11Z" fill="#BBBBBB"/>
<path d="M4.99805 10.2568C4.99805 9.70455 5.44576 9.25684 5.99805 9.25684H18.998C19.5503 9.25684 19.998 9.70455 19.998 10.2568V12H4.99805V10.2568Z" fill="#E5E5E5"/>
<path fill-rule="evenodd" clip-rule="evenodd" d="M4.98047 12.0005V12.4785C4.98047 16.6328 8.3482 20.0005 12.5025 20.0005C16.6568 20.0005 20.0245 16.6328 20.0245 12.4785V12.0005H4.98047Z" fill="#A0593B"/>
<rect x="5.03125" y="19" width="15" height="2" rx="1" fill="#BBBBBB"/>
</svg>
