<svg width="28" height="33" viewBox="0 0 28 33" fill="none" xmlns="http://www.w3.org/2000/svg">
<g filter="url(#filter0_d_3698_22172)">
<mask id="path-1-outside-1_3698_22172" maskUnits="userSpaceOnUse" x="3" y="3.57349" width="20" height="24" fill="black">
<rect fill="white" x="3" y="3.57349" width="20" height="24"/>
<path fill-rule="evenodd" clip-rule="evenodd" d="M18.6569 7.98433C17.1566 6.44069 15.1217 5.57349 13 5.57349C10.8783 5.57349 8.84344 6.44069 7.34315 7.98433C5.84286 9.52797 5 11.6216 5 13.8046C5 17.2051 7.27036 20.9028 11.752 24.9382L12.0622 25.2151C12.3225 25.446 12.6547 25.5732 12.9985 25.5735C13.3422 25.5738 13.6746 25.4472 13.9354 25.2168C18.6246 21.0733 21 17.2828 21 13.8046C21 11.6216 20.1571 9.52797 18.6569 7.98433Z"/>
</mask>
<path fill-rule="evenodd" clip-rule="evenodd" d="M18.6569 7.98433C17.1566 6.44069 15.1217 5.57349 13 5.57349C10.8783 5.57349 8.84344 6.44069 7.34315 7.98433C5.84286 9.52797 5 11.6216 5 13.8046C5 17.2051 7.27036 20.9028 11.752 24.9382L12.0622 25.2151C12.3225 25.446 12.6547 25.5732 12.9985 25.5735C13.3422 25.5738 13.6746 25.4472 13.9354 25.2168C18.6246 21.0733 21 17.2828 21 13.8046C21 11.6216 20.1571 9.52797 18.6569 7.98433Z" fill="#FF8D06"/>
<path d="M18.6569 7.98433L17.2226 9.37826L18.6569 7.98433ZM7.34315 7.98433L8.77735 9.37826V9.37826L7.34315 7.98433ZM11.752 24.9382L10.4137 26.4245L10.42 26.4301L11.752 24.9382ZM12.0622 25.2151L10.7302 26.707L10.735 26.7113L12.0622 25.2151ZM12.9985 25.5735L12.9967 27.5735H12.9967L12.9985 25.5735ZM13.9354 25.2168L12.6111 23.718L12.6109 23.7182L13.9354 25.2168ZM13 7.57349C14.5726 7.57349 16.0928 8.21572 17.2226 9.37826L20.0911 6.59039C18.2204 4.66566 15.6708 3.57349 13 3.57349V7.57349ZM8.77735 9.37826C9.90725 8.21572 11.4274 7.57349 13 7.57349V3.57349C10.3292 3.57349 7.77963 4.66566 5.90894 6.59039L8.77735 9.37826ZM7 13.8046C7 12.1339 7.64558 10.5427 8.77735 9.37826L5.90894 6.59039C4.04013 8.51319 3 11.1092 3 13.8046H7ZM13.0903 23.4519C8.71406 19.5115 7 16.3201 7 13.8046H3C3 18.0902 5.82666 22.2942 10.4137 26.4244L13.0903 23.4519ZM13.3941 23.7232L13.084 23.4462L10.42 26.4301L10.7302 26.707L13.3941 23.7232ZM13.0003 23.5735C13.1517 23.5736 13.2892 23.6301 13.3893 23.7189L10.735 26.7113C11.3558 27.2619 12.1578 27.5727 12.9967 27.5735L13.0003 23.5735ZM12.6109 23.7182C12.7112 23.6296 12.8489 23.5734 13.0003 23.5735L12.9967 27.5735C13.8355 27.5742 14.6381 27.2649 15.2599 26.7153L12.6109 23.7182ZM19 13.8046C19 16.3807 17.2018 19.6616 12.6111 23.718L15.2597 26.7155C20.0474 22.485 23 18.1849 23 13.8046H19ZM17.2226 9.37826C18.3544 10.5427 19 12.1339 19 13.8046H23C23 11.1092 21.9599 8.51319 20.0911 6.59039L17.2226 9.37826Z" fill="white" mask="url(#path-1-outside-1_3698_22172)"/>
</g>
<circle cx="13" cy="13.5735" r="2" fill="white"/>
<defs>
<filter id="filter0_d_3698_22172" x="0" y="0.573486" width="28" height="32" filterUnits="userSpaceOnUse" color-interpolation-filters="sRGB">
<feFlood flood-opacity="0" result="BackgroundImageFix"/>
<feColorMatrix in="SourceAlpha" type="matrix" values="0 0 0 0 0 0 0 0 0 0 0 0 0 0 0 0 0 0 127 0" result="hardAlpha"/>
<feOffset dx="1" dy="1"/>
<feGaussianBlur stdDeviation="2"/>
<feComposite in2="hardAlpha" operator="out"/>
<feColorMatrix type="matrix" values="0 0 0 0 0 0 0 0 0 0 0 0 0 0 0 0 0 0 0.3 0"/>
<feBlend mode="normal" in2="BackgroundImageFix" result="effect1_dropShadow_3698_22172"/>
<feBlend mode="normal" in="SourceGraphic" in2="effect1_dropShadow_3698_22172" result="shape"/>
</filter>
</defs>
</svg>
