<svg width="16" height="16" viewBox="0 0 16 16" fill="none" xmlns="http://www.w3.org/2000/svg">
<path d="M8.00001 1.5C6.87113 1.49991 5.7617 1.79383 4.78094 2.35281C3.80017 2.91179 2.9819 3.71655 2.40667 4.68788C1.83145 5.6592 1.51911 6.76359 1.5004 7.8923C1.4817 9.02102 1.75728 10.1352 2.30001 11.125L1.76876 13C1.7192 13.1709 1.71641 13.3519 1.76069 13.5242C1.80497 13.6965 1.89469 13.8537 2.02048 13.9795C2.14627 14.1053 2.30353 14.195 2.47582 14.2393C2.64812 14.2836 2.82915 14.2808 3.00001 14.2312L4.87501 13.7C5.74393 14.1762 6.71024 14.4475 7.70008 14.4931C8.68991 14.5387 9.67707 14.3574 10.5861 13.963C11.4951 13.5686 12.3019 12.9717 12.9449 12.2177C13.5879 11.4638 14.0499 10.5728 14.2958 9.61289C14.5417 8.65299 14.5649 7.64959 14.3635 6.67938C14.1622 5.70916 13.7417 4.79781 13.1343 4.01499C12.5268 3.23217 11.7483 2.5986 10.8585 2.16271C9.96863 1.72682 8.99089 1.50014 8.00001 1.5ZM8.00001 13.5C7.0127 13.4991 6.04368 13.2336 5.19376 12.7312C5.11533 12.6875 5.02729 12.6639 4.93751 12.6625C4.89104 12.6626 4.84479 12.6689 4.80001 12.6812L2.72501 13.275L3.31876 11.2C3.33702 11.1343 3.34201 11.0657 3.33342 10.9981C3.32484 10.9305 3.30285 10.8653 3.26876 10.8062C2.6496 9.76261 2.39298 8.5435 2.53886 7.33881C2.68474 6.13413 3.22493 5.01151 4.07529 4.14581C4.92566 3.28012 6.03844 2.71996 7.24033 2.55257C8.44221 2.38519 9.66571 2.61999 10.7203 3.22039C11.7748 3.8208 12.6012 4.7531 13.0707 5.87209C13.5401 6.99107 13.6264 8.23391 13.316 9.40701C13.0055 10.5801 12.3158 11.6176 11.3543 12.3579C10.3928 13.0982 9.21349 13.4998 8.00001 13.5ZM8.75001 8C8.75001 8.14834 8.70602 8.29334 8.62361 8.41668C8.5412 8.54001 8.42406 8.63614 8.28702 8.69291C8.14997 8.74967 7.99917 8.76453 7.85369 8.73559C7.7082 8.70665 7.57456 8.63522 7.46968 8.53033C7.36479 8.42544 7.29335 8.2918 7.26442 8.14632C7.23548 8.00083 7.25033 7.85003 7.3071 7.71299C7.36386 7.57594 7.45999 7.45881 7.58333 7.3764C7.70666 7.29399 7.85167 7.25 8.00001 7.25C8.19892 7.25 8.38968 7.32902 8.53033 7.46967C8.67099 7.61032 8.75001 7.80109 8.75001 8ZM5.75001 8C5.75001 8.14834 5.70602 8.29334 5.62361 8.41668C5.5412 8.54001 5.42406 8.63614 5.28702 8.69291C5.14997 8.74967 4.99917 8.76453 4.85369 8.73559C4.7082 8.70665 4.57456 8.63522 4.46968 8.53033C4.36479 8.42544 4.29336 8.2918 4.26442 8.14632C4.23548 8.00083 4.25033 7.85003 4.3071 7.71299C4.36386 7.57594 4.45999 7.45881 4.58333 7.3764C4.70666 7.29399 4.85167 7.25 5.00001 7.25C5.19892 7.25 5.38968 7.32902 5.53034 7.46967C5.67099 7.61032 5.75001 7.80109 5.75001 8ZM11.75 8C11.75 8.14834 11.706 8.29334 11.6236 8.41668C11.5412 8.54001 11.4241 8.63614 11.287 8.69291C11.15 8.74967 10.9992 8.76453 10.8537 8.73559C10.7082 8.70665 10.5746 8.63522 10.4697 8.53033C10.3648 8.42544 10.2934 8.2918 10.2644 8.14632C10.2355 8.00083 10.2503 7.85003 10.3071 7.71299C10.3639 7.57594 10.46 7.45881 10.5833 7.3764C10.7067 7.29399 10.8517 7.25 11 7.25C11.1989 7.25 11.3897 7.32902 11.5303 7.46967C11.671 7.61032 11.75 7.80109 11.75 8Z" fill="black"/>
</svg>
