<svg width="16" height="16" viewBox="0 0 16 16" fill="none" xmlns="http://www.w3.org/2000/svg">
<path d="M14.2361 3.20693C14.1926 3.17046 14.1408 3.14515 14.0853 3.13317C14.0297 3.12119 13.9721 3.12291 13.9174 3.13818L10.0486 4.10068L6.17364 2.16318H6.16739L6.12989 2.14443H6.08614C6.08614 2.13818 6.07989 2.13818 6.07364 2.13818H5.91739L1.91739 3.13818C1.8353 3.15673 1.76202 3.20279 1.70972 3.26873C1.65742 3.33468 1.62925 3.41652 1.62989 3.50068V12.5007C1.63056 12.5572 1.64381 12.6129 1.66867 12.6638C1.69353 12.7146 1.72939 12.7592 1.77364 12.7944C1.83895 12.8475 1.92071 12.8763 2.00489 12.8757L2.09864 12.8632L5.96114 11.9007L9.83614 13.8382L9.87989 13.8569H9.89239L9.93614 13.8694H10.0986L14.0986 12.8694C14.1796 12.8497 14.2514 12.8031 14.3025 12.7373C14.3536 12.6714 14.3809 12.5902 14.3799 12.5069V3.50068C14.3806 3.44388 14.368 3.3877 14.343 3.33668C14.3181 3.28565 14.2814 3.24121 14.2361 3.20693ZM2.37989 3.79443L5.62989 2.98193V11.2069L2.37989 12.0194V3.79443ZM9.62989 12.8944L6.37989 11.2694V3.10693L9.62989 4.73193V12.8944ZM13.6299 12.2069L10.3799 13.0194V4.79443L13.6299 3.98193V12.2069Z" fill="#444444" stroke="#444444" stroke-width="0.333333"/>
</svg>
