<svg width="25" height="24" viewBox="0 0 25 24" fill="none" xmlns="http://www.w3.org/2000/svg">
<path d="M4.32324 9.45455C4.32324 6.44208 6.76533 4 9.77779 4H14.8687C17.8812 4 20.3232 6.44208 20.3232 9.45455C20.3232 9.75579 20.079 10 19.7778 10H4.8687C4.56745 10 4.32324 9.75579 4.32324 9.45455Z" fill="#FFB340"/>
<path d="M4.32324 17.2727C4.32324 18.779 5.54428 20 7.05051 20H17.596C19.1022 20 20.3232 18.779 20.3232 17.2727C20.3232 17.1221 20.2011 17 20.0505 17H4.59597C4.44535 17 4.32324 17.1221 4.32324 17.2727Z" fill="#FFB340"/>
<rect x="3.84082" y="15" width="17" height="2" rx="1" fill="#6B3A32"/>
<rect x="3.84082" y="10" width="17" height="2" rx="1" fill="#FFEB3B"/>
<rect x="3.84082" y="12" width="17" height="1.5" rx="0.75" fill="#DC293C"/>
<rect x="3.84082" y="13.5" width="17" height="1" rx="0.5" fill="#48C75B"/>
<circle cx="9.0752" cy="6.21582" r="0.5" fill="#E69F36"/>
<circle cx="7.57129" cy="7.21582" r="0.5" fill="#E69F36"/>
<circle cx="10.5801" cy="7.21582" r="0.5" fill="#E69F36"/>
<path fill-rule="evenodd" clip-rule="evenodd" d="M12.3233 10.9492C12.0807 10.9492 11.873 11.1234 11.8309 11.3624C11.7887 11.6013 11.9242 11.836 12.1522 11.9191L14.899 12.9191C15.0206 12.9633 15.1546 12.9587 15.2729 12.9062L17.5261 11.9062C17.742 11.8104 17.8614 11.5766 17.8124 11.3456C17.7635 11.1145 17.5595 10.9492 17.3233 10.9492H12.3233Z" fill="#FFEB3B"/>
<path fill-rule="evenodd" clip-rule="evenodd" d="M20.8398 14.0294C20.4194 14.0918 20.151 14.2409 19.9565 14.349L19.9546 14.35L19.9429 14.3564C19.7598 14.4568 19.6812 14.5 19.4607 14.5C19.2402 14.5 19.1615 14.4568 18.9785 14.3564L18.9667 14.35C18.7181 14.21 18.3384 14 17.6663 14C16.9959 14 16.6198 14.209 16.3678 14.349L16.3659 14.35L16.3541 14.3564C16.1711 14.4568 16.0924 14.5 15.8719 14.5C15.6501 14.5 15.5718 14.4563 15.3895 14.3546L15.3813 14.35C15.136 14.21 14.7597 14 14.0876 14C13.4156 14 13.0392 14.21 12.7905 14.35L12.7786 14.3565C12.5957 14.4569 12.5171 14.5 12.2999 14.5C12.0796 14.5 11.9986 14.4556 11.8097 14.352L11.806 14.35C11.5573 14.21 11.1776 14 10.5056 14C9.83518 14 9.45903 14.209 9.20702 14.349L9.20513 14.35L9.19339 14.3564C9.01034 14.4568 8.93165 14.5 8.71117 14.5C8.4907 14.5 8.41201 14.4568 8.22896 14.3564L8.21722 14.35C7.96855 14.21 7.58884 14 6.91679 14C6.24641 14 5.87026 14.209 5.61825 14.349L5.61637 14.35L5.60462 14.3564C5.42157 14.4568 5.34288 14.5 5.12241 14.5C4.90056 14.5 4.82227 14.4563 4.63999 14.3546L4.63181 14.35C4.4538 14.2498 4.21036 14.1137 3.83984 14.0444V15.1563C4.08868 15.2962 4.46703 15.5 5.12913 15.5C5.79951 15.5 6.17566 15.291 6.42767 15.151L6.42955 15.15L6.4413 15.1436C6.62435 15.0432 6.70303 15 6.92351 15C7.14399 15 7.22267 15.0432 7.40572 15.1436L7.41747 15.15C7.66613 15.29 8.04584 15.5 8.7179 15.5C9.38828 15.5 9.76443 15.291 10.0164 15.151L10.0183 15.15L10.0301 15.1436C10.2131 15.0432 10.2918 15 10.5123 15C10.7328 15 10.8114 15.0432 10.9945 15.1436L11.0062 15.15C11.2549 15.29 11.6346 15.5 12.3067 15.5C12.977 15.5 13.3532 15.291 13.6052 15.151L13.6071 15.15C13.7953 15.045 13.8759 15 14.0977 15C14.3195 15 14.4001 15.045 14.5883 15.15C14.8369 15.29 15.2167 15.5 15.8887 15.5C16.5591 15.5 16.9352 15.291 17.1873 15.151L17.1891 15.15L17.2009 15.1436C17.3839 15.0432 17.4626 15 17.6831 15C17.9036 15 17.9823 15.0432 18.1653 15.1436L18.1771 15.15C18.4257 15.29 18.8054 15.5 19.4775 15.5C20.1479 15.5 20.524 15.291 20.776 15.151L20.7779 15.15L20.7896 15.1436C20.8073 15.1339 20.8239 15.1248 20.8398 15.1161V14.0294Z" fill="#48C75B"/>
</svg>
