<svg width="298" height="268" viewBox="0 0 298 268" fill="none" xmlns="http://www.w3.org/2000/svg">
<g clip-path="url(#clip0_2659_17781)">
<path d="M298 0H0V268H298V0Z" fill="white"/>
<path d="M26 44.3903C29.3137 44.3903 32 47.0766 32 50.3903C32 53.704 29.3137 56.3903 26 56.3903C22.6863 56.3903 20 53.704 20 50.3903C20 47.0766 22.6863 44.3903 26 44.3903Z" fill="#41D6B2"/>
<path d="M44.9277 47.6641H46.3027V48.5342H44.9277V50.9404H43.9072V45.2686H44.9277V47.6641ZM37.29 50.0273C38.2139 50.0273 39.0518 50.0184 39.8037 50.0005V49.458C39.2415 49.4079 38.8029 49.2736 38.4878 49.0552C38.1727 48.8332 38.0169 48.5449 38.0205 48.1904C38.0169 47.9326 38.1082 47.7106 38.2944 47.5244C38.4806 47.3346 38.7456 47.1914 39.0894 47.0947C39.4367 46.9945 39.8431 46.9443 40.3086 46.9443C40.7705 46.9443 41.1733 46.9945 41.5171 47.0947C41.8608 47.1914 42.1258 47.3346 42.312 47.5244C42.5018 47.7106 42.5967 47.9326 42.5967 48.1904C42.5931 48.5413 42.4338 48.8278 42.1187 49.0498C41.8071 49.2682 41.3757 49.4043 40.8242 49.458V49.9575C41.7588 49.9181 42.6038 49.8447 43.3594 49.7373L43.4453 50.4033C42.5322 50.5537 41.5869 50.6504 40.6094 50.6934C39.6354 50.7363 38.5648 50.7578 37.3975 50.7578L37.29 50.0273ZM37.5371 45.9561H39.8037V45.1826H40.8242V45.9561H43.0908V46.665H37.5371V45.9561ZM38.5684 51.3486H44.9277V53.3574H39.6104V54.0879H45.2822V54.7969H38.5898V52.7021H43.918V52.0576H38.5684V51.3486ZM38.9873 48.1904C38.9873 48.3838 39.1037 48.536 39.3364 48.647C39.5728 48.758 39.8968 48.8135 40.3086 48.8135C40.7168 48.8135 41.0373 48.758 41.27 48.647C41.5063 48.536 41.6227 48.3838 41.6191 48.1904C41.6227 48.0078 41.5063 47.8664 41.27 47.7661C41.0373 47.6623 40.7168 47.6104 40.3086 47.6104C39.8932 47.6104 39.5692 47.6623 39.3364 47.7661C39.1037 47.8664 38.9873 48.0078 38.9873 48.1904ZM50.2773 46.708C50.2773 47.1556 50.3704 47.5817 50.5566 47.9863C50.7428 48.3874 51.0114 48.7401 51.3623 49.0444C51.7132 49.3488 52.1286 49.5798 52.6084 49.7373L52.0498 50.5322C51.5234 50.3389 51.0687 50.0632 50.6855 49.7051C50.3024 49.347 50.0052 48.9245 49.7939 48.4375C49.5827 48.9961 49.2712 49.4813 48.8594 49.8931C48.4476 50.3049 47.9535 50.6146 47.377 50.8223L46.8291 50.0059C47.334 49.834 47.769 49.5851 48.1343 49.2593C48.4995 48.9299 48.7788 48.5503 48.9722 48.1206C49.1655 47.6909 49.264 47.2344 49.2676 46.751V45.8057H50.2773V46.708ZM48.4082 53.0566C48.4082 52.6699 48.5371 52.3387 48.7949 52.063C49.0563 51.7873 49.4305 51.5778 49.9175 51.4346C50.408 51.2913 50.9899 51.2197 51.6631 51.2197C52.3327 51.2197 52.911 51.2913 53.3979 51.4346C53.8849 51.5778 54.2591 51.7873 54.5205 52.063C54.7855 52.3387 54.918 52.6699 54.918 53.0566C54.918 53.4398 54.7855 53.7674 54.5205 54.0396C54.2591 54.3117 53.8849 54.5176 53.3979 54.6572C52.911 54.8005 52.3327 54.8721 51.6631 54.8721C50.9899 54.8721 50.408 54.8005 49.9175 54.6572C49.4305 54.5176 49.0563 54.3117 48.7949 54.0396C48.5371 53.7674 48.4082 53.4398 48.4082 53.0566ZM49.418 53.0566C49.418 53.2679 49.5039 53.4487 49.6758 53.5991C49.8512 53.7495 50.1055 53.8659 50.4385 53.9482C50.7715 54.027 51.1689 54.0664 51.6309 54.0664C52.347 54.0664 52.9038 53.9787 53.3013 53.8032C53.7023 53.6278 53.9046 53.3789 53.9082 53.0566C53.9046 52.7272 53.7041 52.4712 53.3066 52.2886C52.9128 52.106 52.3649 52.0146 51.6631 52.0146C50.9541 52.0146 50.4009 52.106 50.0034 52.2886C49.6095 52.4712 49.4144 52.7272 49.418 53.0566ZM51.835 47.2236H53.8652V45.2686H54.8857V50.9512H53.8652V48.0615H51.835V47.2236ZM63.9092 49.2969H65.3594V50.1562H63.9092V54.8936H62.8887V45.2686H63.9092V49.2969ZM56.25 52.2725C57.3421 52.2725 58.1943 52.2635 58.8066 52.2456V51.2681C58.445 51.2144 58.1281 51.1087 57.856 50.9512C57.5874 50.7936 57.3797 50.5931 57.2329 50.3496C57.0897 50.1025 57.0199 49.8268 57.0234 49.5225C57.0199 49.1644 57.113 48.8493 57.3027 48.5771C57.4961 48.305 57.7664 48.0938 58.1138 47.9434C58.4647 47.793 58.8675 47.7178 59.3223 47.7178C59.7734 47.7178 60.1745 47.793 60.5254 47.9434C60.8763 48.0938 61.1502 48.305 61.3472 48.5771C61.5441 48.8493 61.6426 49.1644 61.6426 49.5225C61.6426 49.8268 61.5674 50.1025 61.417 50.3496C61.2666 50.5931 61.0535 50.7954 60.7778 50.9565C60.5057 51.1141 60.1888 51.2179 59.8271 51.2681V52.208C60.7725 52.1615 61.6104 52.0863 62.3408 51.9824L62.4053 52.7344C61.5352 52.8883 60.6346 52.9922 59.7036 53.0459C58.7762 53.096 57.7987 53.1211 56.771 53.1211H56.4111L56.25 52.2725ZM56.4326 46.4072H58.8066V45.29H59.8271V46.4072H62.2012V47.2236H56.4326V46.4072ZM57.9795 49.5225C57.9795 49.723 58.035 49.8984 58.146 50.0488C58.257 50.1956 58.411 50.3102 58.6079 50.3926C58.8084 50.4714 59.0412 50.5107 59.3062 50.5107C59.7179 50.5107 60.0456 50.423 60.2891 50.2476C60.5361 50.0721 60.6615 49.8304 60.665 49.5225C60.665 49.3184 60.6077 49.1411 60.4932 48.9907C60.3822 48.8368 60.2246 48.7186 60.0205 48.6362C59.82 48.5539 59.5872 48.5127 59.3223 48.5127C59.0537 48.5127 58.8174 48.5539 58.6133 48.6362C58.4128 48.7186 58.257 48.8368 58.146 48.9907C58.035 49.1411 57.9795 49.3184 57.9795 49.5225Z" fill="#808080"/>
<path d="M26 63.21C29.3137 63.21 32 65.8963 32 69.21C32 72.5237 29.3137 75.21 26 75.21C22.6863 75.21 20 72.5237 20 69.21C20 65.8963 22.6863 63.21 26 63.21Z" fill="#EEEEEE"/>
<path d="M45.3252 73.7347H44.3047V64.0883H45.3252V73.7347ZM37.8916 64.8939H38.9121V67.3646H41.501V64.8939H42.5107V71.4252H37.8916V64.8939ZM41.501 70.5873V68.1703H38.9121V70.5873H41.501ZM54.4346 66.4838H55.8096V67.3539H54.4346V69.7601H53.4141V64.0883H54.4346V66.4838ZM46.7969 68.847C47.7207 68.847 48.5586 68.8381 49.3105 68.8202V68.2777C48.7484 68.2276 48.3097 68.0933 47.9946 67.8749C47.6795 67.6529 47.5238 67.3646 47.5273 67.0101C47.5238 66.7523 47.6151 66.5303 47.8013 66.3441C47.9875 66.1543 48.2524 66.0111 48.5962 65.9144C48.9435 65.8142 49.3499 65.764 49.8154 65.764C50.2773 65.764 50.6802 65.8142 51.0239 65.9144C51.3677 66.0111 51.6326 66.1543 51.8188 66.3441C52.0086 66.5303 52.1035 66.7523 52.1035 67.0101C52.0999 67.361 51.9406 67.6475 51.6255 67.8695C51.314 68.0879 50.8825 68.224 50.3311 68.2777V68.7772C51.2656 68.7378 52.1107 68.6644 52.8662 68.557L52.9521 69.223C52.0391 69.3734 51.0938 69.4701 50.1162 69.5131C49.1423 69.556 48.0716 69.5775 46.9043 69.5775L46.7969 68.847ZM47.0439 64.7758H49.3105V64.0023H50.3311V64.7758H52.5977V65.4847H47.0439V64.7758ZM48.0752 70.1683H54.4346V72.1771H49.1172V72.9076H54.7891V73.6166H48.0967V71.5219H53.4248V70.8773H48.0752V70.1683ZM48.4941 67.0101C48.4941 67.2035 48.6105 67.3557 48.8433 67.4667C49.0796 67.5777 49.4036 67.6332 49.8154 67.6332C50.2236 67.6332 50.5441 67.5777 50.7769 67.4667C51.0132 67.3557 51.1296 67.2035 51.126 67.0101C51.1296 66.8275 51.0132 66.6861 50.7769 66.5858C50.5441 66.482 50.2236 66.4301 49.8154 66.4301C49.4001 66.4301 49.076 66.482 48.8433 66.5858C48.6105 66.6861 48.4941 66.8275 48.4941 67.0101ZM59.7842 65.5277C59.7842 65.9753 59.8773 66.4014 60.0635 66.806C60.2497 67.2071 60.5182 67.5598 60.8691 67.8641C61.2201 68.1685 61.6354 68.3995 62.1152 68.557L61.5566 69.3519C61.0303 69.1586 60.5755 68.8829 60.1924 68.5248C59.8092 68.1667 59.512 67.7442 59.3008 67.2572C59.0895 67.8158 58.778 68.301 58.3662 68.7128C57.9544 69.1246 57.4603 69.4343 56.8838 69.642L56.3359 68.8256C56.8408 68.6537 57.2759 68.4048 57.6411 68.079C58.0063 67.7496 58.2856 67.37 58.479 66.9403C58.6724 66.5106 58.7708 66.0541 58.7744 65.5707V64.6254H59.7842V65.5277ZM57.915 71.8763C57.915 71.4896 58.0439 71.1584 58.3018 70.8827C58.5632 70.607 58.9373 70.3975 59.4243 70.2543C59.9149 70.111 60.4967 70.0394 61.1699 70.0394C61.8395 70.0394 62.4178 70.111 62.9048 70.2543C63.3918 70.3975 63.766 70.607 64.0273 70.8827C64.2923 71.1584 64.4248 71.4896 64.4248 71.8763C64.4248 72.2595 64.2923 72.5871 64.0273 72.8593C63.766 73.1314 63.3918 73.3373 62.9048 73.4769C62.4178 73.6202 61.8395 73.6918 61.1699 73.6918C60.4967 73.6918 59.9149 73.6202 59.4243 73.4769C58.9373 73.3373 58.5632 73.1314 58.3018 72.8593C58.0439 72.5871 57.915 72.2595 57.915 71.8763ZM58.9248 71.8763C58.9248 72.0876 59.0107 72.2684 59.1826 72.4188C59.3581 72.5692 59.6123 72.6856 59.9453 72.7679C60.2783 72.8467 60.6758 72.8861 61.1377 72.8861C61.8538 72.8861 62.4106 72.7984 62.8081 72.6229C63.2091 72.4475 63.4115 72.1986 63.415 71.8763C63.4115 71.5469 63.2109 71.2909 62.8135 71.1083C62.4196 70.9257 61.8717 70.8344 61.1699 70.8344C60.4609 70.8344 59.9077 70.9257 59.5103 71.1083C59.1164 71.2909 58.9212 71.5469 58.9248 71.8763ZM61.3418 66.0433H63.3721V64.0883H64.3926V69.7709H63.3721V66.8812H61.3418V66.0433ZM73.416 68.1166H74.8662V68.976H73.416V73.7133H72.3955V64.0883H73.416V68.1166ZM65.7568 71.0922C66.849 71.0922 67.7012 71.0832 68.3135 71.0653V70.0878C67.9518 70.0341 67.6349 69.9284 67.3628 69.7709C67.0942 69.6133 66.8866 69.4128 66.7397 69.1693C66.5965 68.9222 66.5267 68.6465 66.5303 68.3422C66.5267 67.9841 66.6198 67.669 66.8096 67.3969C67.0029 67.1247 67.2733 66.9135 67.6206 66.7631C67.9715 66.6127 68.3743 66.5375 68.8291 66.5375C69.2803 66.5375 69.6813 66.6127 70.0322 66.7631C70.3831 66.9135 70.6571 67.1247 70.854 67.3969C71.0509 67.669 71.1494 67.9841 71.1494 68.3422C71.1494 68.6465 71.0742 68.9222 70.9238 69.1693C70.7734 69.4128 70.5604 69.6151 70.2847 69.7762C70.0125 69.9338 69.6956 70.0376 69.334 70.0878V71.0277C70.2793 70.9812 71.1172 70.906 71.8477 70.8021L71.9121 71.5541C71.042 71.708 70.1414 71.8119 69.2104 71.8656C68.283 71.9157 67.3055 71.9408 66.2778 71.9408H65.918L65.7568 71.0922ZM65.9395 65.2269H68.3135V64.1097H69.334V65.2269H71.708V66.0433H65.9395V65.2269ZM67.4863 68.3422C67.4863 68.5427 67.5418 68.7181 67.6528 68.8685C67.7638 69.0153 67.9178 69.1299 68.1147 69.2123C68.3153 69.2911 68.548 69.3304 68.813 69.3304C69.2248 69.3304 69.5524 69.2427 69.7959 69.0673C70.043 68.8918 70.1683 68.6501 70.1719 68.3422C70.1719 68.1381 70.1146 67.9608 70 67.8104C69.889 67.6565 69.7314 67.5383 69.5273 67.4559C69.3268 67.3736 69.0941 67.3324 68.8291 67.3324C68.5605 67.3324 68.3242 67.3736 68.1201 67.4559C67.9196 67.5383 67.7638 67.6565 67.6528 67.8104C67.5418 67.9608 67.4863 68.1381 67.4863 68.3422Z" fill="#808080"/>
<path d="M235.901 242.156C234.599 242.491 233.995 242.673 233.38 242.8C228.114 243.94 233.949 249.469 227.207 250.887C226.345 251.121 225.229 252.056 225.048 252.854C223.679 259.75 213.83 254.545 213.101 260.798C212.065 267.562 213.247 267.24 205.485 266.557C202.236 266.271 200.08 264.006 197.399 262.69C194.245 261.141 193.279 258.8 192.514 255.453C191.102 249.274 189.992 243.178 190.517 236.838C190.678 234.9 189.62 234.159 187.801 233.621C181.354 231.716 177.589 235.837 173.674 239.63C172.623 240.649 172.14 242.153 170.203 242.161C165.979 242.338 168.508 238.792 167.172 236.434C165.629 233.516 162.936 233.382 160.036 236.202C157.741 231.123 154.306 226.857 153.871 220.91C153.516 216.049 153.225 211.296 154.035 206.495C154.155 205.785 154.181 205.02 154.478 204.386C155.782 201.602 155.411 199.115 153.919 196.418C152.952 194.67 152.04 193.612 150.01 193.828C147.702 194.073 146.883 192.934 147.135 190.533C148.729 190.533 150.309 190.484 151.886 190.543C155.723 190.687 158.898 189.463 161.577 186.595C165.469 182.427 169.564 178.448 173.633 174.329C181.609 183.977 176.526 189.102 181.676 193.714C182.522 194.477 183.006 195.878 183.205 197.064C183.802 205.68 183.31 210.356 191.984 214.736C194.861 216.176 196.865 218.237 197.566 221.64C198.346 225.433 199.619 229.129 200.767 232.841C201.31 234.595 202.422 235.121 204.289 234.379C206.021 233.691 207.888 233.11 209.73 232.989C212.173 232.829 213.477 231.538 214.546 229.589C216.185 226.6 222.333 224.847 225.244 226.675C226.115 227.222 227.045 228.586 226.996 229.526C226.576 236.518 231.763 237.655 235.903 242.158L235.901 242.156Z" fill="#EEEEEE"/>
<path d="M202.722 68.3673C205.692 68.027 207.244 66.3928 207.377 63.4648C207.421 62.529 207.305 61.4805 207.683 60.683C210.648 54.4338 209.567 47.5962 210.543 41.065C210.793 39.3882 209.973 37.33 209.099 35.7474C206.377 30.8194 206.923 26.0061 208.717 20.9612C209.669 18.285 210.179 15.3935 210.453 12.5574C210.664 10.3762 211.474 8.98535 213.504 8.36627C216.354 7.49709 218.734 6.02215 220.61 3.65753C221.677 2.31277 223.774 2.34454 225.313 3.51301C229.247 6.00165 232.183 10.3711 237.213 10.53C239.219 10.5997 239.612 12.0705 238.97 13.6172C238.401 14.9897 237.416 16.192 236.602 17.4619C232.444 24.3815 239.728 24.6439 240.384 31.0633C241.37 36.6976 236.001 33.7908 236.086 38.4708C235.985 41.5232 235.475 44.5622 235.368 47.6146C235.327 48.7779 235.848 49.9925 236.258 51.1313C236.971 53.1085 238.382 54.1437 240.568 54.0258C245.593 54.2359 248.341 54.5957 248.352 60.2454C248.458 61.6998 249.014 63.1788 249.626 64.5287C250.964 67.4776 249.783 70.1415 246.634 70.9287C244.278 71.518 242.825 74.1942 243.613 76.5548C243.859 77.2948 244.205 78.002 244.65 79.0721C241.16 80.4107 237.683 79.7055 234.121 80.2262C232.016 80.5327 229.927 81.2061 227.943 82.0005C225.804 82.8573 223.85 84.1837 221.704 85.02C220.742 85.3952 219.505 85.1379 218.4 85.059C214.597 84.7894 211.881 82.9588 209.926 79.6297C207.765 75.6846 204.697 72.4333 202.72 68.3673H202.722Z" fill="#EEEEEE"/>
<path d="M209.508 11.2248C208.416 17.2599 206.767 23.3482 205.595 29.3905C205.41 30.4903 205.826 31.8873 206.414 32.8846C208.962 37.1997 209.596 41.7168 208.712 46.6234C207.577 52.9218 206.707 59.2675 205.666 65.5823C205.594 66.0179 205.033 66.72 204.72 66.7098C203.37 66.6647 201.952 67.3473 200.744 65.8478C197.024 61.2303 193.093 56.7829 189.356 52.1787C187.944 50.4404 186.381 49.3672 184.091 49.1756C183.19 49.0997 182.205 48.4786 181.509 47.8349C179.811 46.2646 178.327 44.4658 176.628 42.8966C175.51 41.8644 175.425 40.7902 175.627 39.3901C176.668 32.1241 177.671 24.8519 176.069 17.5141C175.907 16.7699 176.441 15.8721 176.658 15.047C180.34 1.94164 174.987 2.73189 190.688 2.00006C191.231 1.98981 192.232 3.32638 192.282 4.08793C192.267 11.3888 200.715 5.40913 205.973 9.99281C206.767 10.615 207.972 10.7134 209.507 11.2248H209.508Z" fill="#EEEEEE"/>
<path d="M174.124 16.1338C175.038 19.9426 176.13 23.4142 175.241 27.2076C174.69 31.1384 174.99 35.2875 174.151 39.2213C173.82 41.0684 174.036 42.6263 175.449 43.9762C178.015 46.1266 180.472 50.2152 183.929 50.6601C185.606 50.7738 186.785 51.3991 187.787 52.6741C192.916 59.2032 198.06 65.721 203.233 72.2163C204.337 73.6031 204.29 74.8115 203.361 76.3162C201.959 78.5865 200.793 81.0024 199.544 83.366C198.374 85.5769 196.654 86.8652 194.052 86.8929C190.363 86.9329 186.674 87.0446 182.985 87.1307C180.908 87.1789 179.575 86.3968 179.152 84.1829C178.747 82.0602 177.921 80.0112 177.6 77.8824C177.303 75.9185 176.338 74.6301 174.804 73.4934C171.842 71.2979 169.021 68.9118 166.039 66.744C164.901 65.9158 163.539 65.2075 162.178 64.9164C160.272 64.5085 159.127 63.3697 158.188 61.8702C157.945 61.4807 157.699 60.8832 157.827 60.5049C159.35 55.9725 158.1 51.3437 158.349 46.7703C158.483 44.3226 158.261 41.8566 158.341 39.4038C158.582 37.0351 161.008 33.8874 162.32 31.8385C167.456 25.4283 163.628 19.0734 169.156 17.909C170.756 17.5442 172.271 16.8123 174.126 16.1338H174.124Z" fill="#EEEEEE"/>
<path d="M290.409 125.217C289.534 130.45 292.993 131.108 295.846 132.173C296.833 134.948 296.756 137.448 295.468 140.137C294.838 141.454 295.447 143.393 295.6 145.04C295.704 146.166 296.021 147.272 296.189 148.396C296.337 149.384 296.219 150.453 296.555 151.362C297.425 153.709 296.672 155.488 294.241 156.268C289.01 157.947 283.795 159.682 278.529 161.244C276.465 161.857 275.361 162.944 275.648 165.101C276.425 170.958 272.615 174.975 269.846 179.36C268.908 180.844 267.182 180.126 266.224 179.199C262.849 175.631 259.901 179.25 258.871 175.583C258.169 173.106 257.117 170.875 254.737 169.459C252.512 166.643 260.468 158.244 252.951 156.6C251.506 156.2 250.626 155.162 250.871 153.537C251.194 151.395 251.482 149.24 251.952 147.128C252.886 143.108 255.909 140.457 259.183 138.32C263.031 135.132 267.338 133.729 272.419 134.27C275.494 134.598 278.038 132.77 280.558 131.129C283.553 129.178 286.686 127.437 290.41 125.217H290.409Z" fill="#EEEEEE"/>
<path d="M127.555 167.14C134.279 160.503 137.147 157.049 140.94 148.483C141.279 147.861 141.998 147.068 142.591 147.022C147.13 146.676 151.681 146.411 156.232 146.329C157.238 146.31 158.523 146.873 159.223 147.605C162.457 151.274 166.039 149.294 169.939 150.388C172.439 151.258 173.988 152.902 174.909 155.769C176.426 160.493 175.931 163.537 171.663 166.836C166.333 170.958 161.907 176.254 157.15 181.1C155.495 182.843 153.513 183.618 151.143 183.569C145.38 184.39 140.848 182.861 137.353 177.753C134.701 173.79 130.534 170.915 127.554 167.14H127.555Z" fill="#EEEEEE"/>
<path d="M36.4393 184.518C39.9938 180.317 39.6837 175.774 39.4383 171.173C39.3275 166.254 40.3593 161.173 38.1067 156.546C35.966 151.258 42.3439 148.963 44.499 153.427C46.1499 156.925 47.2639 160.769 49.2013 164.101C52.2937 167.451 61.6326 168.116 64.5947 164.651C66.7795 162.096 69.1163 159.211 68.7908 155.213C68.6542 153.532 69.2785 151.723 69.8801 150.092C70.0526 149.624 71.3678 149.345 72.1399 149.383C73.2693 149.439 74.4223 150.188 75.4911 150.054C77.9418 149.744 78.9613 150.864 79.7026 152.999C80.8546 156.32 82.2355 159.566 83.6195 162.801C84.2807 164.347 83.5394 165.258 82.4963 166.149C81.4593 167.033 80.5291 168.11 79.3607 168.759C77.5845 169.749 77.4634 171.222 77.5106 172.943C77.3258 178.47 78.3391 183.174 75.105 188.06C74.9233 188.368 74.7539 188.909 74.5321 188.934C72.6091 189.151 70.6779 189.324 68.7456 189.414C66.4869 189.519 65.1337 188.545 64.6203 186.197C64.3893 185.14 63.5618 183.529 62.7969 183.4C58.5381 182.398 56.571 182.737 53.5894 186.239C51.4241 188.821 48.6017 189.502 45.4353 189.142C44.9353 189.086 44.1899 188.568 44.0821 188.136C43.5503 185.988 42.1345 185.309 40.0975 185.235C39.0461 185.197 38.0071 184.838 36.4404 184.517L36.4393 184.518Z" fill="#EEEEEE"/>
<path d="M241.229 125.071C235.774 125.959 231.02 129.761 224.964 127.855C223.605 115.16 222.632 101.984 221.414 89.2152C221.249 87.4409 221.793 86.3842 223.535 85.7795C224.82 85.3336 226.081 84.6838 227.192 83.8976C230.761 81.369 234.892 81.779 238.897 81.4623C240.547 81.3321 242.199 80.8698 243.83 80.9559C245.197 81.0287 246.52 81.7431 247.89 82.0537C249.327 82.3786 250.715 82.6328 250.941 84.4736C250.98 84.7934 251.298 85.0907 251.519 85.3746C257.668 93.188 246.641 93.8286 249.669 100.587C250.481 102.216 250.643 103.551 249.611 105.219C248.258 108.251 250.538 110.509 247.25 113.588C245.712 115.108 244.72 117.178 243.322 118.843C241.419 120.724 240.721 122.8 241.23 125.072L241.229 125.071Z" fill="#EEEEEE"/>
<path d="M185.566 130.57C191.434 133.474 190.549 130.005 193.96 129.324C194.745 129.241 195.548 129.341 196.344 129.35C200.749 129.403 200.69 129.426 202.361 133.42C202.665 134.147 203.585 134.813 204.371 135.11C208.63 136.713 212.92 138.241 217.236 139.685C218.714 140.18 219.129 140.908 218.715 142.398C217.81 145.66 217.05 148.96 216.169 152.229C215.966 152.984 215.694 153.866 215.152 154.362C210.735 158.22 211.309 163.719 209.385 168.624C199.645 162.589 191.82 159.255 180.263 161.779C176.677 162.468 177.736 160.464 176.833 158.091C171.296 145.603 187.674 142.555 185.566 130.569V130.57Z" fill="#EEEEEE"/>
<path d="M183.844 129.74C184.637 134.476 183.841 138.717 179.772 141.736C176.589 144.356 176.225 147.789 174.13 151.287C169.16 146.269 163.723 150.367 160.383 146.593C159.033 145.121 157.568 144.536 155.597 144.687C151.344 145.012 147.078 145.149 142.826 145.484C141.564 145.584 140.983 145.261 140.714 144.022C138.534 137.377 138.173 137.253 143.896 132.837C144.351 132.425 145.037 132.255 145.631 132.01C148.286 130.912 150.982 129.903 153.591 128.707C154.932 128.093 156.056 127.826 157.023 129.177C158.432 131.146 160.465 131.429 162.63 131.194C166.725 130.751 170.803 130.099 174.907 129.784C177.831 129.558 180.787 129.74 183.843 129.74H183.844Z" fill="#EEEEEE"/>
<path d="M256.098 234.373C254.706 234.454 254.14 234.532 253.577 234.511C248.488 234.312 251.158 240.701 244.299 240.487C243.407 240.465 242.442 240.761 241.618 241.144C237.018 243.505 236.157 239.435 232.832 237.465C230.269 235.964 228.738 234.045 228.784 230.875C228.847 226.601 226.056 224.177 221.676 224.594C211.468 225.506 214.967 229.887 210.081 231.358C208.297 231.928 206.349 232.04 204.632 232.74C202.861 233.461 202.048 232.923 201.595 231.313C200.756 228.33 199.66 225.381 199.206 222.339C198.519 217.731 196.053 215.07 191.932 212.987C185.546 209.831 185.009 206.008 184.827 199.14C184.919 196.175 184.462 193.564 181.763 191.715C181.154 191.298 180.721 190.242 180.674 189.452C180.361 184.224 178.884 179.388 176.038 174.991C175.059 173.477 175.643 172.689 176.744 171.371C181.564 165.814 194.844 167.923 200.406 171.506C204.673 174.072 208.813 176.926 213.833 177.986C214.266 178.077 214.79 178.959 214.823 179.502C214.985 182.167 215.116 184.845 215.037 187.512C214.696 198.734 226.91 203.813 236.357 204.791C240.925 205.249 238.929 209.997 242.765 211.38C246.639 212.991 248.156 215.931 248.35 219.991C248.423 221.534 249.268 223.131 250.065 224.53C251.872 227.701 253.869 230.765 256.097 234.374L256.098 234.373Z" fill="#41D6B2" fill-opacity="0.7"/>
<path d="M22.7968 93.5858C28.4344 97.2101 34.5577 100.305 38.1737 106.465C38.7127 107.383 39.4622 108.26 40.3093 108.9C45.3298 112.343 47.4397 118.568 53.0558 121.274C57.5425 123.596 61.908 126.229 64.6185 130.681C66.3619 136.458 71.3394 139.368 75.5499 142.917C77.1526 144.238 78.4524 146.568 77.4729 148.503C72.8907 148.607 68.1504 145.712 67.3311 152.409C67.2705 152.983 67.1843 153.575 67.2562 154.139C67.7058 157.667 65.8988 160.456 64.0169 163.061C63.2232 164.158 61.5446 164.684 60.1914 165.3C56.5805 166.944 50.5773 164.42 49.1256 160.763C47.3504 157.045 46.5393 150.928 41.9243 149.869C35.109 148.905 38.5228 154.524 33.6377 153.81C22.9631 152.967 25.6335 151.491 18.4877 159.51C17.7197 157.628 17.0246 156.173 16.5298 154.652C15.9702 152.93 14.9825 151.913 13.1889 151.33C10.1683 150.348 7.21549 149.129 4.30992 147.84C3.61689 147.532 3.05529 146.624 2.72777 145.866C2.13125 144.486 1.83967 142.975 1.2565 141.587C0.836578 140.587 0.839658 139.95 1.97622 139.589C7.52145 138.028 1.64973 127.115 12.5194 125.113C14.3131 124.817 14.8727 123.137 15.0513 121.456C15.2115 119.948 15.5113 118.433 15.4661 116.93C15.8819 109.246 23.9292 113.541 21.4035 101.19C21.3183 100.626 21.1345 100.055 20.883 99.544C19.6417 97.0174 20.4713 95.1448 22.7988 93.5858H22.7968Z" fill="#41D6B2" fill-opacity="0.7"/>
<path d="M109.813 249.389C109.496 240.13 104.481 244.83 103.16 237.78C102.323 231.265 101.93 224.695 101.222 218.161C100.736 216.283 98.3942 214.773 96.8634 213.412C100.188 211.231 102.9 209.101 106.689 209.254C108.735 209.336 110.308 208.265 110.754 206.077C111.026 204.742 111.835 204.438 113.104 204.446C118.435 204.65 123.861 203.994 129.15 204.624C134.996 206.248 135.984 206.867 136.877 212.828C137.578 217.508 140.413 220.305 144.016 222.198C145.823 223.147 148.583 222.311 150.91 222.228C151.298 222.213 151.677 221.918 152.264 221.665C152.818 227.44 156.319 231.813 158.392 236.231C150.376 244.193 143.04 252.328 132.909 257.478C132.079 257.978 130.817 257.822 129.75 257.855C126.262 257.899 122.74 258.076 119.264 257.76C110.896 256.8 117.808 249.533 109.815 249.389H109.813Z" fill="#41D6B2" fill-opacity="0.7"/>
<path d="M268.641 181.586C267.303 183.689 266.171 185.435 265.077 187.203C264.244 188.548 263.921 189.804 265.468 191.002C265.933 191.362 266.294 192.295 266.189 192.873C264.851 198.569 274.932 199.136 278.691 200.785C279.204 200.95 280.045 201.505 280 201.733C279.867 202.395 279.51 203.278 278.975 203.547C272.52 206.446 277.567 214.686 271.311 217.503C268.267 218.514 266.769 220.524 266.846 223.642C266.91 226.253 266.434 226.771 263.808 226.927C263.302 226.956 262.784 227.021 262.289 226.948C260.14 226.631 258.851 227.496 258.236 229.586C257.934 230.611 257.362 231.559 256.781 232.826C255.211 230.55 254.459 228.089 252.787 225.986C250.368 223.047 249.214 219.785 249.157 216.035C249.132 214.324 248.308 213.046 246.755 212.204C244.589 211.059 242.284 209.692 241.343 207.32C240.491 205.222 239.287 203.624 236.887 203.453C229.377 202.795 217.119 198.364 216.69 189.626C216.533 186.031 216.652 182.425 216.652 178.519C221.94 178.448 233.289 179.308 236.787 175.01C241.434 169.324 246.659 163.44 249.707 156.781C251.817 157.432 254.831 157.838 254.685 160.554C254.244 162.871 253.559 165.165 252.725 167.377C252.233 168.682 252.258 169.741 253.441 170.375C255.831 171.656 256.796 173.876 257.623 176.205C258.226 177.904 259.334 178.48 261.126 178.844C263.584 179.343 265.898 180.545 268.643 181.585L268.641 181.586Z" fill="#41D6B2" fill-opacity="0.7"/>
<path d="M128.982 41.2022C133.249 44.7824 137.402 48.2561 141.532 51.7564C141.84 52.0177 142.21 52.4902 142.176 52.8275C141.778 56.7613 143.122 60.728 140.911 64.6792C139.242 67.6609 137.259 70.3064 135.392 73.0933C132.472 78.5574 133.59 85.6677 133.433 91.7376C129.194 92.4479 125.447 94.4701 124.663 98.9032C124.252 101.425 122.017 101.678 120.024 102.442C115.082 103.245 117.689 109.203 112.242 108.496C111.112 108.329 109.9 108.682 108.777 108.496C102.957 107.443 99.2657 112.385 98.6394 117.713C93.9709 113.846 89.6906 110.301 85.0304 106.441C88.3549 106.53 92.0202 107.891 94.4155 105.962C98.587 102.439 100.706 98.1324 100.155 92.4397C99.7174 87.9247 99.9782 83.3389 99.9967 78.785C99.9997 78.049 100.118 76.9892 100.595 76.6376C102.244 75.421 102.272 73.7841 102.397 72.0129C102.857 65.5228 103.465 59.0429 103.923 52.5528C104.026 51.0809 104.639 50.7252 105.976 50.8339C108.069 51.004 110.177 50.9794 112.267 51.1783C113.814 51.3259 114.95 50.9343 115.694 49.5147C117.689 45.5266 122.423 51.4458 126.442 44.8429C127.163 43.6129 128.073 42.4926 128.983 41.2012L128.982 41.2022Z" fill="#EEEEEE"/>
<path d="M63.9464 119.129C66.1733 116.445 68.8006 114.981 72.4588 115.437C75.1056 115.767 79.7853 111.804 80.4866 109.261C80.8397 107.977 81.6262 106.814 82.0533 105.934C87.7207 110.474 93.0503 114.74 98.3738 119.014C105.002 125.242 111.353 131.773 117.94 138.049C118.611 138.698 119.63 139.215 120.551 139.342C124.565 139.897 128.595 140.477 132.635 140.635C134.09 140.692 135.59 139.589 137.267 138.937C144.402 148.927 133.761 159.354 126.298 165.85C117.905 157.013 105.981 154.689 95.6541 149.079C86.3757 145.317 80.4732 137.278 72.8561 131.421C71.1076 129.285 70.1641 126.482 68.4731 124.289C67.1743 122.488 65.5439 120.925 63.9464 119.13V119.129Z" fill="#41D6B2" fill-opacity="0.7"/>
<path d="M205.378 75.4974C209.015 80.0739 210.236 85.7646 216.717 86.2289C219.989 86.5774 219.969 86.7557 219.855 89.9147C219.749 92.8618 218.228 94.6634 215.291 95.3194C208.893 96.5514 202.479 98.216 199.653 104.713C198.611 106.845 197.323 108.451 194.967 109.438C192.739 110.371 190.721 111.929 188.831 113.481C187.981 114.179 187.641 115.518 187.125 116.592C186.543 117.802 186.037 119.05 185.462 120.264C184.313 122.405 176.302 120.619 175.211 119.197C173.554 116.241 171.798 113.293 170.579 110.151C168.941 105.933 165.714 104.365 161.645 103.738C159.862 103.463 158.05 103.268 156.323 102.784C155.692 102.607 154.794 101.643 154.851 101.13C154.962 100.117 155.392 98.6957 156.153 98.2724C159.943 96.163 161.223 92.5837 159.795 88.3639C158.086 83.3139 156.683 78.1593 155.143 73.0518C154.353 70.4299 154.367 67.3888 151.178 65.7417C154.075 66.205 155.529 64.7403 156.381 62.0098C157.044 62.8482 157.362 63.3884 157.807 63.784C158.701 64.5763 159.562 65.712 160.616 65.9662C166.739 67.4421 170.396 72.4686 175.2 75.8223C175.705 76.1749 175.938 77.0379 176.115 77.7114C176.738 80.0862 177.258 82.4888 177.863 84.8688C178.47 87.2569 180.156 88.7206 182.62 88.7319C186.601 88.7503 190.596 88.777 194.56 88.4664C197.164 88.2635 199.305 86.8849 200.589 84.4372C202.086 81.5868 203.627 78.7589 205.377 75.4954L205.378 75.4974Z" fill="#41D6B2" fill-opacity="0.7"/>
<path d="M163.201 129.579C156.7 130.253 158.456 124.877 153.429 127.233C150.756 128.49 148.01 129.601 145.242 130.633C144.62 130.865 143.538 130.793 143.085 130.391C141.198 128.717 139.375 126.947 137.714 125.051C136.451 123.611 136.246 121.868 136.91 119.967C138.005 116.835 138.971 113.655 139.932 110.478C141.044 106.8 139.241 103.561 138.25 100.212C138.168 99.935 137.735 99.6357 137.42 99.5742C134.766 99.0555 134.698 97.2003 134.787 95.0233C135.018 89.3952 135.079 83.7598 135.237 78.1286C135.306 75.6349 136.109 73.4691 138.185 71.8896C138.695 71.5022 139.292 71.0153 139.475 70.4526C140.925 65.9909 144.967 66.3896 148.259 66.2543C149.675 66.1959 151.396 68.1977 152.573 69.6029C153.336 70.5151 153.49 72.0188 153.703 73.2938C154.578 78.5366 156.435 83.436 158.566 88.279C160.125 91.8202 158.598 95.5512 155.167 97.0189C153.002 97.9445 153.59 99.8653 153.308 101.472C152.589 104.913 160.21 104.653 162.418 105.378C165.442 106.086 167.964 107.228 169.198 110.598C170.379 113.822 172.275 116.789 173.883 119.854C174.68 121.373 175.848 122.232 177.697 122.18C179.282 122.135 180.874 122.433 182.464 122.448C184.89 122.417 183.89 124.203 184.127 125.792C184.331 127.436 183.749 127.967 181.986 128.055C175.716 128.373 169.471 129.163 163.203 129.579H163.201Z" fill="#41D6B2" fill-opacity="0.7"/>
<path d="M31.7543 222.608C33.1167 219.682 34.3795 216.704 35.8796 213.849C39.2595 207.89 29.4062 206.71 35.7831 196.302C37.4864 193.561 38.1291 190.163 39.3827 186.687C40.7277 186.442 42.1876 186.694 42.7575 188.91C43.1271 190.349 44.1445 190.536 45.6497 190.765C50.3068 191.471 53.2124 188.821 55.9178 185.922C57.8644 183.837 60.0605 184.775 62.1858 184.784C62.54 184.785 63.0041 185.842 63.2228 186.478C64.5031 190.206 66.2238 191.02 70.1592 191.097C74.4056 191.179 77.0278 189.705 77.9539 185.499C78.0268 185.167 78.304 184.881 78.5576 184.453C86.4561 187.647 84.5854 189.181 86.2199 196.612C86.2969 197.034 86.2836 197.557 86.53 197.85C89.337 201.18 88.0187 205.193 88.1049 208.877C88.1265 209.799 85.7209 211.388 84.2692 211.608C81.0741 212.092 76.4765 211.881 73.2209 211.98C69.4446 211.834 74.7255 206.98 66.7009 203.98C64.1933 204.48 64.5852 204.471 63.1293 205.656C61.9219 206.639 61.4158 208.495 60.6375 209.984C60.0646 211.082 59.7741 212.41 58.9753 213.292C56.2114 216.343 53.3325 219.296 50.3951 222.182C48.3705 224.172 45.8016 223.431 43.6661 222.665C41.4412 221.868 39.4997 222.004 37.3447 222.578C35.6537 223.028 33.8631 223.106 32.1167 223.35C31.9955 223.103 31.8744 222.855 31.7532 222.608H31.7543Z" fill="#41D6B2" fill-opacity="0.7"/>
<path d="M114.44 179.322C111.102 184.463 108.465 190.157 108.058 196.385C107.548 199.995 106.193 202.343 101.845 202.52C96.7225 202.86 95.8344 206.822 95.2995 211.234C95.1537 211.632 94.7328 212.119 94.3509 212.209C93.2851 212.46 90.0726 209.776 89.9822 208.602C89.8488 206.874 89.7122 205.14 89.7194 203.409C89.7276 201.291 89.7574 199.248 88.0798 197.571C87.6342 197.126 87.5828 196.247 87.4391 195.549C86.9268 193.077 86.6588 190.529 85.8734 188.149C84.0438 183.739 77.8363 185.439 79.1084 178.189C79.209 177.705 79.1792 177.173 79.1125 176.675C77.4667 165.534 87.1311 168.095 85.0612 162.397C83.0232 157.206 80.5694 152.173 78.9852 146.818C79.1792 146.676 79.3743 146.535 79.5684 146.393C86.4401 153.93 96.1948 157.27 105.286 161.274C105.807 161.51 106.283 162.267 106.413 162.863C107.645 168.358 108.328 173.98 113.14 178.068C113.669 178.424 114.192 178.656 114.44 179.321V179.322Z" fill="#41D6B2" fill-opacity="0.7"/>
<path d="M133.017 93.7474C133.296 96.9095 132.312 99.804 136.416 100.715C136.722 100.781 137.153 101.105 137.206 101.372C137.806 104.357 139.457 107.186 138.372 110.422C137.27 113.706 136.315 117.039 135.317 120.357C133.173 127.593 145.216 130.984 141.584 133.403C138.981 135.344 136.48 138.498 133.662 138.83C129.071 139.37 124.232 138.208 119.559 137.4C118.45 137.208 117.611 135.559 116.614 134.615C111.841 130.094 107.139 125.493 102.235 121.117C100.352 119.437 99.8229 117.778 100.443 115.413C101.08 112.988 104.275 110.227 106.773 110.187C108.796 110.154 110.833 109.855 112.838 110.007C115.183 110.184 116.618 109.145 117.351 107.144C118.086 105.137 119.354 103.925 121.421 103.472C128.292 102.171 124.629 93.5527 133.015 93.7464L133.017 93.7474Z" fill="#41D6B2" fill-opacity="0.7"/>
<path d="M97.099 211.32C96.7725 206.792 98.4984 204.616 102.967 203.66C104.427 203.348 106.562 203.379 107.166 202.456C112.279 194.297 106.602 193.666 115.295 180.984C115.61 180.457 116.549 180.035 117.207 180.022C121.114 179.955 125.024 179.978 128.931 180.084C129.62 180.102 130.467 180.489 130.943 180.988C132.59 182.712 134.133 184.536 135.663 186.367C140.162 192.325 145.584 188.14 145.878 192.771C145.96 194.701 147.146 195.216 148.931 195.275C152.404 195.392 154.534 198.928 153.626 202.371C152.224 207.69 151.164 213.073 152.112 218.64C152.202 219.168 151.733 220.255 151.385 220.317C149.224 220.706 146.643 221.712 144.921 220.932C141.951 219.587 139.247 217.544 138.458 213.662C136.523 204.148 138.169 206.501 129.077 203.195C126.496 202.256 123.354 202.804 120.468 202.764C118.008 202.729 115.54 202.95 113.086 202.832C111.087 202.736 109.91 203.424 109.475 205.392C108.408 210.019 104.197 205.762 98.2417 210.829C97.9409 211.067 97.5148 211.147 97.1 211.32H97.099Z" fill="#41D6B2" fill-opacity="0.7"/>
<path d="M220.034 95.7471C221.477 106.413 222.261 117.078 223.44 127.768C223.503 128.399 223.553 129.111 223.332 129.677C222.153 132.697 220.886 135.684 219.55 138.921C215.656 137.586 211.954 136.164 208.116 134.902C200.179 133.402 204.911 127.98 200.175 127.973C198.152 127.98 196.119 127.627 194.112 127.752C190.578 127.937 191.376 131.321 188.052 129.899C187.089 129.45 185.828 128.286 185.813 127.417C185.767 124.785 185.02 121.835 187.621 119.767C187.824 119.605 187.967 119.27 187.996 119.001C188.596 113.4 193.368 112.055 197.299 109.811C198.182 109.307 199.224 108.596 199.579 107.73C203.042 98.616 211.527 97.2723 220.034 95.7461V95.7471Z" fill="#41D6B2" fill-opacity="0.7"/>
<path d="M245.396 143.406C245.039 146.264 245.168 148.99 244.291 151.341C241.954 157.908 237.622 163.4 233.093 168.616C231.963 170.088 230.681 171.061 228.785 171.15C225.795 171.24 209.804 172.926 211.343 167.647C211.908 165.339 212.213 162.967 212.677 160.632C212.771 160.16 212.986 159.643 213.308 159.296C217.247 155.025 218.719 149.794 219.89 144.24C220.846 139.706 222.804 135.374 224.441 130.999C224.65 130.444 225.567 129.96 226.236 129.813C227.207 129.601 228.282 129.875 229.26 129.678C231.561 129.215 233.838 128.625 236.108 128.023C236.798 127.839 237.412 127.285 238.1 127.196C239.102 127.067 240.139 127.206 241.16 127.231C240.884 128.079 240.836 129.133 240.29 129.741C238.243 132.014 237.87 134.324 239.331 137.066C239.812 137.969 239.839 139.173 239.868 140.245C239.925 144.067 242.622 143.145 245.399 143.406H245.396Z" fill="#41D6B2" fill-opacity="0.7"/>
<path d="M73.8106 213.47C78.9995 213.097 83.7748 214.662 88.1136 211.524C88.5941 211.161 89.7758 211.506 90.5438 211.779C92.1137 212.336 93.6291 213.05 95.1506 213.734C95.5131 213.897 95.8375 214.174 96.1353 214.447C97.3786 215.734 99.3622 216.921 99.8006 218.724C100.481 225.327 100.967 231.951 101.774 238.538C102.079 241.024 103.645 242.83 106.046 244.094C107.125 244.662 107.688 246.388 108.198 247.699C108.303 247.966 107.063 248.678 106.553 249.277C105.233 250.829 103.363 252.252 102.822 254.057C101.85 257.303 99.2821 258.174 96.7646 258.823C94.9053 259.303 92.7502 258.754 90.7512 258.483C90.3405 258.426 88.9173 258.026 88.7684 257.48C86.599 249.781 84.4466 241.659 82.2484 233.98C81.9384 233.317 81.2757 232.994 80.7438 232.98C78.4204 232.922 76.7157 231.613 76.23 229.98C74.5863 224.649 74.188 219.031 72.2178 213.734L73.8106 213.47Z" fill="#41D6B2" fill-opacity="0.7"/>
<path d="M125.926 175.925C114.608 177.698 111.307 173.773 110.735 163.574C116.966 166.242 121.442 170.796 125.926 175.925Z" fill="#41D6B2" fill-opacity="0.7"/>
<path d="M111.422 85.6338H104.241V84.9658H111.422V85.6338ZM105.014 82.6895C105.014 82.3643 105.129 82.083 105.357 81.8457C105.586 81.6084 105.912 81.4282 106.337 81.3052C106.762 81.1792 107.259 81.1162 107.827 81.1162C108.392 81.1162 108.886 81.1792 109.308 81.3052C109.733 81.4282 110.061 81.6084 110.292 81.8457C110.524 82.083 110.639 82.3643 110.639 82.6895C110.639 83.0176 110.524 83.3018 110.292 83.542C110.061 83.7822 109.733 83.9668 109.308 84.0957C108.886 84.2246 108.392 84.2891 107.827 84.2891C107.259 84.2891 106.762 84.2246 106.337 84.0957C105.912 83.9668 105.586 83.7822 105.357 83.542C105.129 83.3018 105.014 83.0176 105.014 82.6895ZM105.146 86.2754H105.99V87.8838H110.613V88.5605H105.146V86.2754ZM105.876 82.6895C105.876 82.8828 105.953 83.0483 106.109 83.186C106.264 83.3208 106.488 83.4248 106.781 83.498C107.077 83.5684 107.426 83.6035 107.827 83.6035C108.228 83.6035 108.575 83.5684 108.868 83.498C109.161 83.4248 109.385 83.3208 109.541 83.186C109.699 83.0483 109.778 82.8828 109.778 82.6895C109.778 82.5049 109.699 82.3452 109.541 82.2104C109.385 82.0728 109.16 81.9673 108.864 81.894C108.571 81.8208 108.225 81.7842 107.827 81.7842C107.426 81.7842 107.078 81.8208 106.785 81.894C106.492 81.9673 106.267 82.0728 106.109 82.2104C105.953 82.3452 105.876 82.5049 105.876 82.6895ZM116.431 82.1006H115.676V84.4824C116.036 84.4531 116.358 84.4209 116.642 84.3857L116.677 85.0186C116.001 85.124 115.281 85.1943 114.52 85.2295C113.758 85.2646 112.963 85.2822 112.134 85.2822L112.028 84.5879C112.441 84.5879 112.76 84.5864 112.986 84.5835V82.1006H112.248V81.4238H116.431V82.1006ZM113.285 87.2861C113.285 86.9814 113.39 86.7222 113.601 86.5083C113.812 86.2915 114.117 86.1274 114.515 86.0161C114.917 85.9019 115.394 85.8447 115.948 85.8447C116.499 85.8447 116.973 85.9019 117.372 86.0161C117.773 86.1274 118.079 86.2915 118.29 86.5083C118.504 86.7222 118.611 86.9814 118.611 87.2861C118.611 87.585 118.504 87.8413 118.29 88.0552C118.076 88.269 117.77 88.4316 117.372 88.543C116.973 88.6543 116.499 88.71 115.948 88.71C115.394 88.71 114.917 88.6543 114.515 88.543C114.117 88.4316 113.812 88.269 113.601 88.0552C113.39 87.8413 113.285 87.585 113.285 87.2861ZM113.795 84.5703C114.152 84.5615 114.512 84.5483 114.876 84.5308V82.1006H113.795V84.5703ZM114.111 87.2861C114.108 87.5322 114.268 87.7241 114.59 87.8618C114.912 87.9966 115.365 88.0654 115.948 88.0684C116.528 88.0654 116.978 87.9966 117.297 87.8618C117.619 87.7241 117.782 87.5322 117.785 87.2861C117.782 87.0342 117.622 86.8394 117.306 86.7017C116.99 86.564 116.546 86.4951 115.974 86.4951C115.38 86.4951 114.92 86.564 114.594 86.7017C114.269 86.8364 114.108 87.0312 114.111 87.2861ZM116.546 83.6562H117.75V82.8916H116.546V82.2236H117.75V80.8525H118.585V85.6953H117.75V84.3242H116.546V83.6562ZM126.064 82.0391C126.064 82.5488 126.051 83 126.025 83.3926C126.001 83.7822 125.941 84.2246 125.844 84.7197H126.978V85.4053H123.788V88.7363H122.944V85.4053H119.798V84.7197H125.001C125.103 84.2246 125.168 83.7837 125.194 83.397C125.22 83.0103 125.235 82.5576 125.238 82.0391V82.0303H120.677V81.3447H126.064V82.0391Z" fill="#444444" fill-opacity="0.5"/>
<path d="M106.08 115.856C106.08 116.334 106.163 116.803 106.33 117.263C106.5 117.72 106.738 118.125 107.042 118.48C107.347 118.834 107.697 119.1 108.093 119.275L107.583 119.943C107.143 119.721 106.758 119.4 106.427 118.981C106.096 118.559 105.843 118.076 105.667 117.531C105.491 118.108 105.235 118.622 104.898 119.073C104.564 119.521 104.173 119.861 103.724 120.093L103.197 119.416C103.595 119.226 103.948 118.944 104.256 118.572C104.567 118.197 104.807 117.772 104.977 117.298C105.15 116.82 105.236 116.34 105.236 115.856V114.512H106.08V115.856ZM107.222 116.472H108.98V113.853H109.806V121.745H108.98V117.148H107.222V116.472ZM117.778 121.728H116.978V117.658H115.959V121.323H115.194V114.011H115.959V116.973H116.978V113.853H117.778V121.728ZM111.283 114.802H114.236V115.479H112.118V119.126C112.631 119.123 113.08 119.107 113.467 119.078C113.857 119.048 114.254 118.994 114.658 118.915L114.719 119.601C114.28 119.691 113.846 119.753 113.419 119.785C112.994 119.814 112.458 119.832 111.81 119.838H111.283V114.802ZM125.996 118.511H122.867V120.04H122.041V118.511H118.789V117.834H125.996V118.511ZM119.685 119.293H120.52V120.884H125.196V121.561H119.685V119.293ZM119.712 114.222H125.064V117.017H119.712V114.222ZM124.238 116.357V114.881H120.529V116.357H124.238ZM132.843 115.039C132.843 115.549 132.829 116 132.803 116.393C132.78 116.782 132.719 117.225 132.623 117.72H133.757V118.405H130.566V121.736H129.722V118.405H126.576V117.72H131.779C131.882 117.225 131.946 116.784 131.972 116.397C131.999 116.01 132.013 115.558 132.016 115.039V115.03H127.455V114.345H132.843V115.039Z" fill="#444444" fill-opacity="0.5"/>
<path d="M94.2224 141.75H90.5398V136.635H94.2224V141.75ZM93.3962 141.073V137.294H91.3572V141.073H93.3962ZM95.5408 135.853H96.3757V138.938H97.6414V139.641H96.3757V143.728H95.5408V135.853ZM105.226 142.787H98.0193V142.075H101.183V140.396H98.6521V139.737H99.8298V137.259H98.6345V136.582H104.567V137.259H103.363V139.737H104.541V140.396H102.01V142.075H105.226V142.787ZM102.546 139.737V137.259H100.656V139.737H102.546ZM112.064 137.039C112.064 137.549 112.051 138 112.025 138.393C112.001 138.782 111.941 139.225 111.844 139.72H112.978V140.405H109.788V143.736H108.944V140.405H105.798V139.72H111.001C111.103 139.225 111.168 138.784 111.194 138.397C111.22 138.01 111.235 137.558 111.238 137.039V137.03H106.677V136.345H112.064V137.039Z" fill="#444444" fill-opacity="0.5"/>
<path d="M31.4285 132.839H32.571V133.516H31.4285V135.528H30.5935V130.853H31.4285V132.839ZM25.2322 134.913C25.8445 134.74 26.3748 134.515 26.823 134.236C27.2742 133.958 27.6301 133.637 27.8909 133.274C28.1545 132.911 28.3113 132.517 28.3611 132.092H25.5837V131.415H29.2664C29.2664 132.086 29.1199 132.695 28.8269 133.243C28.5339 133.791 28.1106 134.264 27.5569 134.663C27.0061 135.058 26.3455 135.367 25.575 135.59L25.2322 134.913ZM26.3044 137.163C26.3015 136.847 26.407 136.573 26.6208 136.341C26.8376 136.107 27.1423 135.928 27.5349 135.805C27.9304 135.679 28.3904 135.616 28.9148 135.616C29.4392 135.616 29.8977 135.679 30.2903 135.805C30.6829 135.928 30.9846 136.107 31.1956 136.341C31.4094 136.573 31.5164 136.847 31.5164 137.163C31.5164 137.482 31.4094 137.758 31.1956 137.989C30.9846 138.224 30.6829 138.404 30.2903 138.53C29.9006 138.656 29.4421 138.719 28.9148 138.719C28.3904 138.719 27.9304 138.656 27.5349 138.53C27.1394 138.404 26.8347 138.224 26.6208 137.989C26.407 137.758 26.3015 137.482 26.3044 137.163ZM27.1306 137.163C27.1306 137.345 27.2024 137.503 27.3459 137.638C27.4895 137.772 27.6946 137.876 27.9612 137.95C28.2307 138.023 28.5486 138.06 28.9148 138.06C29.2781 138.06 29.593 138.023 29.8596 137.95C30.1292 137.876 30.3357 137.772 30.4792 137.638C30.6257 137.503 30.699 137.345 30.699 137.163C30.699 136.981 30.6272 136.825 30.4836 136.693C30.3401 136.558 30.135 136.456 29.8684 136.385C29.6047 136.312 29.2942 136.275 28.9368 136.275C28.5647 136.275 28.2424 136.311 27.97 136.381C27.7004 136.451 27.4924 136.554 27.3459 136.688C27.2024 136.82 27.1306 136.979 27.1306 137.163ZM35.8582 132.856C35.8582 133.334 35.9417 133.803 36.1086 134.263C36.2786 134.72 36.5159 135.125 36.8206 135.48C37.1252 135.834 37.4753 136.1 37.8708 136.275L37.3611 136.943C36.9216 136.721 36.5364 136.4 36.2053 135.981C35.8743 135.559 35.6208 135.076 35.4451 134.531C35.2693 135.108 35.0129 135.622 34.676 136.073C34.342 136.521 33.9509 136.861 33.5027 137.093L32.9753 136.416C33.3738 136.226 33.7268 135.944 34.0344 135.572C34.345 135.197 34.5852 134.772 34.7551 134.298C34.928 133.82 35.0144 133.34 35.0144 132.856V131.512H35.8582V132.856ZM37.0007 133.472H38.7585V130.853H39.5847V138.745H38.7585V134.148H37.0007V133.472ZM47.0642 132.039C47.0642 132.549 47.051 133 47.0247 133.393C47.0012 133.782 46.9412 134.225 46.8445 134.72H47.9783V135.405H44.7878V138.736H43.9441V135.405H40.7976V134.72H46.0007C46.1033 134.225 46.1677 133.784 46.1941 133.397C46.2205 133.01 46.2351 132.558 46.238 132.039V132.03H41.6765V131.345H47.0642V132.039Z" fill="#444444" fill-opacity="0.5"/>
<path d="M82.4119 175.31C82.7371 175.31 83.0359 175.367 83.3083 175.481C83.5837 175.592 83.8152 175.752 84.0027 175.96H85.9714V174.853H86.8064V179.502H85.9714V178.438H83.9983C83.8108 178.644 83.5793 178.802 83.304 178.913C83.0315 179.024 82.7341 179.08 82.4119 179.08C82.0222 179.08 81.6707 179 81.3572 178.838C81.0437 178.677 80.7976 178.455 80.6189 178.17C80.4431 177.883 80.3552 177.56 80.3552 177.199C80.3552 176.836 80.4431 176.511 80.6189 176.224C80.7976 175.937 81.0437 175.712 81.3572 175.551C81.6707 175.39 82.0222 175.31 82.4119 175.31ZM81.155 177.199C81.155 177.425 81.2078 177.627 81.3132 177.806C81.4216 177.984 81.5725 178.124 81.7659 178.223C81.9592 178.323 82.1775 178.371 82.4207 178.368C82.658 178.371 82.8704 178.323 83.0579 178.223C83.2483 178.124 83.3977 177.984 83.5061 177.806C83.6145 177.627 83.6687 177.425 83.6687 177.199C83.6687 176.968 83.6145 176.763 83.5061 176.584C83.3977 176.405 83.2483 176.268 83.0579 176.171C82.8704 176.074 82.658 176.027 82.4207 176.03C82.1775 176.027 81.9592 176.074 81.7659 176.171C81.5725 176.268 81.4216 176.405 81.3132 176.584C81.2078 176.763 81.155 176.968 81.155 177.199ZM81.5066 181.198C81.5066 180.882 81.6135 180.609 81.8274 180.381C82.0413 180.149 82.3474 179.975 82.7458 179.858C83.1472 179.738 83.6218 179.678 84.1697 179.678C84.7146 179.678 85.1863 179.738 85.5847 179.858C85.9861 179.975 86.2937 180.149 86.5076 180.381C86.7244 180.609 86.8328 180.882 86.8328 181.198C86.8328 181.515 86.7244 181.786 86.5076 182.011C86.2937 182.24 85.9861 182.413 85.5847 182.53C85.1863 182.65 84.7146 182.71 84.1697 182.71C83.6218 182.71 83.1472 182.65 82.7458 182.53C82.3474 182.413 82.0413 182.24 81.8274 182.011C81.6135 181.786 81.5066 181.515 81.5066 181.198ZM82.324 181.198C82.324 181.377 82.3958 181.531 82.5393 181.66C82.6858 181.786 82.8953 181.882 83.1677 181.95C83.4431 182.017 83.7698 182.051 84.1477 182.051C84.7366 182.051 85.1951 181.978 85.5232 181.831C85.8513 181.682 86.0154 181.471 86.0154 181.198C86.0154 180.92 85.8528 180.705 85.5276 180.552C85.2053 180.4 84.7527 180.322 84.1697 180.319C83.5867 180.322 83.1326 180.4 82.8074 180.552C82.4822 180.705 82.321 180.92 82.324 181.198ZM84.385 176.628C84.4407 176.812 84.4685 177.003 84.4685 177.199C84.4685 177.387 84.4407 177.571 84.385 177.753H85.9714V176.628H84.385ZM94.7587 179.238H87.5693V178.553H94.7587V179.238ZM88.4218 181.286C88.4218 180.984 88.5302 180.727 88.747 180.513C88.9638 180.296 89.2773 180.132 89.6875 180.021C90.0976 179.909 90.5869 179.854 91.1552 179.854C91.7207 179.854 92.2055 179.909 92.6098 180.021C93.017 180.132 93.3291 180.296 93.5458 180.513C93.7626 180.727 93.871 180.984 93.871 181.286C93.871 181.588 93.7626 181.846 93.5458 182.06C93.3291 182.273 93.017 182.435 92.6098 182.543C92.2055 182.654 91.7207 182.71 91.1552 182.71C90.5869 182.71 90.0976 182.654 89.6875 182.543C89.2773 182.435 88.9638 182.273 88.747 182.06C88.5302 181.846 88.4218 181.588 88.4218 181.286ZM88.4658 175.134H93.871V175.819H89.2919V177.19H93.9238V177.867H88.4658V175.134ZM89.2656 181.286C89.2626 181.538 89.4252 181.731 89.7534 181.866C90.0815 181.998 90.5488 182.065 91.1552 182.068C91.7529 182.065 92.2158 181.998 92.5439 181.866C92.872 181.731 93.0361 181.538 93.0361 181.286C93.0361 181.037 92.872 180.845 92.5439 180.71C92.2158 180.573 91.7529 180.501 91.1552 180.495C90.5517 180.501 90.0844 180.573 89.7534 180.71C89.4252 180.845 89.2626 181.037 89.2656 181.286ZM102.105 181.787H94.8976V181.075H98.0617V179.396H95.5304V178.737H96.7082V176.259H95.5128V175.582H101.445V176.259H100.241V178.737H101.419V179.396H98.8878V181.075H102.105V181.787ZM99.424 178.737V176.259H97.5343V178.737H99.424ZM108.493 176.039C108.493 176.549 108.479 177 108.453 177.393C108.43 177.782 108.369 178.225 108.273 178.72H109.407V179.405H106.216V182.736H105.372V179.405H102.226V178.72H107.429C107.532 178.225 107.596 177.784 107.622 177.397C107.649 177.01 107.663 176.558 107.666 176.039V176.03H103.105V175.345H108.493V176.039Z" fill="#444444" fill-opacity="0.5"/>
<path d="M54.5076 195.039C54.5076 195.549 54.4944 196 54.468 196.393C54.4446 196.782 54.3845 197.225 54.2878 197.72H55.4216V198.405H52.2312V201.736H51.3875V198.405H48.241V197.72H53.4441C53.5466 197.225 53.6111 196.784 53.6375 196.397C53.6638 196.01 53.6785 195.558 53.6814 195.039V195.03H49.1199V194.345H54.5076V195.039ZM63.2263 200.787H56.0193V200.084H59.1921V198.704H56.8982V196.199H61.5212V195.092H56.8806V194.406H62.3474V196.867H57.7244V198.019H62.532V198.704H60.0183V200.084H63.2263V200.787ZM70.0642 195.039C70.0642 195.549 70.051 196 70.0247 196.393C70.0012 196.782 69.9412 197.225 69.8445 197.72H70.9783V198.405H67.7878V201.736H66.9441V198.405H63.7976V197.72H69.0007C69.1033 197.225 69.1677 196.784 69.1941 196.397C69.2205 196.01 69.2351 195.558 69.238 195.039V195.03H64.6765V194.345H70.0642V195.039Z" fill="#444444" fill-opacity="0.5"/>
<path d="M122.139 194.353H114.95V193.685H118.14V192.85H115.846V190.213H121.252V190.872H116.673V192.182H121.304V192.85H118.949V193.685H122.139V194.353ZM115.802 196.295C115.802 195.993 115.911 195.735 116.128 195.521C116.344 195.308 116.658 195.145 117.068 195.034C117.478 194.919 117.968 194.862 118.536 194.862C119.101 194.862 119.586 194.919 119.99 195.034C120.398 195.145 120.71 195.308 120.927 195.521C121.143 195.735 121.252 195.993 121.252 196.295C121.252 196.597 121.143 196.854 120.927 197.068C120.71 197.282 120.398 197.445 119.99 197.556C119.586 197.67 119.101 197.728 118.536 197.728C117.968 197.728 117.478 197.67 117.068 197.556C116.658 197.445 116.344 197.282 116.128 197.068C115.911 196.854 115.802 196.597 115.802 196.295ZM116.646 196.295C116.643 196.547 116.806 196.74 117.134 196.875C117.465 197.01 117.932 197.074 118.536 197.068C119.131 197.074 119.592 197.01 119.92 196.875C120.251 196.74 120.417 196.547 120.417 196.295C120.417 196.046 120.251 195.854 119.92 195.719C119.592 195.582 119.131 195.513 118.536 195.513C117.935 195.513 117.469 195.582 117.138 195.719C116.807 195.854 116.643 196.046 116.646 196.295ZM125.479 191.268C125.476 191.604 125.55 191.928 125.699 192.239C125.851 192.549 126.071 192.826 126.358 193.069C126.645 193.312 126.985 193.5 127.378 193.632L126.956 194.282C126.516 194.13 126.134 193.907 125.809 193.614C125.487 193.321 125.239 192.979 125.066 192.586C124.893 193.014 124.638 193.389 124.302 193.711C123.968 194.03 123.572 194.271 123.115 194.432L122.667 193.781C123.068 193.644 123.418 193.446 123.717 193.188C124.016 192.93 124.244 192.636 124.403 192.305C124.561 191.971 124.641 191.622 124.644 191.259V191.048H122.913V190.371H127.176V191.048H125.479V191.268ZM123.713 194.985H128.916V197.728H128.081V195.662H123.713V194.985ZM128.081 189.853H128.916V191.874H130.058V192.577H128.916V194.599H128.081V189.853ZM136.773 191.039C136.773 191.549 136.76 192 136.734 192.393C136.71 192.782 136.65 193.225 136.553 193.72H137.687V194.405H134.497V197.736H133.653V194.405H130.507V193.72H135.71C135.812 193.225 135.877 192.784 135.903 192.397C135.929 192.01 135.944 191.558 135.947 191.039V191.03H131.385V190.345H136.773V191.039Z" fill="#444444" fill-opacity="0.5"/>
<path d="M117.19 224.89V224.991C117.184 225.375 117.168 225.738 117.142 226.081C117.118 226.42 117.067 226.8 116.988 227.219L116.162 227.14C116.238 226.75 116.289 226.398 116.316 226.085C116.345 225.771 116.363 225.455 116.368 225.136H113.218V224.45H117.19V224.89ZM112.743 227.896C113.302 227.896 113.839 227.89 114.351 227.878V226.217H115.177V227.852C116.156 227.811 116.991 227.74 117.682 227.641L117.735 228.247C117.006 228.376 116.235 228.462 115.424 228.506C114.612 228.547 113.745 228.569 112.822 228.572L112.743 227.896ZM113.938 229.231H114.773V230.884H119.291V231.561H113.938V229.231ZM118.183 223.853H119.036V226.357H120.117V227.061H119.036V229.768H118.183V223.853ZM122.798 224.31C123.196 224.31 123.553 224.39 123.87 224.551C124.189 224.709 124.44 224.932 124.621 225.219C124.803 225.503 124.895 225.827 124.898 226.19C124.895 226.557 124.803 226.882 124.621 227.166C124.44 227.45 124.189 227.673 123.87 227.834C123.553 227.992 123.196 228.071 122.798 228.071C122.399 228.071 122.04 227.992 121.721 227.834C121.402 227.673 121.151 227.45 120.969 227.166C120.791 226.879 120.703 226.554 120.706 226.19C120.703 225.83 120.791 225.506 120.969 225.219C121.151 224.932 121.402 224.709 121.721 224.551C122.04 224.39 122.399 224.31 122.798 224.31ZM121.523 226.19C121.52 226.422 121.573 226.627 121.681 226.806C121.793 226.984 121.945 227.122 122.138 227.219C122.335 227.315 122.554 227.362 122.798 227.359C123.041 227.362 123.259 227.315 123.452 227.219C123.649 227.122 123.802 226.984 123.914 226.806C124.025 226.627 124.081 226.422 124.081 226.19C124.081 225.959 124.025 225.755 123.914 225.58C123.802 225.404 123.65 225.268 123.457 225.171C123.263 225.071 123.044 225.021 122.798 225.021C122.552 225.021 122.332 225.071 122.138 225.171C121.945 225.268 121.793 225.405 121.681 225.584C121.573 225.76 121.52 225.962 121.523 226.19ZM121.567 228.862H126.77V231.736H125.935V229.539H121.567V228.862ZM125.935 223.853H126.77V225.83H127.913V226.516H126.77V228.476H125.935V223.853ZM134.628 225.039C134.628 225.549 134.615 226 134.588 226.393C134.565 226.782 134.505 227.225 134.408 227.72H135.542V228.405H132.351V231.736H131.508V228.405H128.361V227.72H133.564C133.667 227.225 133.731 226.784 133.758 226.397C133.784 226.01 133.799 225.558 133.802 225.039V225.03H129.24V224.345H134.628V225.039Z" fill="#444444" fill-opacity="0.5"/>
<path d="M82.5339 220.846V221.087C82.5339 221.43 82.5208 221.761 82.4944 222.081C82.468 222.4 82.4138 222.747 82.3318 223.122H83.448V223.808H76.241V223.122H81.488C81.5818 222.712 81.6418 222.343 81.6682 222.015C81.6946 221.687 81.7078 221.326 81.7078 220.934H77.1462V220.248H82.5339V220.846ZM77.1199 224.81H82.5427V227.631H77.1199V224.81ZM81.7166 226.954V225.469H77.9373V226.954H81.7166ZM86.3291 221.725C86.3291 222.056 86.4082 222.372 86.5664 222.674C86.7246 222.976 86.9501 223.244 87.2431 223.478C87.539 223.709 87.8847 223.887 88.2802 224.01L87.8759 224.669C87.4277 224.528 87.0366 224.316 86.7026 224.032C86.3686 223.745 86.1108 223.406 85.9292 223.017C85.7563 223.433 85.5014 223.794 85.1645 224.102C84.8305 224.41 84.4335 224.64 83.9736 224.792L83.5693 224.142C83.9648 224.016 84.3076 223.831 84.5976 223.588C84.8906 223.342 85.1147 223.058 85.27 222.735C85.4252 222.413 85.5029 222.076 85.5029 221.725V221.54H83.789V220.863H85.5029V219.905H86.3378V220.863H88.0429V221.54H86.3291V221.725ZM85.0195 225.205H85.8544V226.884H90.3457V227.561H85.0195V225.205ZM87.7705 222.243H89.2998V219.861H90.1347V225.724H89.2998V222.92H87.7705V222.243ZM97.1642 221.039C97.1642 221.549 97.151 222 97.1247 222.393C97.1012 222.782 97.0412 223.225 96.9445 223.72H98.0783V224.405H94.8878V227.736H94.0441V224.405H90.8976V223.72H96.1007C96.2033 223.225 96.2677 222.784 96.2941 222.397C96.3205 222.01 96.3351 221.558 96.338 221.039V221.03H91.7765V220.345H97.1642V221.039Z" fill="#444444" fill-opacity="0.5"/>
<path d="M146.24 111.72H149.422V112.405H142.241V111.72H145.414V110.656H146.24V111.72ZM142.61 110.41C143.082 110.363 143.512 110.267 143.902 110.12C144.292 109.974 144.607 109.793 144.847 109.58C145.087 109.363 145.226 109.13 145.264 108.881H142.9V108.213H148.78V108.881H146.389C146.427 109.13 146.567 109.363 146.807 109.58C147.05 109.793 147.366 109.974 147.756 110.12C148.149 110.267 148.581 110.363 149.052 110.41L148.754 111.069C148.297 111.017 147.872 110.921 147.479 110.784C147.09 110.643 146.751 110.466 146.464 110.252C146.18 110.035 145.968 109.791 145.827 109.518C145.613 109.928 145.247 110.27 144.728 110.542C144.21 110.814 143.603 110.99 142.909 111.069L142.61 110.41ZM143.094 114.348C143.094 114.055 143.202 113.806 143.419 113.601C143.635 113.396 143.948 113.24 144.355 113.135C144.765 113.029 145.256 112.977 145.827 112.977C146.392 112.977 146.877 113.029 147.281 113.135C147.689 113.24 148.001 113.396 148.218 113.601C148.434 113.806 148.543 114.055 148.543 114.348C148.543 114.638 148.434 114.885 148.218 115.09C148.001 115.295 147.689 115.449 147.281 115.552C146.877 115.657 146.392 115.71 145.827 115.71C145.256 115.71 144.765 115.657 144.355 115.552C143.948 115.449 143.635 115.295 143.419 115.09C143.202 114.885 143.094 114.638 143.094 114.348ZM143.937 114.348C143.934 114.582 144.095 114.762 144.421 114.888C144.749 115.014 145.218 115.077 145.827 115.077C146.427 115.077 146.89 115.014 147.216 114.888C147.544 114.762 147.708 114.582 147.708 114.348C147.708 114.113 147.545 113.935 147.22 113.812C146.895 113.686 146.43 113.621 145.827 113.618C145.218 113.621 144.749 113.686 144.421 113.812C144.095 113.935 143.934 114.113 143.937 114.348ZM157.226 114.787H150.019V114.084H153.192V112.704H150.898V110.199H155.521V109.092H150.881V108.406H156.347V110.867H151.724V112.019H156.532V112.704H154.018V114.084H157.226V114.787ZM164.064 109.039C164.064 109.549 164.051 110 164.025 110.393C164.001 110.782 163.941 111.225 163.844 111.72H164.978V112.405H161.788V115.736H160.944V112.405H157.798V111.72H163.001C163.103 111.225 163.168 110.784 163.194 110.397C163.22 110.01 163.235 109.558 163.238 109.039V109.03H158.677V108.345H164.064V109.039Z" fill="#444444" fill-opacity="0.5"/>
<path d="M172.036 96.0303C172.036 96.3965 172.112 96.7451 172.264 97.0762C172.417 97.4043 172.636 97.6929 172.924 97.9419C173.211 98.1909 173.551 98.3799 173.943 98.5088L173.486 99.1592C173.055 99.001 172.683 98.7754 172.37 98.4824C172.056 98.1895 171.813 97.8438 171.64 97.4453C171.468 97.9023 171.213 98.2993 170.876 98.6362C170.539 98.9731 170.135 99.2266 169.663 99.3965L169.215 98.7285C169.628 98.5879 169.984 98.3843 170.282 98.1177C170.581 97.8481 170.81 97.5376 170.968 97.186C171.126 96.8345 171.207 96.4609 171.21 96.0654V95.292H172.036V96.0303ZM170.507 101.225C170.507 100.908 170.612 100.637 170.823 100.412C171.037 100.186 171.343 100.015 171.741 99.8975C172.143 99.7803 172.619 99.7217 173.17 99.7217C173.718 99.7217 174.191 99.7803 174.589 99.8975C174.988 100.015 175.294 100.186 175.508 100.412C175.724 100.637 175.833 100.908 175.833 101.225C175.833 101.538 175.724 101.806 175.508 102.029C175.294 102.251 174.988 102.42 174.589 102.534C174.191 102.651 173.718 102.71 173.17 102.71C172.619 102.71 172.143 102.651 171.741 102.534C171.343 102.42 171.037 102.251 170.823 102.029C170.612 101.806 170.507 101.538 170.507 101.225ZM171.333 101.225C171.333 101.397 171.403 101.545 171.544 101.668C171.687 101.792 171.895 101.887 172.168 101.954C172.44 102.019 172.765 102.051 173.143 102.051C173.729 102.051 174.185 101.979 174.51 101.835C174.838 101.692 175.004 101.488 175.007 101.225C175.004 100.955 174.84 100.746 174.514 100.596C174.192 100.447 173.744 100.372 173.17 100.372C172.59 100.372 172.137 100.447 171.812 100.596C171.49 100.746 171.33 100.955 171.333 101.225ZM173.31 96.4521H174.971V94.8525H175.806V99.502H174.971V97.1377H173.31V96.4521ZM184.2 99.3438H181.018V100.188H183.321V102.728H182.477V100.864H177.819V100.188H180.192V99.3438H177.019V98.6758H184.2V99.3438ZM177.96 95.0371H178.786V95.8896H182.433V95.0371H183.268V98.0166H177.96V95.0371ZM182.433 97.3486V96.5137H178.786V97.3486H182.433ZM191.064 96.0391C191.064 96.5488 191.051 97 191.025 97.3926C191.001 97.7822 190.941 98.2246 190.844 98.7197H191.978V99.4053H188.788V102.736H187.944V99.4053H184.798V98.7197H190.001C190.103 98.2246 190.168 97.7837 190.194 97.397C190.22 97.0103 190.235 96.5576 190.238 96.0391V96.0303H185.677V95.3447H191.064V96.0391Z" fill="#444444" fill-opacity="0.5"/>
<path d="M196.43 120.353H189.241V119.685H192.431V118.85H190.137V116.213H195.543V116.872H190.964V118.182H195.595V118.85H193.24V119.685H196.43V120.353ZM190.094 122.295C190.094 121.993 190.202 121.735 190.419 121.521C190.635 121.308 190.949 121.145 191.359 121.034C191.769 120.919 192.259 120.862 192.827 120.862C193.392 120.862 193.877 120.919 194.281 121.034C194.689 121.145 195.001 121.308 195.218 121.521C195.434 121.735 195.543 121.993 195.543 122.295C195.543 122.597 195.434 122.854 195.218 123.068C195.001 123.282 194.689 123.445 194.281 123.556C193.877 123.67 193.392 123.728 192.827 123.728C192.259 123.728 191.769 123.67 191.359 123.556C190.949 123.445 190.635 123.282 190.419 123.068C190.202 122.854 190.094 122.597 190.094 122.295ZM190.937 122.295C190.934 122.547 191.097 122.74 191.425 122.875C191.756 123.01 192.223 123.074 192.827 123.068C193.422 123.074 193.883 123.01 194.211 122.875C194.542 122.74 194.708 122.547 194.708 122.295C194.708 122.046 194.542 121.854 194.211 121.719C193.883 121.582 193.422 121.513 192.827 121.513C192.226 121.513 191.76 121.582 191.429 121.719C191.098 121.854 190.934 122.046 190.937 122.295ZM203.778 123.728H202.978V119.658H201.959V123.323H201.194V116.011H201.959V118.973H202.978V115.853H203.778V123.728ZM197.283 116.802H200.236V117.479H198.118V121.126C198.631 121.123 199.08 121.107 199.467 121.078C199.857 121.048 200.254 120.994 200.658 120.915L200.719 121.601C200.28 121.691 199.846 121.753 199.419 121.785C198.994 121.814 198.458 121.832 197.81 121.838H197.283V116.802ZM211.996 120.511H208.867V122.04H208.041V120.511H204.789V119.834H211.996V120.511ZM205.685 121.293H206.52V122.884H211.196V123.561H205.685V121.293ZM205.712 116.222H211.064V119.017H205.712V116.222ZM210.238 118.357V116.881H206.529V118.357H210.238ZM218.843 117.039C218.843 117.549 218.829 118 218.803 118.393C218.78 118.782 218.719 119.225 218.623 119.72H219.757V120.405H216.566V123.736H215.722V120.405H212.576V119.72H217.779C217.882 119.225 217.946 118.784 217.972 118.397C217.999 118.01 218.013 117.558 218.016 117.039V117.03H213.455V116.345H218.843V117.039Z" fill="#444444" fill-opacity="0.5"/>
<path d="M223.627 147.775C223.624 148.162 223.611 148.514 223.587 148.83C223.564 149.144 223.51 149.498 223.425 149.894L222.598 149.823C222.675 149.478 222.726 149.161 222.752 148.874C222.779 148.587 222.793 148.3 222.796 148.013H219.654V147.327H223.627V147.775ZM219.179 150.57C219.68 150.57 220.217 150.566 220.788 150.557V149.05H221.614V150.535C222.557 150.5 223.392 150.438 224.119 150.351L224.172 150.939C223.433 151.062 222.653 151.147 221.829 151.194C221.009 151.238 220.152 151.262 219.259 151.265L219.179 150.57ZM220.208 153.251C220.208 152.958 220.315 152.705 220.529 152.491C220.742 152.277 221.05 152.113 221.451 151.999C221.853 151.884 222.326 151.827 222.871 151.827C223.416 151.827 223.889 151.884 224.29 151.999C224.692 152.113 224.999 152.277 225.213 152.491C225.427 152.705 225.534 152.958 225.534 153.251C225.534 153.556 225.427 153.816 225.213 154.033C224.999 154.253 224.692 154.418 224.29 154.53C223.892 154.644 223.419 154.701 222.871 154.701C222.323 154.701 221.848 154.644 221.447 154.53C221.049 154.418 220.742 154.253 220.529 154.033C220.315 153.816 220.208 153.556 220.208 153.251ZM221.052 153.251C221.049 153.506 221.204 153.702 221.517 153.84C221.834 153.975 222.276 154.042 222.844 154.042C223.43 154.042 223.883 153.976 224.202 153.844C224.525 153.709 224.687 153.512 224.69 153.251C224.687 153.09 224.613 152.952 224.466 152.838C224.323 152.721 224.115 152.631 223.842 152.57C223.57 152.508 223.246 152.478 222.871 152.478C222.493 152.478 222.166 152.508 221.891 152.57C221.618 152.631 221.41 152.721 221.267 152.838C221.123 152.952 221.052 153.09 221.052 153.251ZM224.62 146.853H225.472V148.936H226.562V149.63H225.472V151.73H224.62V146.853ZM229.937 148.496C229.937 148.836 230.016 149.163 230.175 149.476C230.336 149.79 230.564 150.068 230.86 150.311C231.159 150.551 231.508 150.734 231.906 150.86L231.475 151.511C231.027 151.364 230.636 151.143 230.302 150.847C229.968 150.551 229.71 150.204 229.529 149.806C229.35 150.239 229.089 150.617 228.746 150.939C228.404 151.262 228.001 151.505 227.538 151.669L227.107 151.01C227.509 150.872 227.859 150.676 228.157 150.421C228.456 150.163 228.686 149.867 228.847 149.533C229.011 149.199 229.094 148.854 229.094 148.496V148.153H227.327V147.477H231.669V148.153H229.937V148.496ZM228.399 152.064H229.243V153.884H233.787V154.561H228.399V152.064ZM232.715 146.861H233.55V152.609H232.715V146.861ZM241.064 148.039C241.064 148.549 241.051 149 241.025 149.393C241.001 149.782 240.941 150.225 240.844 150.72H241.978V151.405H238.788V154.736H237.944V151.405H234.798V150.72H240.001C240.103 150.225 240.168 149.784 240.194 149.397C240.22 149.01 240.235 148.558 240.238 148.039V148.03H235.677V147.345H241.064V148.039Z" fill="#444444" fill-opacity="0.5"/>
<path d="M200.428 201.839H201.571V202.516H200.428V204.528H199.594V199.853H200.428V201.839ZM194.232 203.913C194.844 203.74 195.375 203.515 195.823 203.236C196.274 202.958 196.63 202.637 196.891 202.274C197.155 201.911 197.311 201.517 197.361 201.092H194.584V200.415H198.266C198.266 201.086 198.12 201.695 197.827 202.243C197.534 202.791 197.111 203.264 196.557 203.663C196.006 204.058 195.345 204.367 194.575 204.59L194.232 203.913ZM195.304 206.163C195.302 205.847 195.407 205.573 195.621 205.341C195.838 205.107 196.142 204.928 196.535 204.805C196.93 204.679 197.39 204.616 197.915 204.616C198.439 204.616 198.898 204.679 199.29 204.805C199.683 204.928 199.985 205.107 200.196 205.341C200.409 205.573 200.516 205.847 200.516 206.163C200.516 206.482 200.409 206.758 200.196 206.989C199.985 207.224 199.683 207.404 199.29 207.53C198.901 207.656 198.442 207.719 197.915 207.719C197.39 207.719 196.93 207.656 196.535 207.53C196.139 207.404 195.835 207.224 195.621 206.989C195.407 206.758 195.302 206.482 195.304 206.163ZM196.131 206.163C196.131 206.345 196.202 206.503 196.346 206.638C196.49 206.772 196.695 206.876 196.961 206.95C197.231 207.023 197.549 207.06 197.915 207.06C198.278 207.06 198.593 207.023 198.86 206.95C199.129 206.876 199.336 206.772 199.479 206.638C199.626 206.503 199.699 206.345 199.699 206.163C199.699 205.981 199.627 205.825 199.484 205.693C199.34 205.558 199.135 205.456 198.868 205.385C198.605 205.312 198.294 205.275 197.937 205.275C197.565 205.275 197.242 205.311 196.97 205.381C196.7 205.451 196.492 205.554 196.346 205.688C196.202 205.82 196.131 205.979 196.131 206.163ZM208.207 201.61H209.358V202.305H208.207V204.3H207.372V199.861H208.207V201.61ZM202.38 200.248H203.215V203.069C204.378 203.061 205.509 202.946 206.607 202.727L206.713 203.412C206.089 203.538 205.475 203.627 204.871 203.68C204.271 203.733 203.654 203.761 203.021 203.764H202.38V200.248ZM203.162 204.713H208.207V207.622H203.162V204.713ZM207.398 206.954V205.363H203.979V206.954H207.398ZM216.064 201.039C216.064 201.549 216.051 202 216.025 202.393C216.001 202.782 215.941 203.225 215.844 203.72H216.978V204.405H213.788V207.736H212.944V204.405H209.798V203.72H215.001C215.103 203.225 215.168 202.784 215.194 202.397C215.22 202.01 215.235 201.558 215.238 201.039V201.03H210.677V200.345H216.064V201.039Z" fill="#444444" fill-opacity="0.5"/>
<path d="M235.877 190.025H239.058V190.702H231.878V190.025H235.051V188.927H235.877V190.025ZM232.291 188.698C232.789 188.634 233.247 188.5 233.666 188.298C234.088 188.093 234.422 187.844 234.668 187.551C234.917 187.258 235.042 186.949 235.042 186.624V186.29H235.885V186.624C235.885 186.952 236.007 187.264 236.25 187.56C236.496 187.853 236.829 188.101 237.248 188.303C237.67 188.502 238.133 188.634 238.636 188.698L238.311 189.357C237.676 189.255 237.103 189.057 236.593 188.764C236.083 188.468 235.705 188.106 235.459 187.679C235.213 188.106 234.835 188.468 234.325 188.764C233.816 189.057 233.24 189.255 232.598 189.357L232.291 188.698ZM232.73 192.662C232.73 192.369 232.839 192.12 233.055 191.915C233.272 191.707 233.584 191.55 233.991 191.445C234.402 191.336 234.892 191.282 235.464 191.282C236.029 191.282 236.514 191.336 236.918 191.445C237.325 191.55 237.637 191.707 237.854 191.915C238.071 192.12 238.179 192.369 238.179 192.662C238.179 192.952 238.071 193.2 237.854 193.405C237.637 193.61 237.325 193.764 236.918 193.866C236.514 193.972 236.029 194.024 235.464 194.024C234.892 194.024 234.402 193.972 233.991 193.866C233.584 193.764 233.272 193.61 233.055 193.405C232.839 193.2 232.73 192.952 232.73 192.662ZM233.574 192.662C233.571 192.896 233.732 193.077 234.057 193.203C234.385 193.329 234.854 193.392 235.464 193.392C236.064 193.392 236.527 193.329 236.852 193.203C237.18 193.077 237.344 192.896 237.344 192.662C237.344 192.425 237.182 192.243 236.857 192.117C236.531 191.991 236.067 191.927 235.464 191.924C234.851 191.927 234.383 191.991 234.057 192.117C233.732 192.243 233.571 192.425 233.574 192.662ZM244.165 187.661H243.356V191.331C243.787 191.295 244.168 191.259 244.499 191.221L244.543 191.827C243.81 191.95 243.044 192.032 242.244 192.073C241.445 192.111 240.582 192.132 239.656 192.135L239.559 191.44C239.759 191.44 240.093 191.438 240.561 191.432V187.661H239.753V186.976H244.165V187.661ZM241.37 191.418C241.762 191.41 242.155 191.396 242.548 191.379V187.661H241.37V191.418ZM244.956 186.167H245.791V189.27H247.056V189.955H245.791V194.042H244.956V186.167ZM253.701 187.354C253.701 187.863 253.688 188.314 253.661 188.707C253.638 189.097 253.578 189.539 253.481 190.034H254.615V190.72H251.425V194.051H250.581V190.72H247.434V190.034H252.637C252.74 189.539 252.804 189.098 252.831 188.711C252.857 188.325 252.872 187.872 252.875 187.354V187.345H248.313V186.659H253.701V187.354Z" fill="#444444" fill-opacity="0.5"/>
<path d="M174.428 60.8389H175.571V61.5156H174.428V63.5283H173.594V58.8525H174.428V60.8389ZM168.232 62.9131C168.844 62.7402 169.375 62.5146 169.823 62.2363C170.274 61.958 170.63 61.6372 170.891 61.2739C171.155 60.9106 171.311 60.5166 171.361 60.0918H168.584V59.415H172.266C172.266 60.0859 172.12 60.6953 171.827 61.2432C171.534 61.791 171.111 62.2642 170.557 62.6626C170.006 63.0581 169.345 63.3672 168.575 63.5898L168.232 62.9131ZM169.304 65.1631C169.302 64.8467 169.407 64.5728 169.621 64.3413C169.838 64.1069 170.142 63.9282 170.535 63.8052C170.93 63.6792 171.39 63.6162 171.915 63.6162C172.439 63.6162 172.898 63.6792 173.29 63.8052C173.683 63.9282 173.985 64.1069 174.196 64.3413C174.409 64.5728 174.516 64.8467 174.516 65.1631C174.516 65.4824 174.409 65.7578 174.196 65.9893C173.985 66.2236 173.683 66.4038 173.29 66.5298C172.901 66.6558 172.442 66.7188 171.915 66.7188C171.39 66.7188 170.93 66.6558 170.535 66.5298C170.139 66.4038 169.835 66.2236 169.621 65.9893C169.407 65.7578 169.302 65.4824 169.304 65.1631ZM170.131 65.1631C170.131 65.3447 170.202 65.5029 170.346 65.6377C170.49 65.7725 170.695 65.8765 170.961 65.9497C171.231 66.0229 171.549 66.0596 171.915 66.0596C172.278 66.0596 172.593 66.0229 172.86 65.9497C173.129 65.8765 173.336 65.7725 173.479 65.6377C173.626 65.5029 173.699 65.3447 173.699 65.1631C173.699 64.9814 173.627 64.8247 173.484 64.6929C173.34 64.5581 173.135 64.4556 172.868 64.3853C172.605 64.312 172.294 64.2754 171.937 64.2754C171.565 64.2754 171.242 64.3105 170.97 64.3809C170.7 64.4512 170.492 64.5537 170.346 64.6885C170.202 64.8203 170.131 64.9785 170.131 65.1631ZM183.2 63.3438H180.018V64.1875H182.321V66.7275H181.477V64.8643H176.819V64.1875H179.192V63.3438H176.019V62.6758H183.2V63.3438ZM176.96 59.0371H177.786V59.8896H181.433V59.0371H182.268V62.0166H176.96V59.0371ZM181.433 61.3486V60.5137H177.786V61.3486H181.433ZM190.064 60.0391C190.064 60.5488 190.051 61 190.025 61.3926C190.001 61.7822 189.941 62.2246 189.844 62.7197H190.978V63.4053H187.788V66.7363H186.944V63.4053H183.798V62.7197H189.001C189.103 62.2246 189.168 61.7837 189.194 61.397C189.22 61.0103 189.235 60.5576 189.238 60.0391V60.0303H184.677V59.3447H190.064V60.0391Z" fill="#BEBEBE"/>
<path d="M185.622 39.1504H183.24V41.0752H186.448V41.7607H179.241V41.0752H182.414V39.1504H180.137V35.459H185.552V36.1357H180.972V38.4824H185.622V39.1504ZM194.2 39.4316H187.019V38.7461H190.192V37.9814H187.96V35.0635H188.786V35.8809H192.433V35.0635H193.268V37.9814H191.018V38.7461H194.2V39.4316ZM187.881 41.3301C187.881 41.0371 187.988 40.7866 188.201 40.5786C188.415 40.3706 188.726 40.2124 189.133 40.104C189.543 39.9956 190.034 39.9414 190.605 39.9414C191.171 39.9414 191.657 39.9956 192.064 40.104C192.471 40.2124 192.783 40.3706 193 40.5786C193.217 40.7866 193.327 41.0371 193.33 41.3301C193.327 41.626 193.217 41.8765 193 42.0815C192.783 42.2896 192.471 42.4463 192.064 42.5518C191.657 42.6572 191.171 42.71 190.605 42.71C190.034 42.71 189.543 42.6572 189.133 42.5518C188.726 42.4463 188.415 42.2896 188.201 42.0815C187.988 41.8765 187.881 41.626 187.881 41.3301ZM188.716 41.3301C188.716 41.5703 188.88 41.7549 189.208 41.8838C189.539 42.0098 190.005 42.0713 190.605 42.0684C191.2 42.0742 191.66 42.0127 191.985 41.8838C192.313 41.7549 192.477 41.5703 192.477 41.3301C192.477 41.0898 192.315 40.9067 191.99 40.7808C191.664 40.6519 191.203 40.5859 190.605 40.583C189.999 40.5859 189.531 40.6519 189.203 40.7808C188.878 40.9067 188.716 41.0898 188.716 41.3301ZM192.433 37.3223V36.5225H188.786V37.3223H192.433ZM201.064 36.0391C201.064 36.5488 201.051 37 201.025 37.3926C201.001 37.7822 200.941 38.2246 200.844 38.7197H201.978V39.4053H198.788V42.7363H197.944V39.4053H194.798V38.7197H200.001C200.103 38.2246 200.168 37.7837 200.194 37.397C200.22 37.0103 200.235 36.5576 200.238 36.0391V36.0303H195.677V35.3447H201.064V36.0391Z" fill="#BEBEBE"/>
<path d="M217.631 57.0537H215.249V59.0576H218.448V59.7432H211.241V59.0576H214.414V57.0537H212.102V53.5029H212.946V56.3682H217.631V57.0537ZM225.567 58.8291H224.732V58.0732H223.15V57.4844H224.732V52.8613H225.567V58.8291ZM219.081 56.4561C220.124 56.4473 221.038 56.4282 221.823 56.3989C222.608 56.3696 223.361 56.3096 224.082 56.2188L224.135 56.8164C223.546 56.916 222.854 56.9937 222.06 57.0493V58.583H221.225V57.0933C220.716 57.1138 220.004 57.124 219.09 57.124L218.984 56.4561H219.081ZM219.599 54.5488C219.599 54.2734 219.68 54.0317 219.841 53.8237C220.005 53.6128 220.235 53.4502 220.531 53.3359C220.83 53.2188 221.173 53.1602 221.559 53.1602C221.94 53.1602 222.279 53.2188 222.574 53.3359C222.87 53.4502 223.1 53.6128 223.264 53.8237C223.428 54.0317 223.51 54.2734 223.51 54.5488C223.51 54.8242 223.428 55.0659 223.264 55.2739C223.1 55.479 222.87 55.6387 222.574 55.7529C222.279 55.8643 221.94 55.9199 221.559 55.9199C221.173 55.9199 220.831 55.8643 220.535 55.7529C220.24 55.6387 220.01 55.479 219.845 55.2739C219.681 55.0659 219.599 54.8242 219.599 54.5488ZM220.074 58.249H220.9V59.8838H225.76V60.5605H220.074V58.249ZM220.39 54.5488C220.39 54.7012 220.439 54.8345 220.535 54.9487C220.632 55.063 220.768 55.1509 220.944 55.2124C221.123 55.2739 221.328 55.3047 221.559 55.3047C221.782 55.3047 221.981 55.2739 222.157 55.2124C222.333 55.1509 222.47 55.063 222.57 54.9487C222.67 54.8345 222.719 54.7012 222.719 54.5488C222.719 54.3936 222.67 54.2588 222.57 54.1445C222.47 54.0273 222.333 53.938 222.157 53.8765C221.981 53.812 221.782 53.7812 221.559 53.7842C221.328 53.7812 221.123 53.812 220.944 53.8765C220.768 53.938 220.632 54.0273 220.535 54.1445C220.439 54.2588 220.39 54.3936 220.39 54.5488ZM233.064 54.0391C233.064 54.5488 233.051 55 233.025 55.3926C233.001 55.7822 232.941 56.2246 232.844 56.7197H233.978V57.4053H230.788V60.7363H229.944V57.4053H226.798V56.7197H232.001C232.103 56.2246 232.168 55.7837 232.194 55.397C232.22 55.0103 232.235 54.5576 232.238 54.0391V54.0303H227.677V53.3447H233.064V54.0391Z" fill="#BEBEBE"/>
<path d="M230.475 103.177H227.294V103.933C228.023 103.974 228.589 104.113 228.99 104.35C229.391 104.587 229.594 104.911 229.596 105.321C229.596 105.617 229.488 105.869 229.271 106.077C229.054 106.285 228.742 106.442 228.335 106.547C227.928 106.656 227.443 106.71 226.881 106.71C226.309 106.71 225.819 106.656 225.408 106.547C225.001 106.442 224.689 106.285 224.472 106.077C224.256 105.869 224.147 105.617 224.147 105.321C224.147 104.911 224.349 104.587 224.754 104.35C225.158 104.11 225.729 103.971 226.468 103.933V103.177H223.295V102.5H230.475V103.177ZM223.673 101.428C224.138 101.381 224.566 101.283 224.956 101.133C225.345 100.984 225.66 100.801 225.901 100.584C226.141 100.364 226.28 100.13 226.318 99.8809H223.954V99.2129H229.834V99.8809H227.443C227.481 100.133 227.62 100.369 227.861 100.588C228.101 100.805 228.416 100.988 228.805 101.138C229.198 101.284 229.632 101.381 230.106 101.428L229.807 102.087C229.35 102.034 228.926 101.938 228.533 101.797C228.143 101.653 227.806 101.473 227.522 101.256C227.238 101.04 227.026 100.793 226.885 100.518C226.741 100.793 226.528 101.04 226.243 101.256C225.959 101.473 225.622 101.653 225.233 101.797C224.843 101.938 224.42 102.034 223.963 102.087L223.673 101.428ZM224.991 105.321C224.988 105.562 225.152 105.748 225.483 105.879C225.814 106.008 226.28 106.071 226.881 106.068C227.472 106.071 227.934 106.008 228.265 105.879C228.596 105.748 228.761 105.562 228.761 105.321C228.761 105.078 228.597 104.892 228.269 104.763C227.941 104.634 227.478 104.568 226.881 104.565C226.274 104.568 225.807 104.634 225.479 104.763C225.151 104.892 224.988 105.078 224.991 105.321ZM237.26 100.786H238.412V101.48H237.26V103.599H236.426V98.8613H237.26V100.786ZM231.389 99.3359H234.975V101.542H232.233V102.5C232.948 102.5 233.568 102.482 234.092 102.447C234.619 102.412 235.16 102.348 235.714 102.254L235.802 102.931C235.257 103.027 234.719 103.095 234.189 103.133C233.661 103.168 233.049 103.186 232.352 103.186H232.031H231.398V100.9H234.158V100.013H231.389V99.3359ZM232.066 105.269C232.066 104.967 232.172 104.706 232.383 104.486C232.596 104.267 232.901 104.1 233.297 103.985C233.695 103.868 234.167 103.81 234.712 103.81C235.248 103.81 235.712 103.868 236.105 103.985C236.5 104.1 236.803 104.267 237.014 104.486C237.225 104.706 237.331 104.967 237.331 105.269C237.331 105.57 237.225 105.83 237.014 106.046C236.803 106.263 236.502 106.427 236.109 106.539C235.717 106.653 235.251 106.71 234.712 106.71C234.167 106.71 233.695 106.653 233.297 106.539C232.901 106.427 232.596 106.263 232.383 106.046C232.172 105.83 232.066 105.57 232.066 105.269ZM232.884 105.269C232.881 105.526 233.04 105.726 233.363 105.866C233.685 106.007 234.135 106.074 234.712 106.068C235.28 106.074 235.722 106.007 236.039 105.866C236.358 105.726 236.516 105.526 236.513 105.269C236.516 105.017 236.361 104.82 236.048 104.68C235.734 104.539 235.298 104.469 234.738 104.469C234.149 104.469 233.692 104.539 233.367 104.68C233.042 104.817 232.881 105.014 232.884 105.269ZM245.118 100.039C245.118 100.549 245.105 101 245.078 101.393C245.055 101.782 244.995 102.225 244.898 102.72H246.032V103.405H242.842V106.736H241.998V103.405H238.851V102.72H244.054C244.157 102.225 244.221 101.784 244.248 101.397C244.274 101.01 244.289 100.558 244.292 100.039V100.03H239.73V99.3447H245.118V100.039Z" fill="#BEBEBE"/>
<path d="M267.428 146.839H268.571V147.516H267.428V149.528H266.594V144.853H267.428V146.839ZM261.232 148.913C261.844 148.74 262.375 148.515 262.823 148.236C263.274 147.958 263.63 147.637 263.891 147.274C264.155 146.911 264.311 146.517 264.361 146.092H261.584V145.415H265.266C265.266 146.086 265.12 146.695 264.827 147.243C264.534 147.791 264.111 148.264 263.557 148.663C263.006 149.058 262.345 149.367 261.575 149.59L261.232 148.913ZM262.304 151.163C262.302 150.847 262.407 150.573 262.621 150.341C262.838 150.107 263.142 149.928 263.535 149.805C263.93 149.679 264.39 149.616 264.915 149.616C265.439 149.616 265.898 149.679 266.29 149.805C266.683 149.928 266.985 150.107 267.196 150.341C267.409 150.573 267.516 150.847 267.516 151.163C267.516 151.482 267.409 151.758 267.196 151.989C266.985 152.224 266.683 152.404 266.29 152.53C265.901 152.656 265.442 152.719 264.915 152.719C264.39 152.719 263.93 152.656 263.535 152.53C263.139 152.404 262.835 152.224 262.621 151.989C262.407 151.758 262.302 151.482 262.304 151.163ZM263.131 151.163C263.131 151.345 263.202 151.503 263.346 151.638C263.49 151.772 263.695 151.876 263.961 151.95C264.231 152.023 264.549 152.06 264.915 152.06C265.278 152.06 265.593 152.023 265.86 151.95C266.129 151.876 266.336 151.772 266.479 151.638C266.626 151.503 266.699 151.345 266.699 151.163C266.699 150.981 266.627 150.825 266.484 150.693C266.34 150.558 266.135 150.456 265.868 150.385C265.605 150.312 265.294 150.275 264.937 150.275C264.565 150.275 264.242 150.311 263.97 150.381C263.7 150.451 263.492 150.554 263.346 150.688C263.202 150.82 263.131 150.979 263.131 151.163ZM276.209 149.353H269.019V148.685H272.21V147.85H269.916V145.213H275.321V145.872H270.742V147.182H275.374V147.85H273.018V148.685H276.209V149.353ZM269.872 151.295C269.872 150.993 269.98 150.735 270.197 150.521C270.414 150.308 270.727 150.145 271.137 150.034C271.548 149.919 272.037 149.862 272.605 149.862C273.171 149.862 273.656 149.919 274.06 150.034C274.467 150.145 274.779 150.308 274.996 150.521C275.213 150.735 275.321 150.993 275.321 151.295C275.321 151.597 275.213 151.854 274.996 152.068C274.779 152.282 274.467 152.445 274.06 152.556C273.656 152.67 273.171 152.728 272.605 152.728C272.037 152.728 271.548 152.67 271.137 152.556C270.727 152.445 270.414 152.282 270.197 152.068C269.98 151.854 269.872 151.597 269.872 151.295ZM270.716 151.295C270.713 151.547 270.875 151.74 271.203 151.875C271.534 152.01 272.002 152.074 272.605 152.068C273.2 152.074 273.661 152.01 273.99 151.875C274.321 151.74 274.486 151.547 274.486 151.295C274.486 151.046 274.321 150.854 273.99 150.719C273.661 150.582 273.2 150.513 272.605 150.513C272.005 150.513 271.539 150.582 271.208 150.719C270.877 150.854 270.713 151.046 270.716 151.295ZM283.064 146.039C283.064 146.549 283.051 147 283.025 147.393C283.001 147.782 282.941 148.225 282.844 148.72H283.978V149.405H280.788V152.736H279.944V149.405H276.798V148.72H282.001C282.103 148.225 282.168 147.784 282.194 147.397C282.22 147.01 282.235 146.558 282.238 146.039V146.03H277.677V145.345H283.064V146.039Z" fill="#BEBEBE"/>
<path d="M159.422 139.177H156.24V139.933C156.969 139.974 157.535 140.113 157.936 140.35C158.338 140.587 158.54 140.911 158.543 141.321C158.543 141.617 158.434 141.869 158.218 142.077C158.001 142.285 157.689 142.442 157.281 142.547C156.874 142.656 156.389 142.71 155.827 142.71C155.256 142.71 154.765 142.656 154.355 142.547C153.948 142.442 153.635 142.285 153.419 142.077C153.202 141.869 153.094 141.617 153.094 141.321C153.094 140.911 153.296 140.587 153.7 140.35C154.104 140.11 154.676 139.971 155.414 139.933V139.177H152.241V138.5H159.422V139.177ZM152.619 137.428C153.085 137.381 153.512 137.283 153.902 137.133C154.292 136.984 154.607 136.801 154.847 136.584C155.087 136.364 155.226 136.13 155.264 135.881H152.9V135.213H158.78V135.881H156.389C156.427 136.133 156.567 136.369 156.807 136.588C157.047 136.805 157.362 136.988 157.752 137.138C158.144 137.284 158.578 137.381 159.052 137.428L158.754 138.087C158.297 138.034 157.872 137.938 157.479 137.797C157.09 137.653 156.753 137.473 156.469 137.256C156.184 137.04 155.972 136.793 155.831 136.518C155.688 136.793 155.474 137.04 155.19 137.256C154.906 137.473 154.569 137.653 154.179 137.797C153.789 137.938 153.366 138.034 152.909 138.087L152.619 137.428ZM153.937 141.321C153.934 141.562 154.098 141.748 154.429 141.879C154.76 142.008 155.226 142.071 155.827 142.068C156.419 142.071 156.88 142.008 157.211 141.879C157.542 141.748 157.708 141.562 157.708 141.321C157.708 141.078 157.544 140.892 157.216 140.763C156.887 140.634 156.425 140.568 155.827 140.565C155.22 140.568 154.753 140.634 154.425 140.763C154.097 140.892 153.934 141.078 153.937 141.321ZM166.286 136.039C166.286 136.549 166.273 137 166.246 137.393C166.223 137.782 166.163 138.225 166.066 138.72H167.2V139.405H164.01V142.736H163.166V139.405H160.019V138.72H165.222C165.325 138.225 165.389 137.784 165.416 137.397C165.442 137.01 165.457 136.558 165.46 136.039V136.03H160.898V135.345H166.286V136.039Z" fill="#BEBEBE"/>
<path d="M189.036 145.03C189.036 145.396 189.112 145.745 189.264 146.076C189.417 146.404 189.636 146.693 189.924 146.942C190.211 147.191 190.551 147.38 190.943 147.509L190.486 148.159C190.055 148.001 189.683 147.775 189.37 147.482C189.056 147.189 188.813 146.844 188.64 146.445C188.468 146.902 188.213 147.299 187.876 147.636C187.539 147.973 187.135 148.227 186.663 148.396L186.215 147.729C186.628 147.588 186.984 147.384 187.282 147.118C187.581 146.848 187.81 146.538 187.968 146.186C188.126 145.834 188.207 145.461 188.21 145.065V144.292H189.036V145.03ZM187.507 150.225C187.507 149.908 187.612 149.637 187.823 149.412C188.037 149.186 188.343 149.015 188.741 148.897C189.143 148.78 189.619 148.722 190.17 148.722C190.718 148.722 191.191 148.78 191.589 148.897C191.988 149.015 192.294 149.186 192.508 149.412C192.724 149.637 192.833 149.908 192.833 150.225C192.833 150.538 192.724 150.806 192.508 151.029C192.294 151.251 191.988 151.42 191.589 151.534C191.191 151.651 190.718 151.71 190.17 151.71C189.619 151.71 189.143 151.651 188.741 151.534C188.343 151.42 188.037 151.251 187.823 151.029C187.612 150.806 187.507 150.538 187.507 150.225ZM188.333 150.225C188.333 150.397 188.403 150.545 188.544 150.668C188.687 150.792 188.895 150.887 189.168 150.954C189.44 151.019 189.765 151.051 190.143 151.051C190.729 151.051 191.185 150.979 191.51 150.835C191.838 150.692 192.004 150.488 192.007 150.225C192.004 149.955 191.84 149.746 191.514 149.596C191.192 149.447 190.744 149.372 190.17 149.372C189.59 149.372 189.137 149.447 188.812 149.596C188.49 149.746 188.33 149.955 188.333 150.225ZM190.31 145.452H191.971V143.853H192.806V148.502H191.971V146.138H190.31V145.452ZM201.209 148.353H194.019V147.685H197.21V146.85H194.916V144.213H200.321V144.872H195.742V146.182H200.374V146.85H198.018V147.685H201.209V148.353ZM194.872 150.295C194.872 149.993 194.98 149.735 195.197 149.521C195.414 149.308 195.727 149.145 196.137 149.034C196.548 148.919 197.037 148.862 197.605 148.862C198.171 148.862 198.656 148.919 199.06 149.034C199.467 149.145 199.779 149.308 199.996 149.521C200.213 149.735 200.321 149.993 200.321 150.295C200.321 150.597 200.213 150.854 199.996 151.068C199.779 151.282 199.467 151.445 199.06 151.556C198.656 151.67 198.171 151.728 197.605 151.728C197.037 151.728 196.548 151.67 196.137 151.556C195.727 151.445 195.414 151.282 195.197 151.068C194.98 150.854 194.872 150.597 194.872 150.295ZM195.716 150.295C195.713 150.547 195.875 150.74 196.203 150.875C196.534 151.01 197.002 151.074 197.605 151.068C198.2 151.074 198.661 151.01 198.99 150.875C199.321 150.74 199.486 150.547 199.486 150.295C199.486 150.046 199.321 149.854 198.99 149.719C198.661 149.582 198.2 149.513 197.605 149.513C197.005 149.513 196.539 149.582 196.208 149.719C195.877 149.854 195.713 150.046 195.716 150.295ZM208.064 145.039C208.064 145.549 208.051 146 208.025 146.393C208.001 146.782 207.941 147.225 207.844 147.72H208.978V148.405H205.788V151.736H204.944V148.405H201.798V147.72H207.001C207.103 147.225 207.168 146.784 207.194 146.397C207.22 146.01 207.235 145.558 207.238 145.039V145.03H202.677V144.345H208.064V145.039Z" fill="#BEBEBE"/>
<path d="M145.73 163.866H138.55V163.189H140.272V162.13C139.962 162.004 139.724 161.843 139.56 161.647C139.399 161.451 139.32 161.224 139.323 160.966C139.323 160.658 139.436 160.393 139.661 160.17C139.89 159.948 140.215 159.779 140.637 159.665C141.062 159.548 141.561 159.489 142.135 159.489C142.71 159.489 143.208 159.548 143.63 159.665C144.052 159.779 144.377 159.948 144.605 160.17C144.834 160.393 144.948 160.658 144.948 160.966C144.945 161.224 144.862 161.452 144.698 161.651C144.533 161.848 144.298 162.009 143.99 162.135V163.189H145.73V163.866ZM139.402 165.8C139.402 165.501 139.51 165.248 139.727 165.04C139.944 164.832 140.256 164.673 140.663 164.565C141.073 164.457 141.564 164.402 142.135 164.402C142.698 164.402 143.183 164.457 143.59 164.565C143.997 164.673 144.309 164.833 144.526 165.044C144.743 165.252 144.851 165.504 144.851 165.8C144.851 166.099 144.743 166.354 144.526 166.564C144.309 166.775 143.997 166.935 143.59 167.043C143.186 167.152 142.701 167.206 142.135 167.206C141.564 167.206 141.073 167.152 140.663 167.043C140.256 166.935 139.944 166.775 139.727 166.564C139.51 166.356 139.402 166.102 139.402 165.8ZM140.184 160.966C140.181 161.227 140.351 161.429 140.694 161.572C141.037 161.716 141.517 161.789 142.135 161.792C142.751 161.789 143.23 161.716 143.573 161.572C143.918 161.429 144.09 161.227 144.087 160.966C144.087 160.793 144.009 160.644 143.854 160.518C143.698 160.392 143.474 160.296 143.181 160.232C142.888 160.165 142.54 160.131 142.135 160.131C141.52 160.134 141.04 160.208 140.694 160.355C140.351 160.499 140.181 160.702 140.184 160.966ZM140.246 165.8C140.243 166.046 140.407 166.236 140.738 166.371C141.069 166.503 141.535 166.567 142.135 166.564C142.73 166.57 143.192 166.506 143.52 166.371C143.851 166.236 144.016 166.046 144.016 165.8C144.016 165.56 143.851 165.374 143.52 165.242C143.192 165.11 142.73 165.044 142.135 165.044C141.532 165.044 141.065 165.11 140.734 165.242C140.406 165.374 140.243 165.56 140.246 165.8ZM143.164 163.189V162.35C142.847 162.4 142.505 162.425 142.135 162.425C141.784 162.425 141.444 162.401 141.116 162.354V163.189H143.164ZM149.061 160.79C149.061 161.142 149.139 161.48 149.294 161.805C149.452 162.13 149.677 162.419 149.967 162.671C150.26 162.92 150.602 163.11 150.995 163.242L150.564 163.901C150.128 163.749 149.747 163.523 149.422 163.225C149.099 162.923 148.85 162.571 148.675 162.17C148.502 162.618 148.248 163.008 147.914 163.339C147.583 163.667 147.189 163.916 146.732 164.086L146.266 163.427C146.674 163.286 147.025 163.083 147.321 162.816C147.617 162.546 147.843 162.236 147.998 161.884C148.153 161.53 148.232 161.156 148.235 160.764V159.832H149.061V160.79ZM147.532 164.587H148.385V166.38H152.858V167.057H147.532V164.587ZM151.68 159.34H152.515V161.713H153.658V162.425H152.515V165.149H151.68V159.34ZM160.373 160.535C160.373 161.045 160.36 161.496 160.333 161.889C160.31 162.278 160.25 162.721 160.153 163.216H161.287V163.901H158.096V167.232H157.253V163.901H154.106V163.216H159.309C159.412 162.721 159.476 162.28 159.503 161.893C159.529 161.506 159.544 161.054 159.547 160.535V160.526H154.985V159.841H160.373V160.535Z" fill="#BEBEBE"/>
<path d="M164.08 214.856C164.08 215.334 164.163 215.803 164.33 216.263C164.5 216.72 164.738 217.125 165.042 217.48C165.347 217.834 165.697 218.1 166.093 218.275L165.583 218.943C165.143 218.721 164.758 218.4 164.427 217.981C164.096 217.559 163.843 217.076 163.667 216.531C163.491 217.108 163.235 217.622 162.898 218.073C162.564 218.521 162.173 218.861 161.724 219.093L161.197 218.416C161.595 218.226 161.948 217.944 162.256 217.572C162.567 217.197 162.807 216.772 162.977 216.298C163.15 215.82 163.236 215.34 163.236 214.856V213.512H164.08V214.856ZM165.222 215.472H166.98V212.853H167.806V220.745H166.98V216.148H165.222V215.472ZM176.226 219.761H169.019V219.075H172.201V217.361H173.027V219.075H176.226V219.761ZM169.371 216.983C169.904 216.904 170.382 216.756 170.803 216.54C171.228 216.323 171.562 216.058 171.805 215.744C172.052 215.428 172.18 215.088 172.192 214.725H169.67V214.048H172.201V212.993H173.027V214.048H175.558V214.725H173.036C173.048 215.088 173.175 215.428 173.418 215.744C173.664 216.058 173.998 216.323 174.42 216.54C174.845 216.756 175.324 216.904 175.857 216.983L175.541 217.634C174.873 217.528 174.281 217.325 173.765 217.023C173.25 216.718 172.865 216.339 172.61 215.885C172.358 216.339 171.974 216.718 171.458 217.023C170.946 217.325 170.355 217.528 169.687 217.634L169.371 216.983ZM183.064 214.039C183.064 214.549 183.051 215 183.025 215.393C183.001 215.782 182.941 216.225 182.844 216.72H183.978V217.405H180.788V220.736H179.944V217.405H176.798V216.72H182.001C182.103 216.225 182.168 215.784 182.194 215.397C182.22 215.01 182.235 214.558 182.238 214.039V214.03H177.677V213.345H183.064V214.039Z" fill="#BEBEBE"/>
<path d="M55.5447 172.95H54.4285V173.952H55.5447V174.646H54.4285V175.798H53.5935V171.148H54.4285V172.265H55.5447V172.95ZM48.364 173.478C48.3611 173.114 48.449 172.791 48.6277 172.506C48.8093 172.222 49.0598 172.001 49.3792 171.843C49.6985 171.685 50.0574 171.605 50.4558 171.605C50.8542 171.605 51.2117 171.685 51.5281 171.843C51.8474 172.001 52.0979 172.222 52.2795 172.506C52.4612 172.791 52.5535 173.114 52.5564 173.478C52.5535 173.838 52.4612 174.16 52.2795 174.444C52.0979 174.729 51.8474 174.951 51.5281 175.112C51.2117 175.271 50.8542 175.35 50.4558 175.35C50.0574 175.35 49.6985 175.271 49.3792 175.112C49.0598 174.951 48.8093 174.729 48.6277 174.444C48.449 174.16 48.3611 173.838 48.364 173.478ZM49.1814 173.478C49.1785 173.706 49.2312 173.908 49.3396 174.084C49.4509 174.26 49.6033 174.397 49.7966 174.497C49.99 174.594 50.2097 174.644 50.4558 174.646C50.7019 174.644 50.9216 174.594 51.115 174.497C51.3083 174.397 51.4607 174.26 51.572 174.084C51.6833 173.908 51.739 173.706 51.739 173.478C51.739 173.249 51.6833 173.047 51.572 172.871C51.4607 172.692 51.3069 172.555 51.1106 172.458C50.9172 172.358 50.699 172.309 50.4558 172.309C50.2126 172.309 49.9929 172.358 49.7966 172.458C49.6033 172.555 49.4509 172.692 49.3396 172.871C49.2312 173.047 49.1785 173.249 49.1814 173.478ZM49.2429 177.512C49.2429 177.201 49.3499 176.933 49.5637 176.708C49.7776 176.482 50.0823 176.309 50.4778 176.189C50.8762 176.069 51.3464 176.009 51.8884 176.009C52.4216 176.009 52.8845 176.069 53.2771 176.189C53.6697 176.309 53.9714 176.482 54.1824 176.708C54.3933 176.933 54.4988 177.201 54.4988 177.512C54.4988 177.822 54.3933 178.09 54.1824 178.316C53.9714 178.542 53.6697 178.713 53.2771 178.83C52.8845 178.947 52.4216 179.006 51.8884 179.006C51.3494 179.006 50.8806 178.947 50.4822 178.83C50.0837 178.713 49.7776 178.542 49.5637 178.316C49.3499 178.09 49.2429 177.822 49.2429 177.512ZM50.0779 177.512C50.075 177.775 50.2302 177.979 50.5437 178.123C50.8572 178.266 51.2966 178.338 51.8621 178.338C52.4421 178.338 52.8904 178.268 53.2068 178.127C53.5261 177.983 53.6843 177.778 53.6814 177.512C53.6843 177.251 53.5291 177.049 53.2156 176.905C52.905 176.759 52.47 176.686 51.9104 176.686C51.3303 176.686 50.8792 176.757 50.5569 176.901C50.2346 177.044 50.075 177.248 50.0779 177.512ZM58.7791 173.021C58.7791 173.352 58.8582 173.668 59.0164 173.97C59.1746 174.271 59.4001 174.54 59.6931 174.774C59.989 175.005 60.3347 175.183 60.7302 175.306L60.3259 175.965C59.8777 175.824 59.4866 175.612 59.1526 175.328C58.8186 175.041 58.5608 174.702 58.3792 174.312C58.2063 174.729 57.9514 175.09 57.6145 175.398C57.2805 175.706 56.8835 175.936 56.4236 176.088L56.0193 175.438C56.4148 175.312 56.7576 175.127 57.0476 174.884C57.3406 174.638 57.5647 174.354 57.72 174.031C57.8752 173.709 57.9529 173.372 57.9529 173.021V172.836H56.239V172.159H57.9529V171.201H58.7878V172.159H60.4929V172.836H58.7791V173.021ZM57.4695 176.501H58.3044V178.18H62.7957V178.856H57.4695V176.501ZM60.2205 173.539H61.7498V171.157H62.5847V177.02H61.7498V174.216H60.2205V173.539ZM70.0642 172.335C70.0642 172.845 70.051 173.296 70.0247 173.688C70.0012 174.078 69.9412 174.521 69.8445 175.016H70.9783V175.701H67.7878V179.032H66.9441V175.701H63.7976V175.016H69.0007C69.1033 174.521 69.1677 174.08 69.1941 173.693C69.2205 173.306 69.2351 172.854 69.238 172.335V172.326H64.6765V171.641H70.0642V172.335Z" fill="#BEBEBE"/>
</g>
<defs>
<clipPath id="clip0_2659_17781">
<rect width="298" height="268" fill="white"/>
</clipPath>
</defs>
</svg>
