<svg width="25" height="24" viewBox="0 0 25 24" fill="none" xmlns="http://www.w3.org/2000/svg">
<path d="M8.21484 19H16.2148V20C16.2148 20.5523 15.7671 21 15.2148 21H9.21484C8.66256 21 8.21484 20.5523 8.21484 20V19Z" fill="#96C5F1"/>
<path fill-rule="evenodd" clip-rule="evenodd" d="M8.05823 11.1988C7.80195 11.3181 7.51618 11.3848 7.21484 11.3848C6.11027 11.3848 5.21484 10.4893 5.21484 9.38477C5.21484 8.2802 6.11027 7.38477 7.21484 7.38477C7.41647 7.38477 7.61113 7.4146 7.79465 7.4701C8.02689 6.6227 8.80257 6 9.72369 6C10.6448 6 11.4205 6.6227 11.6527 7.4701C11.8363 7.4146 12.0309 7.38477 12.2325 7.38477C13.3371 7.38477 14.2325 8.2802 14.2325 9.38477C14.2325 10.4893 13.3371 11.3848 12.2325 11.3848C11.8609 11.3848 11.513 11.2834 11.2148 11.1068V11.8535H8.05823V11.1988Z" fill="#4E9A27"/>
<path fill-rule="evenodd" clip-rule="evenodd" d="M5.15678 8.50669C4.89004 8.43522 4.61588 8.59351 4.54441 8.86024C4.38773 9.44496 4.23858 10.2471 4.23921 11.1C4.23984 11.9503 4.38945 12.8847 4.8623 13.7038C5.31899 14.4948 5.95671 15.1075 6.64167 15.4462C7.32286 15.783 8.10925 15.8706 8.77737 15.4848C9.44549 15.0991 9.76283 14.3743 9.81174 13.6159C9.86091 12.8534 9.64912 11.9948 9.19243 11.2038C8.71671 10.3798 7.94617 9.77493 7.19961 9.34832C6.44848 8.91911 5.681 8.64716 5.15678 8.50669Z" fill="#9FDB31"/>
<path fill-rule="evenodd" clip-rule="evenodd" d="M5.77695 10.2886C6.01609 10.1505 6.32189 10.2324 6.45996 10.4716L8.45996 13.9357C8.59803 14.1748 8.51609 14.4806 8.27695 14.6187C8.0378 14.7568 7.73201 14.6748 7.59394 14.4357L5.59394 10.9716C5.45586 10.7324 5.5378 10.4266 5.77695 10.2886Z" fill="#71BF2D"/>
<circle cx="14.2148" cy="7.92676" r="1" fill="#E94442"/>
<circle cx="16.0498" cy="7.73438" r="1" fill="#E94442"/>
<path fill-rule="evenodd" clip-rule="evenodd" d="M16.3035 11.9986C16.12 12.0541 15.9253 12.084 15.7237 12.084C15.5221 12.084 15.3274 12.0541 15.1439 11.9986C14.9116 12.8461 14.136 13.4688 13.2148 13.4688C12.1103 13.4688 11.2148 12.5733 11.2148 11.4688C11.2148 10.3642 12.1103 9.46875 13.2148 9.46875C13.4165 9.46875 13.6111 9.49859 13.7946 9.55409C14.0269 8.70668 14.8026 8.08398 15.7237 8.08398C16.6448 8.08398 17.4205 8.70668 17.6527 9.55409C17.8363 9.49859 18.0309 9.46875 18.2325 9.46875C19.3371 9.46875 20.2325 10.3642 20.2325 11.4688C20.2325 12.5733 19.3371 13.4688 18.2325 13.4688C17.3114 13.4688 16.5357 12.8461 16.3035 11.9986Z" fill="#4E9A27"/>
<ellipse cx="12.2324" cy="11.3066" rx="3" ry="4" fill="#EBF3FF"/>
<ellipse cx="12.2324" cy="12.1816" rx="1.5" ry="2" fill="#FCD258"/>
<path fill-rule="evenodd" clip-rule="evenodd" d="M19.2828 7.81728C19.2113 7.55054 18.9372 7.39225 18.6704 7.46372C18.0857 7.6204 17.3165 7.89228 16.5781 8.3193C15.8421 8.74498 15.1076 9.34178 14.6348 10.1608C14.1781 10.9518 13.9663 11.8104 14.0155 12.573C14.0644 13.3313 14.3817 14.0561 15.0498 14.4419C15.7179 14.8276 16.5043 14.74 17.1855 14.4032C17.8705 14.0645 18.5082 13.4518 18.9649 12.6608C19.4406 11.8368 19.5792 10.8671 19.5753 10.0072C19.5715 9.14214 19.4233 8.3415 19.2828 7.81728Z" fill="#9FDB31"/>
<path fill-rule="evenodd" clip-rule="evenodd" d="M18.0494 9.24561C18.2886 9.38368 18.3705 9.68947 18.2324 9.92862L16.2324 13.3927C16.0944 13.6319 15.7886 13.7138 15.5494 13.5757C15.3103 13.4377 15.2283 13.1319 15.3664 12.8927L17.3664 9.42862C17.5045 9.18947 17.8103 9.10753 18.0494 9.24561Z" fill="#71BF2D"/>
<path fill-rule="evenodd" clip-rule="evenodd" d="M4.21458 13C3.66229 13 3.21458 13.4477 3.21458 14V14.625H21.2146V14C21.2146 13.4477 20.7669 13 20.2146 13H4.21458ZM8.93569 19.5004C6.04648 19.5004 3.65039 17.3891 3.20605 14.6252H21.2246C20.7803 17.3891 18.3842 19.5004 15.495 19.5004H8.93569Z" fill="#B7DEFF"/>
</svg>
